<?xml version="1.0" encoding="utf-8"?>
<!-- Generator: Adobe Illustrator 28.4.1, SVG Export Plug-In . SVG Version: 6.00 Build 0)  -->
<svg version="1.1" id="drawing2" xmlns="http://www.w3.org/2000/svg" xmlns:xlink="http://www.w3.org/1999/xlink" x="0px" y="0px"
	 viewBox="0 0 164 32" style="enable-background:new 0 0 164 32;" xml:space="preserve">
<style type="text/css">
	.st0{fill:#FFFFFF;}
</style>
<g>
	<g>
		<path class="st0" d="M52.8,23.4L52,20.6h-4.8l-0.8,2.8H42l4.9-14.9h5.4l4.9,14.9H52.8z M51.2,17.3l-0.6-2.4
			c-0.1-0.3-0.2-0.6-0.3-1.1c-0.1-0.5-0.3-1-0.4-1.5c-0.1-0.5-0.2-1-0.3-1.3c-0.1,0.3-0.1,0.8-0.3,1.3c-0.1,0.5-0.2,1-0.3,1.5
			c-0.1,0.5-0.2,0.9-0.3,1.2L48,17.3H51.2z"/>
		<path class="st0" d="M63.9,8.5c1.9,0,3.3,0.4,4.2,1.2c0.9,0.8,1.4,2,1.4,3.5c0,0.7-0.1,1.3-0.3,2c-0.2,0.6-0.5,1.2-0.9,1.7
			c-0.4,0.5-1,0.9-1.7,1.2c-0.7,0.3-1.6,0.4-2.7,0.4h-1.1v4.9h-4V8.5H63.9z M63.8,11.8h-1v3.4h0.8c0.3,0,0.7-0.1,1-0.2
			c0.3-0.1,0.5-0.3,0.7-0.6c0.2-0.3,0.3-0.6,0.3-1.1c0-0.5-0.1-0.8-0.4-1.1C64.8,11.9,64.4,11.8,63.8,11.8z"/>
		<path class="st0" d="M71.9,23.4V8.5h4v14.9H71.9z"/>
		<path class="st0" d="M88,19.5c0,0.9-0.2,1.6-0.7,2.3c-0.4,0.6-1,1.1-1.8,1.4c-0.8,0.3-1.7,0.5-2.8,0.5c-0.6,0-1.1,0-1.6-0.1
			c-0.5-0.1-1-0.1-1.4-0.2c-0.4-0.1-0.8-0.2-1.1-0.4v-1.7c0.5,0.2,1.1,0.4,1.9,0.6c0.7,0.2,1.5,0.3,2.3,0.3c0.7,0,1.4-0.1,1.9-0.3
			c0.5-0.2,0.9-0.5,1.2-0.9c0.3-0.4,0.4-0.8,0.4-1.4c0-0.5-0.1-0.9-0.3-1.3c-0.2-0.3-0.6-0.7-1.1-0.9c-0.5-0.3-1.2-0.6-2.1-0.9
			c-0.6-0.2-1.2-0.5-1.7-0.7c-0.5-0.3-0.9-0.6-1.2-0.9c-0.3-0.3-0.6-0.7-0.7-1.2c-0.2-0.4-0.2-1-0.2-1.5c0-0.8,0.2-1.5,0.6-2
			c0.4-0.6,1-1,1.7-1.3c0.7-0.3,1.5-0.5,2.5-0.5c0.8,0,1.5,0.1,2.2,0.2c0.7,0.1,1.3,0.3,1.9,0.6l-0.5,1.5c-0.5-0.2-1.1-0.4-1.7-0.6
			c-0.6-0.1-1.2-0.2-1.9-0.2c-0.6,0-1.2,0.1-1.6,0.3c-0.4,0.2-0.8,0.4-1,0.8c-0.2,0.3-0.3,0.7-0.3,1.2c0,0.5,0.1,1,0.3,1.3
			c0.2,0.3,0.6,0.7,1.1,0.9c0.5,0.3,1.1,0.5,1.9,0.8c0.9,0.3,1.6,0.7,2.2,1c0.6,0.4,1.1,0.8,1.4,1.3C87.8,18,88,18.7,88,19.5z"/>
		<path class="st0" d="M89,12.3h1.8l2.5,6.5c0.1,0.4,0.3,0.7,0.4,1.1c0.1,0.3,0.2,0.7,0.3,1c0.1,0.3,0.2,0.6,0.2,0.9h0.1
			c0.1-0.3,0.2-0.8,0.4-1.3s0.4-1.1,0.6-1.7l2.3-6.5h1.8l-4.9,12.8c-0.3,0.7-0.6,1.3-0.9,1.8c-0.3,0.5-0.8,0.9-1.2,1.2
			c-0.5,0.3-1.1,0.4-1.8,0.4c-0.3,0-0.6,0-0.8-0.1c-0.2,0-0.5-0.1-0.6-0.1v-1.4c0.1,0,0.3,0.1,0.5,0.1c0.2,0,0.4,0,0.7,0
			c0.4,0,0.8-0.1,1.1-0.2c0.3-0.2,0.6-0.4,0.8-0.7c0.2-0.3,0.4-0.7,0.6-1.1l0.6-1.6L89,12.3z"/>
		<path class="st0" d="M106.5,12.1c1.3,0,2.3,0.3,3,1c0.7,0.6,1,1.7,1,3.1v7.3h-1.7v-7.2c0-0.9-0.2-1.6-0.6-2.1
			c-0.4-0.5-1.1-0.7-1.9-0.7c-1.2,0-2.1,0.3-2.6,1c-0.5,0.7-0.8,1.7-0.8,3v5.8h-1.7V12.3h1.4l0.3,1.6h0.1c0.2-0.4,0.5-0.7,0.9-1
			c0.4-0.3,0.8-0.5,1.2-0.6S106,12.1,106.5,12.1z"/>
		<path class="st0" d="M118.5,23.6c-1,0-1.9-0.2-2.7-0.6c-0.8-0.4-1.4-1-1.8-1.9c-0.4-0.8-0.6-1.9-0.6-3.2c0-1.3,0.2-2.5,0.7-3.3
			c0.5-0.9,1.1-1.5,1.9-1.9c0.8-0.4,1.7-0.6,2.7-0.6c0.6,0,1.1,0.1,1.6,0.2c0.5,0.1,0.9,0.3,1.3,0.4l-0.5,1.4
			c-0.3-0.1-0.7-0.3-1.2-0.4c-0.4-0.1-0.9-0.2-1.2-0.2c-0.8,0-1.4,0.2-1.9,0.5c-0.5,0.3-0.9,0.8-1.1,1.5c-0.3,0.6-0.4,1.4-0.4,2.4
			c0,0.9,0.1,1.7,0.4,2.3c0.2,0.6,0.6,1.1,1.1,1.5c0.5,0.3,1.1,0.5,1.8,0.5c0.6,0,1.1-0.1,1.6-0.2c0.5-0.1,0.9-0.3,1.3-0.4V23
			c-0.4,0.2-0.8,0.3-1.2,0.4C119.6,23.6,119.1,23.6,118.5,23.6z"/>
		<path class="st0" d="M123.7,22.4c0-0.5,0.1-0.8,0.3-1c0.2-0.2,0.5-0.3,0.8-0.3c0.3,0,0.6,0.1,0.9,0.3c0.2,0.2,0.4,0.5,0.4,1
			c0,0.5-0.1,0.8-0.4,1c-0.2,0.2-0.5,0.3-0.9,0.3c-0.3,0-0.6-0.1-0.8-0.3C123.8,23.2,123.7,22.8,123.7,22.4z"/>
		<path class="st0" d="M133.4,23.6c-1.4,0-2.5-0.5-3.4-1.4c-0.8-1-1.2-2.4-1.2-4.3c0-1.9,0.4-3.4,1.3-4.3c0.8-1,2-1.5,3.4-1.5
			c0.6,0,1.1,0.1,1.5,0.2c0.4,0.2,0.8,0.4,1.1,0.6c0.3,0.3,0.6,0.6,0.8,0.9h0.1c0-0.2-0.1-0.5-0.1-0.9s0-0.7,0-0.9V7.6h1.7v15.8
			h-1.4l-0.3-1.6h-0.1c-0.2,0.3-0.5,0.6-0.8,0.9c-0.3,0.3-0.7,0.5-1.1,0.6C134.5,23.5,134,23.6,133.4,23.6z M133.7,22.2
			c1.2,0,2-0.3,2.5-1c0.5-0.7,0.7-1.7,0.7-3v-0.3c0-1.4-0.2-2.5-0.7-3.3c-0.5-0.8-1.3-1.1-2.6-1.1c-1,0-1.8,0.4-2.3,1.2
			c-0.5,0.8-0.8,1.9-0.8,3.3c0,1.4,0.3,2.4,0.8,3.2C131.9,21.8,132.6,22.2,133.7,22.2z"/>
		<path class="st0" d="M146.5,12.1c0.9,0,1.8,0.2,2.4,0.6c0.7,0.4,1.2,1,1.6,1.8c0.4,0.8,0.5,1.6,0.5,2.7v1h-7.7c0,1.3,0.3,2.3,1,3
			c0.6,0.7,1.5,1,2.7,1c0.7,0,1.3-0.1,1.9-0.2c0.5-0.1,1.1-0.3,1.7-0.6v1.5c-0.6,0.3-1.1,0.4-1.7,0.5c-0.6,0.1-1.2,0.2-2,0.2
			c-1.1,0-2-0.2-2.8-0.7c-0.8-0.4-1.4-1.1-1.9-1.9c-0.4-0.8-0.7-1.9-0.7-3.1c0-1.2,0.2-2.2,0.6-3.1c0.4-0.9,1-1.6,1.7-2
			C144.6,12.3,145.5,12.1,146.5,12.1z M146.5,13.4c-0.9,0-1.6,0.3-2.2,0.9c-0.5,0.6-0.9,1.4-1,2.5h5.9c0-0.7-0.1-1.2-0.3-1.8
			c-0.2-0.5-0.5-0.9-0.9-1.2C147.6,13.6,147.1,13.4,146.5,13.4z"/>
		<path class="st0" d="M156.3,23.4l-4.2-11.1h1.8l2.5,6.7c0.2,0.5,0.3,1,0.5,1.5c0.2,0.6,0.3,1,0.4,1.3h0.1c0.1-0.3,0.2-0.8,0.4-1.3
			c0.2-0.6,0.4-1.1,0.5-1.5l2.5-6.7h1.8l-4.2,11.1H156.3z"/>
	</g>
	<g>
		<path class="st0" d="M27.3,3.2l-6.5,9.6c-0.3,0.5-0.3,1.1,0,1.6l1.9,2.9c0.4,0.6,0.3,1.3-0.2,1.8l-4.3,4.2c-0.5,0.5,0,1.4,0.7,1.1
			l11.3-3.8c0.9-0.3,1.2-1.3,0.8-2.1l-1.7-2.7c-0.3-0.6-0.2-1.3,0.2-1.7l3.7-3.5c0.5-0.5,0.6-1.2,0.2-1.8l-3.8-5.5
			C29.1,2.4,27.9,2.4,27.3,3.2z"/>
		<path class="st0" d="M35,28.3l-2.7-4.8c-0.4-0.7-1.2-1-2-0.9l0,0c-1.2,0.3-1.7,1.6-1.1,2.7l1.2,2.1H6l12.1-21l0.7,1.3
			c0.7,1.1,2.3,1.2,3,0.1l0,0c0.4-0.6,0.4-1.3,0.1-1.9l-2.3-4c-0.3-0.4-0.7-0.8-1.2-0.9c-0.8-0.2-1.6,0.2-2,0.9L1.4,28.3
			C1,29,1.1,29.8,1.6,30.4C2,30.8,2.5,31,3,31h30.4c0.5,0,1-0.2,1.4-0.6C35.3,29.8,35.4,29,35,28.3z"/>
	</g>
</g>
</svg>
