<?xml version="1.0" encoding="utf-8"?>
<!-- Generator: Adobe Illustrator 28.4.1, SVG Export Plug-In . SVG Version: 6.00 Build 0)  -->
<svg version="1.1" id="drawing2" xmlns="http://www.w3.org/2000/svg" xmlns:xlink="http://www.w3.org/1999/xlink" x="0px" y="0px"
	 viewBox="0 0 126 32" style="enable-background:new 0 0 126 32;" xml:space="preserve">
<g>
	<path d="M13.7,23.4L13,20.6H8.2l-0.8,2.8H3L7.9,8.5h5.4l4.9,14.9H13.7z M12.2,17.3l-0.6-2.4c-0.1-0.3-0.2-0.6-0.3-1.1
		c-0.1-0.5-0.3-1-0.4-1.5c-0.1-0.5-0.2-1-0.3-1.3c-0.1,0.3-0.1,0.8-0.3,1.3c-0.1,0.5-0.2,1-0.3,1.5c-0.1,0.5-0.2,0.9-0.3,1.2L9,17.3
		H12.2z"/>
	<path d="M24.9,8.5c1.9,0,3.3,0.4,4.2,1.2c0.9,0.8,1.4,2,1.4,3.5c0,0.7-0.1,1.3-0.3,2c-0.2,0.6-0.5,1.2-0.9,1.7
		c-0.4,0.5-1,0.9-1.7,1.2c-0.7,0.3-1.6,0.4-2.7,0.4h-1.1v4.9h-4V8.5H24.9z M24.8,11.8h-1v3.4h0.8c0.3,0,0.7-0.1,1-0.2
		c0.3-0.1,0.5-0.3,0.7-0.6c0.2-0.3,0.3-0.6,0.3-1.1c0-0.5-0.1-0.8-0.4-1.1S25.4,11.8,24.8,11.8z"/>
	<path d="M32.9,23.4V8.5h4v14.9H32.9z"/>
	<path d="M49,19.4c0,0.9-0.2,1.6-0.7,2.3c-0.4,0.6-1,1.1-1.8,1.4c-0.8,0.3-1.7,0.5-2.8,0.5c-0.6,0-1.1,0-1.6-0.1
		c-0.5-0.1-1-0.1-1.4-0.2c-0.4-0.1-0.8-0.2-1.1-0.4v-1.7c0.5,0.2,1.1,0.4,1.9,0.6c0.7,0.2,1.5,0.3,2.3,0.3c0.7,0,1.4-0.1,1.9-0.3
		c0.5-0.2,0.9-0.5,1.2-0.9c0.3-0.4,0.4-0.8,0.4-1.4c0-0.5-0.1-0.9-0.3-1.3c-0.2-0.3-0.6-0.7-1.1-0.9c-0.5-0.3-1.2-0.6-2.1-0.9
		C43,16.3,42.5,16,42,15.7c-0.5-0.3-0.9-0.6-1.2-0.9c-0.3-0.3-0.6-0.7-0.7-1.2c-0.2-0.4-0.2-1-0.2-1.5c0-0.8,0.2-1.5,0.6-2
		c0.4-0.6,1-1,1.7-1.3c0.7-0.3,1.5-0.5,2.5-0.5c0.8,0,1.5,0.1,2.2,0.2c0.7,0.1,1.3,0.3,1.9,0.6l-0.5,1.5c-0.5-0.2-1.1-0.4-1.7-0.6
		c-0.6-0.1-1.2-0.2-1.9-0.2c-0.6,0-1.2,0.1-1.6,0.3c-0.4,0.2-0.8,0.4-1,0.8c-0.2,0.3-0.3,0.7-0.3,1.2c0,0.5,0.1,1,0.3,1.3
		c0.2,0.3,0.6,0.7,1.1,0.9c0.5,0.3,1.1,0.5,1.9,0.8c0.9,0.3,1.6,0.7,2.2,1c0.6,0.4,1.1,0.8,1.4,1.3C48.8,18,49,18.7,49,19.4z"/>
	<path d="M50,12.3h1.8l2.5,6.5c0.1,0.4,0.3,0.7,0.4,1.1c0.1,0.3,0.2,0.7,0.3,1c0.1,0.3,0.2,0.6,0.2,0.9h0.1c0.1-0.3,0.2-0.8,0.4-1.3
		s0.4-1.1,0.6-1.7l2.3-6.5h1.8L55.6,25c-0.3,0.7-0.6,1.3-0.9,1.8c-0.3,0.5-0.8,0.9-1.2,1.2c-0.5,0.3-1.1,0.4-1.8,0.4
		c-0.3,0-0.6,0-0.8-0.1c-0.2,0-0.5-0.1-0.6-0.1v-1.4c0.1,0,0.3,0.1,0.5,0.1c0.2,0,0.4,0,0.7,0c0.4,0,0.8-0.1,1.1-0.2
		c0.3-0.2,0.6-0.4,0.8-0.7c0.2-0.3,0.4-0.7,0.6-1.1l0.6-1.6L50,12.3z"/>
	<path d="M67.5,12.1c1.3,0,2.3,0.3,3,1s1,1.7,1,3.1v7.3h-1.7v-7.2c0-0.9-0.2-1.6-0.6-2.1c-0.4-0.5-1.1-0.7-1.9-0.7
		c-1.2,0-2.1,0.3-2.6,1c-0.5,0.7-0.8,1.7-0.8,3v5.8h-1.7V12.3h1.4l0.3,1.6h0.1c0.2-0.4,0.5-0.7,0.9-1c0.4-0.3,0.8-0.5,1.2-0.6
		S67,12.1,67.5,12.1z"/>
	<path d="M79.4,23.6c-1,0-1.9-0.2-2.7-0.6c-0.8-0.4-1.4-1-1.8-1.9c-0.4-0.8-0.6-1.9-0.6-3.2c0-1.3,0.2-2.5,0.7-3.3
		c0.5-0.9,1.1-1.5,1.9-1.9c0.8-0.4,1.7-0.6,2.7-0.6c0.6,0,1.1,0.1,1.6,0.2c0.5,0.1,0.9,0.3,1.3,0.4L82,14.1
		c-0.3-0.1-0.7-0.3-1.2-0.4c-0.4-0.1-0.9-0.2-1.2-0.2c-0.8,0-1.4,0.2-1.9,0.5c-0.5,0.3-0.9,0.8-1.1,1.5c-0.3,0.6-0.4,1.4-0.4,2.4
		c0,0.9,0.1,1.7,0.4,2.3c0.2,0.6,0.6,1.1,1.1,1.5c0.5,0.3,1.1,0.5,1.8,0.5c0.6,0,1.1-0.1,1.6-0.2c0.5-0.1,0.9-0.3,1.3-0.4V23
		c-0.4,0.2-0.8,0.3-1.2,0.4C80.6,23.6,80.1,23.6,79.4,23.6z"/>
	<path d="M84.7,22.3c0-0.5,0.1-0.8,0.3-1c0.2-0.2,0.5-0.3,0.8-0.3c0.3,0,0.6,0.1,0.9,0.3c0.2,0.2,0.4,0.5,0.4,1c0,0.5-0.1,0.8-0.4,1
		c-0.2,0.2-0.5,0.3-0.9,0.3c-0.3,0-0.6-0.1-0.8-0.3C84.8,23.2,84.7,22.8,84.7,22.3z"/>
	<path d="M94.4,23.6c-1.4,0-2.5-0.5-3.4-1.4c-0.8-1-1.2-2.4-1.2-4.3c0-1.9,0.4-3.4,1.3-4.3c0.8-1,2-1.5,3.4-1.5
		c0.6,0,1.1,0.1,1.5,0.2c0.4,0.2,0.8,0.4,1.1,0.6c0.3,0.3,0.6,0.6,0.8,0.9H98c0-0.2-0.1-0.5-0.1-0.9c0-0.4,0-0.7,0-0.9V7.6h1.7v15.8
		h-1.4L98,21.8h-0.1c-0.2,0.3-0.5,0.6-0.8,0.9c-0.3,0.3-0.7,0.5-1.1,0.6C95.5,23.5,95,23.6,94.4,23.6z M94.6,22.2c1.2,0,2-0.3,2.5-1
		c0.5-0.7,0.7-1.7,0.7-3v-0.3c0-1.4-0.2-2.5-0.7-3.3c-0.5-0.8-1.3-1.1-2.6-1.1c-1,0-1.8,0.4-2.3,1.2c-0.5,0.8-0.8,1.9-0.8,3.3
		c0,1.4,0.3,2.4,0.8,3.2C92.8,21.8,93.6,22.2,94.6,22.2z"/>
	<path d="M107.5,12.1c0.9,0,1.8,0.2,2.4,0.6c0.7,0.4,1.2,1,1.6,1.8c0.4,0.8,0.5,1.6,0.5,2.7v1h-7.7c0,1.3,0.3,2.3,1,3
		c0.6,0.7,1.5,1,2.7,1c0.7,0,1.3-0.1,1.9-0.2c0.5-0.1,1.1-0.3,1.7-0.6v1.5c-0.6,0.3-1.1,0.4-1.7,0.5c-0.6,0.1-1.2,0.2-2,0.2
		c-1.1,0-2-0.2-2.8-0.7c-0.8-0.4-1.4-1.1-1.9-1.9c-0.4-0.8-0.7-1.9-0.7-3.1c0-1.2,0.2-2.2,0.6-3.1c0.4-0.9,1-1.6,1.7-2
		C105.6,12.3,106.5,12.1,107.5,12.1z M107.4,13.4c-0.9,0-1.6,0.3-2.2,0.9c-0.5,0.6-0.9,1.4-1,2.5h5.9c0-0.7-0.1-1.2-0.3-1.8
		c-0.2-0.5-0.5-0.9-0.9-1.2C108.6,13.6,108.1,13.4,107.4,13.4z"/>
	<path d="M117.3,23.4l-4.2-11.1h1.8l2.5,6.7c0.2,0.5,0.3,1,0.5,1.5c0.2,0.6,0.3,1,0.4,1.3h0.1c0.1-0.3,0.2-0.8,0.4-1.3
		c0.2-0.6,0.4-1.1,0.5-1.5l2.5-6.7h1.8l-4.2,11.1H117.3z"/>
</g>
</svg>
