<?xml version="1.0" encoding="utf-8"?>
<!-- Generator: Adobe Illustrator 28.4.1, SVG Export Plug-In . SVG Version: 6.00 Build 0)  -->
<svg version="1.1" id="drawing2" xmlns="http://www.w3.org/2000/svg" xmlns:xlink="http://www.w3.org/1999/xlink" x="0px" y="0px"
	 viewBox="0 0 36 32" style="enable-background:new 0 0 36 32;" xml:space="preserve">
<style type="text/css">
	.st0{fill:#FFFFFF;}
</style>
<g>
	<path class="st0" d="M27.3,3.2l-6.5,9.6c-0.3,0.5-0.3,1.1,0,1.6l1.9,2.9c0.4,0.6,0.3,1.3-0.2,1.8l-4.3,4.2c-0.5,0.5,0,1.4,0.7,1.1
		l11.3-3.8c0.9-0.3,1.2-1.3,0.8-2.1l-1.7-2.7c-0.3-0.6-0.2-1.3,0.2-1.7l3.7-3.5c0.5-0.5,0.6-1.2,0.2-1.8l-3.8-5.5
		C29.1,2.4,27.9,2.4,27.3,3.2z"/>
	<path class="st0" d="M35,28.3l-2.7-4.8c-0.4-0.7-1.2-1-2-0.9l0,0c-1.2,0.3-1.7,1.6-1.1,2.7l1.2,2.1H6l12.1-21l0.7,1.3
		c0.7,1.1,2.3,1.2,3,0.1l0,0c0.4-0.6,0.4-1.3,0.1-1.9l-2.3-4c-0.3-0.4-0.7-0.8-1.2-0.9c-0.8-0.2-1.6,0.2-2,0.9L1.4,28.3
		C1,29,1.1,29.8,1.6,30.4C2,30.8,2.5,31,3,31h30.4c0.5,0,1-0.2,1.4-0.6C35.3,29.8,35.4,29,35,28.3z"/>
</g>
</svg>
