<?xml version="1.0" encoding="utf-8"?>
<!-- Generator: Adobe Illustrator 28.4.1, SVG Export Plug-In . SVG Version: 6.00 Build 0)  -->
<svg version="1.1" id="Layer_1" xmlns="http://www.w3.org/2000/svg" xmlns:xlink="http://www.w3.org/1999/xlink" x="0px" y="0px"
	 viewBox="0 0 300 200" style="enable-background:new 0 0 300 200;" xml:space="preserve">
<style type="text/css">
	.st0{fill:#E4410E;}
	.st1{fill:#FFBF4A;}
	.st2{fill:url(#SVGID_1_);}
	.st3{fill:url(#SVGID_00000141430871949259410120000014253260203642604479_);}
	.st4{fill:url(#SVGID_00000121261011512583175040000005777384339863136396_);}
	.st5{fill:url(#SVGID_00000111904946890531529860000004062172741604824723_);}
	.st6{fill:url(#SVGID_00000017495716537819428460000009932924399637039524_);}
	.st7{fill:url(#SVGID_00000092440778229513367110000002162968196634598313_);}
	.st8{fill:url(#SVGID_00000145758084537549568340000018122473496935921590_);}
	.st9{fill:url(#SVGID_00000124872759737633507730000015810026091185164459_);}
	.st10{fill:url(#SVGID_00000139278728933885302730000012216601598266124416_);}
	.st11{fill:#E22C03;}
	.st12{fill:url(#SVGID_00000153665841824387927000000007764455151605865358_);}
	.st13{fill:url(#SVGID_00000056385390549895551110000017940127198490411951_);}
	.st14{fill:url(#SVGID_00000158719471155452765500000000006487754739827599_);}
	.st15{fill:url(#SVGID_00000017513598882857620530000006919408541758216877_);}
	.st16{fill:url(#SVGID_00000080901232989716474910000010442307557268270250_);}
	.st17{fill:url(#SVGID_00000101077820883788229260000015173736767113547425_);}
	.st18{fill:url(#SVGID_00000139269318182998986260000010864248773987179915_);}
	.st19{fill:url(#SVGID_00000047053396904901538950000007126111224886989469_);}
	.st20{fill:url(#SVGID_00000101105725759824419090000007197668355825095049_);}
	.st21{fill:url(#SVGID_00000166637734293957837820000005626624886792100747_);}
	.st22{fill:url(#SVGID_00000072240475804112640230000014342753554554382724_);}
	.st23{fill:url(#SVGID_00000042015181565110624960000003486588373767134082_);}
	.st24{fill:url(#SVGID_00000049207836393995910700000005753059472191986609_);}
	.st25{fill:url(#SVGID_00000097469583195564338630000017385764981419728050_);}
	.st26{fill:url(#SVGID_00000109008387015199028030000010717192047882019722_);}
	.st27{fill:url(#SVGID_00000165197273483745061150000016143479900412604837_);}
	.st28{fill:url(#SVGID_00000036248512696344266980000011159627066391789994_);}
</style>
<path class="st0" d="M206.61,95h-11.63l23.71-40.5c1.08-1.85-0.25-4.18-2.4-4.18H197c-1.08,0-2.07,0.63-2.52,1.62l-24.71,53.77
	c-1.08,2.34,0.64,5.01,3.21,5.01h10.92l-28.66,60.93c-1.37,2.91,2.71,5.24,4.52,2.59l50.03-73.2C211.55,98.48,209.71,95,206.61,95z"
	/>
<g>
	<g>
		<g>
			<path class="st1" d="M165.2,89.5c-0.97,0-1.94-0.37-2.68-1.11l-3.85-3.85c-1.48-1.48-1.48-3.89,0-5.37
				c1.48-1.48,3.89-1.48,5.37,0l3.85,3.85c1.48,1.48,1.48,3.89,0,5.37C167.15,89.13,166.18,89.5,165.2,89.5z"/>
		</g>
	</g>
	<g>
		<path class="st1" d="M156.02,111.31h-5.44c-2.1,0-3.8-1.7-3.8-3.8c0-2.1,1.7-3.8,3.8-3.8h5.44c2.1,0,3.8,1.7,3.8,3.8
			C159.82,109.61,158.12,111.31,156.02,111.31z"/>
	</g>
	<g>
		<g>
			<path class="st1" d="M153.4,125.51c-1.48,0-2.89-0.87-3.5-2.32c-0.82-1.93,0.08-4.16,2.01-4.98l5.01-2.12
				c1.93-0.82,4.16,0.08,4.98,2.01c0.82,1.93-0.08,4.16-2.01,4.98l-5.01,2.12C154.39,125.41,153.89,125.51,153.4,125.51z"/>
		</g>
	</g>
	<g>
		<g>
			<path class="st1" d="M158.26,99.93c-0.47,0-0.94-0.09-1.4-0.27l-5.06-2.01c-1.95-0.77-2.9-2.98-2.13-4.93s2.98-2.9,4.93-2.13
				l5.06,2.01c1.95,0.77,2.9,2.98,2.13,4.93C161.2,99.02,159.78,99.93,158.26,99.93z"/>
		</g>
	</g>
	<g>
		<path class="st1" d="M227.09,107.87c0-2.1-1.7-3.8-3.8-3.8h-5.44c-2.1,0-3.8,1.7-3.8,3.8c0,2.1,1.7,3.8,3.8,3.8h5.44
			C225.39,111.67,227.09,109.97,227.09,107.87z"/>
	</g>
	<g>
		<path class="st1" d="M210.09,79.42l-3.85,3.85c-1.48,1.48-1.48,3.89,0,5.37c0.74,0.74,1.71,1.11,2.68,1.11
			c0.97,0,1.94-0.37,2.68-1.11l3.85-3.85c1.48-1.48,1.48-3.89,0-5.37C213.97,77.94,211.57,77.94,210.09,79.42z"/>
	</g>
	<g>
		<path class="st1" d="M219.4,90.92l-5.06,2c-1.95,0.77-2.9,2.98-2.13,4.93c0.59,1.49,2.02,2.4,3.53,2.4c0.47,0,0.94-0.09,1.4-0.27
			l5.06-2c1.95-0.77,2.9-2.98,2.13-4.93C223.56,91.1,221.35,90.15,219.4,90.92z"/>
	</g>
	<g>
		<path class="st1" d="M221.9,118.31l-5.02-2.09c-1.94-0.81-4.16,0.11-4.97,2.05c-0.81,1.94,0.11,4.16,2.05,4.96l5.02,2.09
			c0.48,0.2,0.97,0.29,1.46,0.29c1.49,0,2.9-0.88,3.51-2.34C224.75,121.34,223.83,119.12,221.9,118.31z"/>
	</g>
	<g>
		<path class="st1" d="M172.5,70.22c-1.95,0.76-2.92,2.96-2.16,4.92l1.98,5.07c0.59,1.5,2.02,2.42,3.54,2.42
			c0.46,0,0.93-0.08,1.38-0.26c1.95-0.76,2.92-2.96,2.16-4.92l-1.98-5.07C176.65,70.43,174.45,69.46,172.5,70.22z"/>
	</g>
</g>
<g>
	<linearGradient id="SVGID_1_" gradientUnits="userSpaceOnUse" x1="177.3223" y1="112.9304" x2="239.0164" y2="112.9304">
		<stop  offset="1.821245e-03" style="stop-color:#ECC452"/>
		<stop  offset="1" style="stop-color:#E22E03"/>
	</linearGradient>
	<path class="st2" d="M218.4,66.28l-4.85,8.28c9.73,7.78,15.97,19.73,15.97,33.12c0,23.38-19.02,42.4-42.4,42.4
		c-1.29,0-2.56-0.07-3.83-0.18l-5.97,8.74c3.17,0.61,6.45,0.94,9.8,0.94c28.66,0,51.9-23.23,51.9-51.9
		C239.02,90.77,230.92,75.75,218.4,66.28z"/>
	
		<linearGradient id="SVGID_00000127756808407811726840000011632137255318860983_" gradientUnits="userSpaceOnUse" x1="135.2251" y1="103.4331" x2="186.4314" y2="103.4331">
		<stop  offset="1.821245e-03" style="stop-color:#ECC452"/>
		<stop  offset="1" style="stop-color:#E22E03"/>
	</linearGradient>
	<path style="fill:url(#SVGID_00000127756808407811726840000011632137255318860983_);" d="M162.74,142.34
		c-10.89-7.68-18.02-20.35-18.02-34.66c0-21.62,16.27-39.5,37.21-42.07l4.51-9.81c-28.34,0.37-51.21,23.45-51.21,51.88
		c0,18.14,9.31,34.09,23.41,43.37L162.74,142.34z"/>
</g>
<g>
	
		<linearGradient id="SVGID_00000128482039650418661140000009557984852722916499_" gradientUnits="userSpaceOnUse" x1="147.8799" y1="129.934" x2="84.0641" y2="21.6406">
		<stop  offset="0" style="stop-color:#A0C55C"/>
		<stop  offset="0.531" style="stop-color:#00A4B0"/>
		<stop  offset="1" style="stop-color:#0C8DD7"/>
	</linearGradient>
	<path style="fill:url(#SVGID_00000128482039650418661140000009557984852722916499_);" d="M103.05,77.31
		c0,7.63,6.19,13.82,13.82,13.82s13.82-6.19,13.82-13.82c0-7.63-6.19-13.82-13.82-13.82S103.05,69.68,103.05,77.31z M123.09,77.31
		c0,3.43-2.79,6.22-6.22,6.22s-6.22-2.79-6.22-6.22c0-3.43,2.79-6.22,6.22-6.22S123.09,73.88,123.09,77.31z"/>
	
		<linearGradient id="SVGID_00000082362428694927722860000014270026770856999869_" gradientUnits="userSpaceOnUse" x1="147.8648" y1="129.9429" x2="84.049" y2="21.6495">
		<stop  offset="0" style="stop-color:#A0C55C"/>
		<stop  offset="0.531" style="stop-color:#00A4B0"/>
		<stop  offset="1" style="stop-color:#0C8DD7"/>
	</linearGradient>
	<path style="fill:url(#SVGID_00000082362428694927722860000014270026770856999869_);" d="M160.11,42.44l-8.32-8.32
		c-0.87-0.87-2.25-0.98-3.25-0.26l-8.21,5.93c-4.02-2.52-8.47-4.41-13.22-5.53l-1.8-10.18c-0.21-1.2-1.26-2.08-2.48-2.08h-11.76
		c-1.24,0-2.29,0.9-2.49,2.12l-1.62,10.07c-4.74,1.08-9.19,2.92-13.21,5.39l-8.51-5.95c-1-0.7-2.36-0.58-3.22,0.28l-8.32,8.32
		c-0.87,0.87-0.98,2.25-0.26,3.25l5.98,8.28c-2.52,4-4.41,8.42-5.55,13.15l-10.21,1.81c-1.2,0.21-2.08,1.26-2.08,2.48v11.76
		c0,1.24,0.9,2.29,2.12,2.49l10.02,1.61c1.07,4.77,2.91,9.25,5.38,13.3l-5.89,8.43c-0.7,1-0.58,2.36,0.28,3.22l8.32,8.32
		c0.87,0.87,2.25,0.98,3.25,0.26l8.15-5.89c4.04,2.56,8.51,4.48,13.3,5.63l1.78,10.04c0.21,1.2,1.26,2.08,2.48,2.08h11.76
		c1.24,0,2.29-0.9,2.49-2.12l1.59-9.86c1.21-0.27,2.4-0.59,3.58-0.96c-0.85-3.96-1.31-8.06-1.31-12.27c0-1.19,0.05-2.37,0.12-3.54
		c-3.69,1.7-7.79,2.65-12.11,2.65c-16.02,0-29.05-13.03-29.05-29.05c0-16.02,13.03-29.05,29.05-29.05c12.71,0,23.54,8.21,27.47,19.6
		c3.6-3.88,7.72-7.26,12.26-10.04c-0.63-1.29-1.33-2.54-2.08-3.75l5.88-8.41C161.09,44.66,160.97,43.3,160.11,42.44z"/>
</g>
</svg>
