<?xml version="1.0" encoding="utf-8"?>
<!-- Generator: Adobe Illustrator 28.4.1, SVG Export Plug-In . SVG Version: 6.00 Build 0)  -->
<svg version="1.1" id="Layer_1" xmlns="http://www.w3.org/2000/svg" xmlns:xlink="http://www.w3.org/1999/xlink" x="0px" y="0px"
	 viewBox="0 0 300 200" style="enable-background:new 0 0 300 200;" xml:space="preserve">
<style type="text/css">
	.st0{fill:#E4410E;}
	.st1{fill:#FFBF4A;}
	.st2{fill:url(#SVGID_1_);}
	.st3{fill:url(#SVGID_00000086658826517581707510000012870974946090587012_);}
	.st4{fill:url(#SVGID_00000131343367359410315730000006271748395303793536_);}
	.st5{fill:url(#SVGID_00000003088130476146410880000010236165834436434611_);}
	.st6{fill:url(#SVGID_00000180353934098831803640000000993083129305182868_);}
	.st7{fill:url(#SVGID_00000153666469009047220610000000766522644400236436_);}
	.st8{fill:url(#SVGID_00000088845927345720748350000004912231617446854040_);}
	.st9{fill:url(#SVGID_00000013164483892731009290000013972610702130878628_);}
	.st10{fill:url(#SVGID_00000150086641823863809930000016435042016353957550_);}
	.st11{fill:#E22C03;}
	.st12{fill:url(#SVGID_00000152984964655801648790000006501444366840629923_);}
	.st13{fill:url(#SVGID_00000042735045969729674010000012856254454985563264_);}
	.st14{fill:url(#SVGID_00000123398632872968774460000013659496171217686966_);}
	.st15{fill:url(#SVGID_00000142893120044727916770000017065518977472003750_);}
	.st16{fill:url(#SVGID_00000037670141286077159290000010109713822959752327_);}
	.st17{fill:url(#SVGID_00000165936795035611539410000000192986764482749336_);}
	.st18{fill:url(#SVGID_00000007417570899598255020000015263850185682590860_);}
	.st19{fill:url(#SVGID_00000132783573529210417530000000646627940302144940_);}
	.st20{fill:url(#SVGID_00000181055199235639445050000002745651895866852502_);}
	.st21{fill:url(#SVGID_00000105402463107690358300000004626274429603014556_);}
	.st22{fill:url(#SVGID_00000155134373819081396590000014606463980346128512_);}
	.st23{fill:url(#SVGID_00000095311657618766050750000009328046311329692333_);}
	.st24{fill:url(#SVGID_00000028301349128904884720000012287362687763226045_);}
	.st25{fill:url(#SVGID_00000099638232911148327300000010326333264534117523_);}
	.st26{fill:url(#SVGID_00000170242885427584439980000003021894214222709888_);}
	.st27{fill:url(#SVGID_00000096045019176927039490000015409032487687505798_);}
	.st28{fill:url(#SVGID_00000019654418774847967690000005735362969873020350_);}
</style>
<g>
	<g>
		<linearGradient id="SVGID_1_" gradientUnits="userSpaceOnUse" x1="197.2695" y1="79.1544" x2="176.9477" y2="162.6997">
			<stop  offset="0" style="stop-color:#ECC452;stop-opacity:0"/>
			<stop  offset="0.311" style="stop-color:#ECC452"/>
			<stop  offset="1" style="stop-color:#E22E03"/>
		</linearGradient>
		<path class="st2" d="M166.91,153.39H155.4v-23.1h11.51c16.53,0,29.99-13.45,29.99-29.99V75.55H220v24.75
			C220,129.58,196.18,153.39,166.91,153.39z"/>
	</g>
	
		<linearGradient id="SVGID_00000131369689444638616360000005321316819945660333_" gradientUnits="userSpaceOnUse" x1="167.4528" y1="122.7984" x2="133.5831" y2="35.4899">
		<stop  offset="0" style="stop-color:#A0C55C"/>
		<stop  offset="0.531" style="stop-color:#00A4B0"/>
		<stop  offset="1" style="stop-color:#0C8DD7"/>
	</linearGradient>
	<path style="fill:url(#SVGID_00000131369689444638616360000005321316819945660333_);" d="M213.63,57.15l-21.21-21.23
		c-1.5-1.5-4.05-0.44-4.05,1.68v9.62h-44.56c-29.27,0-53.09,23.82-53.09,53.09s23.82,53.09,53.09,53.09h11.59v-23.1h-11.59
		c-16.53,0-29.99-13.45-29.99-29.99s13.45-29.99,29.99-29.99h44.56v9.73c0,2.12,2.56,3.18,4.05,1.68l21.21-21.23
		C214.56,59.57,214.56,58.07,213.63,57.15z"/>
	
		<linearGradient id="SVGID_00000049905282229128627340000006066619397855774143_" gradientUnits="userSpaceOnUse" x1="148.6976" y1="166.0511" x2="103.2761" y2="48.9646">
		<stop  offset="0" style="stop-color:#A0C55C"/>
		<stop  offset="0.531" style="stop-color:#00A4B0"/>
		<stop  offset="1" style="stop-color:#0C8DD7"/>
	</linearGradient>
	<path style="fill:url(#SVGID_00000049905282229128627340000006066619397855774143_);" d="M141.82,160.35
		c-33.11,0-60.04-26.93-60.04-60.04c0-32.52,26-59.07,58.3-60c0.5,1.34,1.77,2.29,3.28,2.29c1.94,0,3.51-1.57,3.51-3.51
		c0-1.94-1.57-3.51-3.51-3.51c-1.75,0-3.19,1.28-3.46,2.96C106.7,39.55,80,66.86,80,100.3c0,34.09,27.73,61.82,61.82,61.82h17v-1.78
		H141.82z"/>
	<g>
		
			<linearGradient id="SVGID_00000098914938333633422990000001116291188396154781_" gradientUnits="userSpaceOnUse" x1="125.4978" y1="141.9199" x2="153.0953" y2="79.1983">
			<stop  offset="0" style="stop-color:#ECC452;stop-opacity:0"/>
			<stop  offset="0.311" style="stop-color:#ECC452"/>
			<stop  offset="1" style="stop-color:#E22E03"/>
		</linearGradient>
		<path style="fill:url(#SVGID_00000098914938333633422990000001116291188396154781_);" d="M143.81,74.16
			c-14.44,0-26.14,11.71-26.14,26.14c0,14.44,11.71,26.14,26.14,26.14s26.14-11.71,26.14-26.14
			C169.95,85.86,158.25,74.16,143.81,74.16z M143.81,121.12c-11.48,0-20.81-9.34-20.81-20.81c0-11.48,9.34-20.81,20.81-20.81
			s20.81,9.34,20.81,20.81C164.62,111.78,155.28,121.12,143.81,121.12z"/>
		
			<linearGradient id="SVGID_00000052808325198383636220000000042708661864206977_" gradientUnits="userSpaceOnUse" x1="129.13" y1="143.5181" x2="156.7276" y2="80.7964">
			<stop  offset="0" style="stop-color:#ECC452;stop-opacity:0"/>
			<stop  offset="0.311" style="stop-color:#ECC452"/>
			<stop  offset="1" style="stop-color:#E22E03"/>
		</linearGradient>
		<path style="fill:url(#SVGID_00000052808325198383636220000000042708661864206977_);" d="M155.88,85.72l-10.29,10.29
			c-0.55-0.23-1.15-0.36-1.78-0.36c-2.57,0-4.65,2.08-4.65,4.65c0,2.57,2.08,4.65,4.65,4.65c0.63,0,1.23-0.13,1.78-0.36l6.02,6.02
			l2.51-2.51l-6.02-6.02c0.23-0.55,0.36-1.15,0.36-1.78s-0.13-1.23-0.36-1.78l10.29-10.29L155.88,85.72z"/>
	</g>
	<path class="st11" d="M219.23,131.98l-1.53-0.91c-9.79,16.37-26.94,27.12-45.72,28.99c-0.5-1.34-1.77-2.3-3.28-2.3
		c-1.94,0-3.51,1.57-3.51,3.51c0,1.94,1.57,3.51,3.51,3.51c1.75,0,3.19-1.28,3.46-2.96C191.49,159.9,209.16,148.84,219.23,131.98z"
		/>
</g>
</svg>
