<?xml version="1.0" encoding="utf-8"?>
<!-- Generator: Adobe Illustrator 28.4.1, SVG Export Plug-In . SVG Version: 6.00 Build 0)  -->
<svg version="1.1" id="Layer_1" xmlns="http://www.w3.org/2000/svg" xmlns:xlink="http://www.w3.org/1999/xlink" x="0px" y="0px"
	 viewBox="0 0 300 200" style="enable-background:new 0 0 300 200;" xml:space="preserve">
<style type="text/css">
	.st0{fill:#E4410E;}
	.st1{fill:#FFBF4A;}
	.st2{fill:url(#SVGID_1_);}
	.st3{fill:url(#SVGID_00000036950052262609085910000017608053912177812354_);}
	.st4{fill:url(#SVGID_00000147915829936992605960000010341147108518875322_);}
	.st5{fill:url(#SVGID_00000016042675976174006360000012813907923353478846_);}
	.st6{fill:url(#SVGID_00000067194577667797664560000012224103597553840569_);}
	.st7{fill:url(#SVGID_00000096024255470594823920000007712074258201509308_);}
	.st8{fill:url(#SVGID_00000079478995099471822810000014500334188294565820_);}
	.st9{fill:url(#SVGID_00000013165332523043603530000001984199432444959624_);}
	.st10{fill:url(#SVGID_00000065789934061431615530000004457961059902619019_);}
	.st11{fill:#E22C03;}
	.st12{fill:url(#SVGID_00000078029547273586137580000007069562042943041942_);}
	.st13{fill:url(#SVGID_00000109744473809524446400000018112098758147970461_);}
	.st14{fill:url(#SVGID_00000052073637481444879370000017248801266516266897_);}
	.st15{fill:url(#SVGID_00000097468717733547938540000004529755171760216475_);}
	.st16{fill:url(#SVGID_00000067919401031097471160000001000182982279033521_);}
	.st17{fill:url(#SVGID_00000141444386870405700250000000605770278491721889_);}
	.st18{fill:url(#SVGID_00000081646864265339459260000016731542845388530304_);}
	.st19{fill:url(#SVGID_00000104691554651136656000000007660381967571497660_);}
	.st20{fill:url(#SVGID_00000005946904684147784050000009813045260659224470_);}
	.st21{fill:url(#SVGID_00000175284477450436922170000009211243458332131969_);}
	.st22{fill:url(#SVGID_00000005953372018455838030000008609234881937043847_);}
	.st23{fill:url(#SVGID_00000040560633713908902050000005221235782125984389_);}
	.st24{fill:url(#SVGID_00000112620585377596951800000003368448581776237992_);}
	.st25{fill:url(#SVGID_00000180362601420844167980000010323528383844791180_);}
	.st26{fill:url(#SVGID_00000176730855839944060760000000332760377020563902_);}
	.st27{fill:url(#SVGID_00000107578703543689732720000016555975309257182852_);}
	.st28{fill:url(#SVGID_00000120519529933493674740000011885853421076867713_);}
</style>
<g>
	<g>
		<linearGradient id="SVGID_1_" gradientUnits="userSpaceOnUse" x1="174.5008" y1="51.3124" x2="206.8799" y2="51.3124">
			<stop  offset="0" style="stop-color:#A0C55C"/>
			<stop  offset="0.531" style="stop-color:#00A4B0"/>
			<stop  offset="1" style="stop-color:#0C8DD7"/>
		</linearGradient>
		<path class="st2" d="M189.73,54.19l-0.21,2.17c-0.04,0.44,0.24,0.85,0.66,0.97l1.34,0.37c0.43,0.12,0.88-0.09,1.07-0.49l0.9-1.88
			c1.37,0.13,2.72-0.02,3.98-0.42l1.34,1.62c0.12,0.15,0.28,0.25,0.46,0.3c0.23,0.06,0.48,0.04,0.69-0.08l1.21-0.69
			c0.39-0.22,0.56-0.68,0.41-1.1l-0.68-1.93c1.02-0.85,1.89-1.92,2.51-3.15l2.09,0.2c0.44,0.04,0.85-0.24,0.97-0.66l0.37-1.34
			c0.12-0.43-0.09-0.88-0.49-1.07l-1.88-0.9c0.11-1.36-0.06-2.69-0.48-3.94l1.68-1.38c0.34-0.28,0.43-0.77,0.21-1.15l-0.69-1.21
			c-0.12-0.22-0.32-0.37-0.55-0.43c-0.18-0.05-0.37-0.05-0.55,0.02l-2.06,0.73c-0.83-0.96-1.86-1.78-3.04-2.37l0.22-2.27
			c0.04-0.44-0.24-0.85-0.66-0.97l-1.34-0.37c-0.43-0.12-0.88,0.09-1.07,0.49l-0.98,2.06c-1.28-0.09-2.55,0.07-3.73,0.44l-1.5-1.82
			c-0.12-0.15-0.28-0.25-0.46-0.3c-0.23-0.06-0.48-0.04-0.69,0.09l-1.21,0.69c-0.39,0.22-0.56,0.68-0.41,1.1l0.77,2.19
			c-0.94,0.8-1.74,1.78-2.34,2.91l-2.35-0.22c-0.44-0.04-0.85,0.24-0.97,0.66l-0.37,1.34c-0.12,0.43,0.09,0.88,0.49,1.07l2.06,0.99
			c-0.12,1.3,0.02,2.57,0.38,3.77l-1.76,1.46c-0.34,0.28-0.43,0.77-0.21,1.15l0.69,1.21c0.12,0.22,0.32,0.37,0.55,0.43
			c0.18,0.05,0.37,0.05,0.55-0.02l2.06-0.73c0.17,0.21,0.36,0.41,0.55,0.61L174.5,68.38l1.9,1.51l12.75-16.05
			C189.34,53.97,189.53,54.09,189.73,54.19z M187.72,43.46c1.03-3.72,4.9-5.9,8.61-4.87c3.72,1.03,5.9,4.9,4.87,8.61
			c-1.03,3.72-4.9,5.9-8.61,4.87C188.88,51.04,186.69,47.18,187.72,43.46z"/>
		
			<linearGradient id="SVGID_00000177455949645079985570000002257659699252939657_" gradientUnits="userSpaceOnUse" x1="191.4533" y1="45.329" x2="197.4759" y2="45.329">
			<stop  offset="0" style="stop-color:#A0C55C"/>
			<stop  offset="0.531" style="stop-color:#00A4B0"/>
			<stop  offset="1" style="stop-color:#0C8DD7"/>
		</linearGradient>
		<path style="fill:url(#SVGID_00000177455949645079985570000002257659699252939657_);" d="M193.66,48.23
			c1.6,0.44,3.26-0.49,3.71-2.1c0.44-1.6-0.49-3.26-2.1-3.71c-1.6-0.44-3.26,0.49-3.71,2.1C191.12,46.13,192.06,47.79,193.66,48.23z
			"/>
		
			<linearGradient id="SVGID_00000085208754343472819980000006188481424122896318_" gradientUnits="userSpaceOnUse" x1="176.76" y1="150.3709" x2="210.8692" y2="150.3709">
			<stop  offset="0" style="stop-color:#A0C55C"/>
			<stop  offset="0.531" style="stop-color:#00A4B0"/>
			<stop  offset="1" style="stop-color:#0C8DD7"/>
		</linearGradient>
		<path style="fill:url(#SVGID_00000085208754343472819980000006188481424122896318_);" d="M210.86,153.57v-6.32
			c-6.19-0.62-12.02-5.45-12.02-5.45h-0.24c0,0-2.37,1.96-5.69,3.54l-14.47-14.02l-1.69,1.75l13.71,13.29
			c-1.24,0.43-2.55,0.77-3.88,0.9v6.32c0,0-0.74,9.91,12.02,15.86h0.24C211.6,163.48,210.86,153.57,210.86,153.57z"/>
		
			<linearGradient id="SVGID_00000083792962255899313050000006207451805080397236_" gradientUnits="userSpaceOnUse" x1="78" y1="61.7528" x2="109.8593" y2="61.7528">
			<stop  offset="0" style="stop-color:#A0C55C"/>
			<stop  offset="0.531" style="stop-color:#00A4B0"/>
			<stop  offset="1" style="stop-color:#0C8DD7"/>
		</linearGradient>
		<polygon style="fill:url(#SVGID_00000083792962255899313050000006207451805080397236_);" points="108.49,75.52 109.86,73.51 
			102.82,68.69 90.86,47.99 78,70.27 100.81,70.27 		"/>
		
			<linearGradient id="SVGID_00000085972739339197702320000000013321843994943665_" gradientUnits="userSpaceOnUse" x1="89.5945" y1="148.1335" x2="124.9059" y2="148.1335">
			<stop  offset="0" style="stop-color:#A0C55C"/>
			<stop  offset="0.531" style="stop-color:#00A4B0"/>
			<stop  offset="1" style="stop-color:#0C8DD7"/>
		</linearGradient>
		<path style="fill:url(#SVGID_00000085972739339197702320000000013321843994943665_);" d="M123.19,130.18l-12.14,12.04
			c-2.25-1.74-5.07-2.79-8.13-2.79c-7.35,0-13.33,5.98-13.33,13.33c0,7.35,5.98,13.33,13.33,13.33c7.35,0,13.33-5.98,13.33-13.33
			c0-3.41-1.3-6.52-3.42-8.88l12.07-11.97L123.19,130.18z M113.82,152.76c0,6.01-4.89,10.9-10.9,10.9c-6.01,0-10.9-4.89-10.9-10.9
			c0-6.01,4.89-10.9,10.9-10.9c2.39,0,4.59,0.78,6.38,2.09l-1.63,1.62c-1.36-0.9-3-1.43-4.75-1.43c-4.76,0-8.62,3.86-8.62,8.62
			c0,4.76,3.86,8.62,8.62,8.62c4.76,0,8.62-3.86,8.62-8.62c0-2.13-0.77-4.07-2.05-5.58l1.61-1.6
			C112.79,147.5,113.82,150.01,113.82,152.76z"/>
	</g>
	
		<linearGradient id="SVGID_00000080200375225144479970000007147052123762588345_" gradientUnits="userSpaceOnUse" x1="79.9817" y1="100" x2="222" y2="100">
		<stop  offset="0" style="stop-color:#A0C55C"/>
		<stop  offset="0.531" style="stop-color:#00A4B0"/>
		<stop  offset="1" style="stop-color:#0C8DD7"/>
	</linearGradient>
	<path style="fill:url(#SVGID_00000080200375225144479970000007147052123762588345_);" d="M148.5,170.96c-0.02,0-0.04,0-0.06,0
		c-1.12-0.04-2.24-0.11-3.35-0.2c-0.89-0.07-1.56-0.86-1.48-1.75c0.07-0.89,0.84-1.56,1.75-1.48c1.05,0.09,2.13,0.15,3.2,0.19
		c0.9,0.03,1.59,0.78,1.56,1.68C150.08,170.28,149.37,170.96,148.5,170.96z M156.68,170.78c-0.84,0-1.55-0.64-1.61-1.49
		c-0.07-0.89,0.59-1.67,1.49-1.75c1.06-0.09,2.13-0.2,3.18-0.33c0.88-0.12,1.7,0.51,1.82,1.4c0.11,0.89-0.51,1.7-1.4,1.82
		c-1.1,0.14-2.22,0.26-3.34,0.35C156.77,170.78,156.72,170.78,156.68,170.78z M137.12,169.62c-0.11,0-0.22-0.01-0.32-0.03
		c-1.1-0.22-2.2-0.47-3.27-0.74c-0.87-0.22-1.39-1.1-1.17-1.97c0.22-0.87,1.1-1.39,1.97-1.17c1.02,0.26,2.07,0.5,3.12,0.71
		c0.88,0.18,1.44,1.03,1.27,1.91C138.55,169.09,137.88,169.62,137.12,169.62z M167.98,168.91c-0.73,0-1.39-0.49-1.57-1.23
		c-0.22-0.87,0.31-1.75,1.18-1.97c1.03-0.26,2.07-0.55,3.08-0.85c0.86-0.26,1.76,0.22,2.02,1.08s-0.22,1.76-1.08,2.02
		c-1.07,0.32-2.15,0.62-3.23,0.9C168.25,168.89,168.11,168.91,167.98,168.91z M126.12,166.42c-0.19,0-0.39-0.03-0.58-0.11
		c-1.04-0.4-2.08-0.83-3.09-1.27c-0.82-0.36-1.19-1.32-0.83-2.14c0.36-0.82,1.32-1.19,2.14-0.83c0.97,0.43,1.96,0.83,2.95,1.22
		c0.84,0.32,1.25,1.26,0.93,2.09C127.38,166.02,126.77,166.42,126.12,166.42z M178.83,165.2c-0.62,0-1.22-0.36-1.49-0.97
		c-0.36-0.82,0.01-1.78,0.83-2.14c0.97-0.43,1.95-0.88,2.9-1.36c0.81-0.4,1.78-0.07,2.17,0.73c0.4,0.8,0.07,1.77-0.73,2.17
		c-1,0.5-2.02,0.97-3.04,1.42C179.27,165.15,179.05,165.2,178.83,165.2z M205.72,144.28c-0.35,0-0.7-0.11-1-0.34
		c-0.71-0.55-0.83-1.57-0.28-2.28c0.65-0.84,1.3-1.7,1.91-2.57c0.52-0.73,1.53-0.9,2.26-0.39s0.9,1.53,0.39,2.26 M91.59,137.5
		c-0.55,0-1.08-0.28-1.39-0.78c-0.58-0.96-1.14-1.94-1.67-2.91c-0.43-0.79-0.14-1.77,0.65-2.2c0.79-0.43,1.77-0.14,2.2,0.65
		c0.51,0.93,1.04,1.87,1.59,2.78c0.46,0.77,0.22,1.76-0.55,2.23C92.16,137.42,91.87,137.5,91.59,137.5z M212,134.7
		c-0.26,0-0.53-0.06-0.77-0.2c-0.79-0.43-1.08-1.41-0.65-2.2c0.51-0.93,1-1.89,1.46-2.84c0.39-0.81,1.36-1.15,2.17-0.75
		c0.81,0.39,1.14,1.36,0.75,2.17c-0.48,1-1,2-1.53,2.98C213.13,134.39,212.58,134.7,212,134.7z M86.48,127.23
		c-0.65,0-1.25-0.39-1.51-1.02c-0.41-1.03-0.8-2.09-1.17-3.15c-0.29-0.85,0.16-1.77,1.01-2.06c0.85-0.29,1.77,0.16,2.06,1.01
		c0.35,1.01,0.72,2.02,1.11,3.01c0.33,0.83-0.08,1.77-0.91,2.11C86.89,127.2,86.68,127.23,86.48,127.23z M216.62,124.22
		c-0.17,0-0.35-0.03-0.53-0.09c-0.85-0.29-1.3-1.21-1-2.06c0.34-1,0.67-2.03,0.97-3.05c0.25-0.86,1.15-1.35,2.01-1.1
		c0.86,0.25,1.35,1.15,1.1,2.01c-0.31,1.07-0.66,2.15-1.02,3.2C217.92,123.8,217.29,124.22,216.62,124.22z M83.15,116.26
		c-0.75,0-1.42-0.52-1.58-1.28c-0.23-1.09-0.44-2.2-0.63-3.3c-0.15-0.88,0.45-1.72,1.34-1.86c0.89-0.15,1.72,0.45,1.86,1.34
		c0.17,1.05,0.37,2.1,0.6,3.14c0.19,0.88-0.37,1.74-1.24,1.93C83.38,116.25,83.26,116.26,83.15,116.26z M219.43,113.11
		c-0.09,0-0.18-0.01-0.27-0.02c-0.88-0.15-1.48-0.98-1.33-1.87c0.17-1.05,0.33-2.11,0.45-3.17c0.11-0.89,0.92-1.52,1.8-1.42
		c0.89,0.11,1.52,0.91,1.42,1.8c-0.13,1.1-0.29,2.22-0.47,3.32C220.9,112.55,220.21,113.11,219.43,113.11z M81.68,104.9
		c-0.86,0-1.58-0.68-1.62-1.55c-0.05-1.11-0.08-2.23-0.08-3.35v-0.15c0-0.9,0.73-1.62,1.62-1.62s1.62,0.73,1.62,1.62V100
		c0,1.07,0.03,2.14,0.07,3.2c0.04,0.89-0.65,1.65-1.54,1.7C81.73,104.9,81.7,104.9,81.68,104.9z M220.38,101.66
		c-0.9,0-1.62-0.69-1.62-1.58h1.62l-1.62-0.03c0-1.08-0.02-2.13-0.07-3.18c-0.04-0.89,0.65-1.65,1.55-1.69
		c0.9-0.04,1.65,0.65,1.69,1.55c0.05,1.09,0.07,2.19,0.07,3.27C222,100.89,221.27,101.66,220.38,101.66z M82.1,93.3
		c-0.06,0-0.13,0-0.2-0.01c-0.89-0.11-1.52-0.91-1.42-1.8c0.13-1.11,0.29-2.23,0.48-3.32c0.15-0.88,0.98-1.48,1.87-1.33
		c0.88,0.15,1.48,0.98,1.33,1.87c-0.17,1.04-0.33,2.11-0.46,3.17C83.61,92.69,82.91,93.3,82.1,93.3z M219.45,90.28
		c-0.78,0-1.47-0.56-1.6-1.36c-0.17-1.05-0.37-2.11-0.59-3.14c-0.19-0.88,0.37-1.74,1.25-1.92c0.88-0.19,1.74,0.37,1.92,1.25
		c0.23,1.08,0.44,2.19,0.62,3.29c0.15,0.88-0.45,1.72-1.34,1.86C219.63,90.27,219.54,90.28,219.45,90.28z M84.39,82.07
		c-0.15,0-0.3-0.02-0.46-0.07c-0.86-0.25-1.35-1.15-1.1-2.01c0.31-1.06,0.65-2.14,1.02-3.19c0.29-0.85,1.22-1.3,2.06-1
		c0.85,0.29,1.3,1.22,1,2.06c-0.35,1.01-0.68,2.03-0.97,3.05C85.74,81.62,85.1,82.07,84.39,82.07z M216.66,79.16
		c-0.67,0-1.3-0.42-1.53-1.1c-0.34-1.01-0.72-2.02-1.11-3.01c-0.33-0.83,0.08-1.77,0.91-2.1c0.83-0.33,1.78,0.08,2.1,0.91
		c0.41,1.04,0.8,2.1,1.16,3.15c0.29,0.85-0.16,1.77-1.01,2.06C217.01,79.13,216.84,79.16,216.66,79.16z M212.06,68.65
		c-0.58,0-1.13-0.31-1.43-0.85c-0.51-0.94-1.04-1.87-1.59-2.78c-0.46-0.77-0.22-1.76,0.55-2.23c0.76-0.46,1.76-0.22,2.23,0.55
		c0.57,0.95,1.14,1.93,1.67,2.92c0.43,0.79,0.13,1.77-0.66,2.2C212.59,68.59,212.33,68.65,212.06,68.65z M205.8,59.06
		c-0.48,0-0.96-0.21-1.28-0.63c-0.66-0.84-1.34-1.68-2.02-2.48c-0.58-0.68-0.5-1.7,0.18-2.29c0.68-0.58,1.7-0.5,2.29,0.18
		c0.72,0.84,1.44,1.72,2.12,2.6c0.55,0.71,0.42,1.73-0.28,2.27C206.49,58.94,206.14,59.06,205.8,59.06z M101.72,52.76
		c-0.41,0-0.83-0.16-1.14-0.47c-0.64-0.63-0.64-1.66-0.01-2.29c0.78-0.79,1.6-1.57,2.42-2.33c0.66-0.61,1.69-0.56,2.29,0.1
		c0.61,0.66,0.56,1.69-0.1,2.29c-0.78,0.72-1.56,1.47-2.31,2.22C102.55,52.6,102.14,52.76,101.72,52.76z M110.43,45.32
		c-0.5,0-1-0.23-1.32-0.67c-0.52-0.73-0.36-1.74,0.37-2.26c0.9-0.65,1.84-1.29,2.77-1.9c0.75-0.49,1.75-0.28,2.24,0.47
		c0.49,0.75,0.28,1.75-0.47,2.24c-0.89,0.58-1.78,1.19-2.64,1.81C111.09,45.22,110.76,45.32,110.43,45.32z M120.25,39.4
		c-0.6,0-1.17-0.33-1.45-0.9c-0.4-0.8-0.07-1.77,0.73-2.17c1-0.5,2.03-0.97,3.04-1.42c0.82-0.36,1.78,0.02,2.13,0.84
		c0.36,0.82-0.02,1.78-0.84,2.13c-0.97,0.43-1.95,0.88-2.91,1.35C120.73,39.34,120.49,39.4,120.25,39.4z M178.95,38.1
		c-0.22,0-0.44-0.04-0.65-0.14c-0.96-0.43-1.96-0.84-2.95-1.22c-0.84-0.32-1.25-1.26-0.93-2.1c0.32-0.84,1.26-1.25,2.1-0.93
		c1.04,0.4,2.08,0.83,3.09,1.28c0.82,0.36,1.19,1.32,0.83,2.14C180.17,37.74,179.58,38.1,178.95,38.1z M130.91,35.18
		c-0.7,0-1.34-0.45-1.55-1.15c-0.26-0.86,0.23-1.76,1.08-2.02c1.07-0.32,2.16-0.62,3.23-0.89c0.87-0.22,1.75,0.31,1.97,1.18
		c0.22,0.87-0.31,1.75-1.18,1.97c-1.03,0.26-2.07,0.54-3.08,0.85C131.22,35.16,131.06,35.18,130.91,35.18z M168.13,34.37
		c-0.13,0-0.27-0.02-0.4-0.05c-1.03-0.26-2.08-0.5-3.12-0.71c-0.88-0.18-1.44-1.04-1.26-1.91c0.18-0.88,1.03-1.45,1.91-1.26
		c1.09,0.22,2.19,0.47,3.27,0.75c0.87,0.22,1.39,1.1,1.17,1.97C169.52,33.88,168.86,34.37,168.13,34.37z M142.11,32.79
		c-0.8,0-1.5-0.6-1.61-1.41c-0.11-0.89,0.51-1.7,1.4-1.81c1.1-0.14,2.22-0.26,3.34-0.35c0.89-0.08,1.67,0.59,1.74,1.49
		c0.07,0.89-0.59,1.67-1.49,1.75c-1.06,0.09-2.13,0.2-3.18,0.33C142.25,32.79,142.18,32.79,142.11,32.79z M156.83,32.47
		c-0.05,0-0.09,0-0.14-0.01c-1.06-0.09-2.13-0.15-3.2-0.19c-0.89-0.03-1.59-0.78-1.56-1.68c0.03-0.89,0.78-1.59,1.68-1.56
		c1.11,0.04,2.24,0.11,3.35,0.2c0.89,0.07,1.56,0.86,1.48,1.75C158.38,31.83,157.67,32.47,156.83,32.47z"/>
	
		<linearGradient id="SVGID_00000109023476172491756540000008210033903868809639_" gradientUnits="userSpaceOnUse" x1="105.9391" y1="102.6654" x2="195.6873" y2="102.6654">
		<stop  offset="1.821245e-03" style="stop-color:#ECC452"/>
		<stop  offset="1" style="stop-color:#E22E03"/>
	</linearGradient>
	<path style="fill:url(#SVGID_00000109023476172491756540000008210033903868809639_);" d="M195.66,95.11V71.77
		c-22.89-2.29-44.4-20.14-44.4-20.14h-0.89c0,0-21.51,17.85-44.4,20.14v23.35c0,0-2.75,36.62,44.4,58.59h0.89
		C198.4,131.73,195.66,95.11,195.66,95.11z M176,84.62c-11.39-1.47-22-9.3-24.41-11.18V58.01c6.4,4.68,20.94,14.21,37.3,17.62
		L176,84.62z M125.26,84.66l-12.66-9c15.69-3.23,29.74-12.13,36.55-17.01v15.46C145.6,76.76,135.72,83.44,125.26,84.66z
		 M115.17,114.72c-4.83-10.75-4.35-19.18-4.35-19.24l0.01-0.18v-0.18V77.38l13.93,9.91v10.98c0,0-1.52,20.52,24.39,33.34v16.07
		C132.7,139.36,121.26,128.28,115.17,114.72z M186.46,114.72c-6.21,13.81-17.94,25.04-34.87,33.42v-16.08
		c26.83-12.79,25.27-33.78,25.27-33.78v-11.3l13.93-9.72v17.85l0,0.16l0.01,0.18C190.81,95.54,191.29,103.97,186.46,114.72z"/>
</g>
</svg>
