<?xml version="1.0" encoding="utf-8"?>
<!-- Generator: Adobe Illustrator 28.4.1, SVG Export Plug-In . SVG Version: 6.00 Build 0)  -->
<svg version="1.1" id="Layer_1" xmlns="http://www.w3.org/2000/svg" xmlns:xlink="http://www.w3.org/1999/xlink" x="0px" y="0px"
	 viewBox="0 0 300 200" style="enable-background:new 0 0 300 200;" xml:space="preserve">
<style type="text/css">
	.st0{fill:#E4410E;}
	.st1{fill:#FFBF4A;}
	.st2{fill:url(#SVGID_1_);}
	.st3{fill:url(#SVGID_00000010275786701712487130000007858311327495510714_);}
	.st4{fill:url(#SVGID_00000155148678895492930950000017397953185773228684_);}
	.st5{fill:url(#SVGID_00000093178552909857319320000009146061964795601032_);}
	.st6{fill:url(#SVGID_00000045593015498877336990000003357303630433671065_);}
	.st7{fill:url(#SVGID_00000070091310656632592760000008315781959143892656_);}
	.st8{fill:url(#SVGID_00000072994117136016232790000009548909786819551907_);}
	.st9{fill:url(#SVGID_00000038389793410319447780000008107681910079987887_);}
	.st10{fill:url(#SVGID_00000067229915505626763830000012545280597380478128_);}
	.st11{fill:#E22C03;}
	.st12{fill:url(#SVGID_00000038399261030168571640000009323677523920094099_);}
	.st13{fill:url(#SVGID_00000098911322978204610340000005671245478390889900_);}
	.st14{fill:url(#SVGID_00000151542167816732437410000014774586690278174127_);}
	.st15{fill:url(#SVGID_00000176038832383541972070000003764885900913277597_);}
	.st16{fill:url(#SVGID_00000049933343290901994770000011292477008052071612_);}
	.st17{fill:url(#SVGID_00000002385193204610676510000013577584830548210310_);}
	.st18{fill:url(#SVGID_00000072964518215616294890000004787604821989336985_);}
	.st19{fill:url(#SVGID_00000056406965245663265450000014361385400395453117_);}
	.st20{fill:url(#SVGID_00000023269729534078926490000017438725217427672739_);}
	.st21{fill:url(#SVGID_00000116222731361667735650000010102539446340785326_);}
	.st22{fill:url(#SVGID_00000059312098167206060220000013430649383807888805_);}
	.st23{fill:url(#SVGID_00000181805598470297043390000004821922764552947093_);}
	.st24{fill:url(#SVGID_00000087409235726581631530000004471491519859075750_);}
	.st25{fill:url(#SVGID_00000114756683411481937130000006443180857322350751_);}
	.st26{fill:url(#SVGID_00000153689984481854280580000004534721684495349387_);}
	.st27{fill:url(#SVGID_00000121974575856287201090000014349588030245513381_);}
	.st28{fill:url(#SVGID_00000056414380780154960640000001982972461874708876_);}
</style>
<g>
	<linearGradient id="SVGID_1_" gradientUnits="userSpaceOnUse" x1="144.5915" y1="80.6541" x2="178.8284" y2="80.6541">
		<stop  offset="0" style="stop-color:#A0C55C"/>
		<stop  offset="0.531" style="stop-color:#00A4B0"/>
		<stop  offset="1" style="stop-color:#0C8DD7"/>
	</linearGradient>
	<path class="st2" d="M159.84,92.93l-4.88,3.55c-2.49,1.81-5.84-0.62-4.89-3.55l1.86-5.74c0.43-1.31-0.04-2.74-1.15-3.55l-4.88-3.55
		c-2.49-1.81-1.21-5.75,1.87-5.75h6.03c1.38,0,2.6-0.89,3.02-2.19l1.86-5.74c0.95-2.93,5.09-2.93,6.04,0l1.86,5.74
		c0.43,1.31,1.64,2.19,3.02,2.19h6.03c3.08,0,4.36,3.94,1.87,5.75l-4.88,3.55c-1.11,0.81-1.58,2.24-1.15,3.55l1.86,5.74
		c0.95,2.93-2.4,5.36-4.89,3.55l-4.88-3.55C162.46,92.12,160.96,92.12,159.84,92.93z"/>
	
		<linearGradient id="SVGID_00000093153684515153198630000011574858112556588209_" gradientUnits="userSpaceOnUse" x1="86.5485" y1="100" x2="213.4515" y2="100">
		<stop  offset="1.821245e-03" style="stop-color:#ECC452"/>
		<stop  offset="1" style="stop-color:#E22E03"/>
	</linearGradient>
	<path style="fill:url(#SVGID_00000093153684515153198630000011574858112556588209_);" d="M191.56,21h-61.71
		c-12.09,0-21.89,9.8-21.89,21.89v35.59c-2.25,0.84-4.11,2.13-5.34,3.3c-2.07,1.67-16.07,13.78-16.07,36.28
		c0,21.94,17.98,37.63,21.46,40.46c0.73,11.43,10.23,20.48,21.84,20.48h61.71c12.09,0,21.89-9.8,21.89-21.89V42.89
		C213.45,30.8,203.65,21,191.56,21z M95,118.06c0-19.45,12.46-29.33,12.97-29.73l0.43-0.37c0.41-0.41,4.09-3.87,8.32-0.37
		c1.06,0.87,1.24,1.66,1.28,2.25c0.19,2.76-2.6,6.45-3.58,7.51l-0.27,0.29l-1.13,1.79c-2.32,3.67-3.76,7.89-4.19,12.22
		c-0.25,2.54-0.78,8.93-0.92,18.22c-0.04,0.04-0.07,0.08-0.11,0.13l0.1,16.74C102.4,140.76,95,130.42,95,118.06z M205,157.11
		c0,7.41-6.03,13.44-13.44,13.44h-61.71c-7.41,0-13.44-6.03-13.44-13.44v-29.75c0.19-7.54,0.62-12.71,0.83-14.89
		c0.3-3.02,1.31-5.97,2.92-8.53l0.72-1.14c1.33-1.51,5.96-7.24,5.55-13.49c-0.21-3.22-1.7-6.07-4.33-8.24
		c-1.91-1.58-3.83-2.54-5.69-3.05V42.89c0-7.41,6.03-13.44,13.44-13.44h61.71c7.41,0,13.44,6.03,13.44,13.44V157.11z"/>
	
		<linearGradient id="SVGID_00000126306146149161570480000008341487250494885798_" gradientUnits="userSpaceOnUse" x1="126.4163" y1="110.78" x2="195.4717" y2="110.78">
		<stop  offset="0" style="stop-color:#A0C55C"/>
		<stop  offset="0.531" style="stop-color:#00A4B0"/>
		<stop  offset="1" style="stop-color:#0C8DD7"/>
	</linearGradient>
	<path style="fill:url(#SVGID_00000126306146149161570480000008341487250494885798_);" d="M191.33,114.92h-60.78
		c-2.28,0-4.14-1.85-4.14-4.14v0c0-2.28,1.85-4.14,4.14-4.14h60.78c2.28,0,4.14,1.85,4.14,4.14v0
		C195.47,113.06,193.62,114.92,191.33,114.92z"/>
	
		<linearGradient id="SVGID_00000005977674287170448260000016115104610210380179_" gradientUnits="userSpaceOnUse" x1="126.4163" y1="127.6859" x2="195.4717" y2="127.6859">
		<stop  offset="0" style="stop-color:#A0C55C"/>
		<stop  offset="0.531" style="stop-color:#00A4B0"/>
		<stop  offset="1" style="stop-color:#0C8DD7"/>
	</linearGradient>
	<path style="fill:url(#SVGID_00000005977674287170448260000016115104610210380179_);" d="M191.33,131.82h-60.78
		c-2.28,0-4.14-1.85-4.14-4.14v0c0-2.28,1.85-4.14,4.14-4.14h60.78c2.28,0,4.14,1.85,4.14,4.14v0
		C195.47,129.97,193.62,131.82,191.33,131.82z"/>
	<path class="st0" d="M161.58,148.15c2.09,0,3.8,1.7,3.8,3.8c0,2.09-1.7,3.8-3.8,3.8s-3.8-1.7-3.8-3.8
		C157.78,149.86,159.49,148.15,161.58,148.15 M161.58,139.7c-6.77,0-12.25,5.49-12.25,12.25s5.48,12.25,12.25,12.25
		s12.25-5.49,12.25-12.25S168.35,139.7,161.58,139.7L161.58,139.7z"/>
	<circle class="st0" cx="178.61" cy="40.41" r="5.09"/>
	<circle class="st0" cx="191.33" cy="40.41" r="5.09"/>
	<g>
		
			<linearGradient id="SVGID_00000145755199078467748520000014265547820202807427_" gradientUnits="userSpaceOnUse" x1="174.3096" y1="85.6002" x2="179.083" y2="85.6002">
			<stop  offset="0" style="stop-color:#A0C55C"/>
			<stop  offset="0.531" style="stop-color:#00A4B0"/>
			<stop  offset="1" style="stop-color:#0C8DD7"/>
		</linearGradient>
		<circle style="fill:url(#SVGID_00000145755199078467748520000014265547820202807427_);" cx="176.7" cy="85.6" r="2.39"/>
		
			<linearGradient id="SVGID_00000105420436749951913770000016880080050506950314_" gradientUnits="userSpaceOnUse" x1="181.1117" y1="85.6002" x2="185.8851" y2="85.6002">
			<stop  offset="0" style="stop-color:#A0C55C"/>
			<stop  offset="0.531" style="stop-color:#00A4B0"/>
			<stop  offset="1" style="stop-color:#0C8DD7"/>
		</linearGradient>
		<circle style="fill:url(#SVGID_00000105420436749951913770000016880080050506950314_);" cx="183.5" cy="85.6" r="2.39"/>
		
			<linearGradient id="SVGID_00000055682361722367010650000009169019339502139305_" gradientUnits="userSpaceOnUse" x1="187.4514" y1="85.6002" x2="192.2248" y2="85.6002">
			<stop  offset="0" style="stop-color:#A0C55C"/>
			<stop  offset="0.531" style="stop-color:#00A4B0"/>
			<stop  offset="1" style="stop-color:#0C8DD7"/>
		</linearGradient>
		<circle style="fill:url(#SVGID_00000055682361722367010650000009169019339502139305_);" cx="189.84" cy="85.6" r="2.39"/>
	</g>
	<g>
		
			<linearGradient id="SVGID_00000155111815445678313260000005785492422903355521_" gradientUnits="userSpaceOnUse" x1="132.0449" y1="85.6002" x2="136.8183" y2="85.6002">
			<stop  offset="0" style="stop-color:#A0C55C"/>
			<stop  offset="0.531" style="stop-color:#00A4B0"/>
			<stop  offset="1" style="stop-color:#0C8DD7"/>
		</linearGradient>
		<circle style="fill:url(#SVGID_00000155111815445678313260000005785492422903355521_);" cx="134.43" cy="85.6" r="2.39"/>
		
			<linearGradient id="SVGID_00000132777091401776156540000015111098498000909503_" gradientUnits="userSpaceOnUse" x1="138.847" y1="85.6002" x2="143.6204" y2="85.6002">
			<stop  offset="0" style="stop-color:#A0C55C"/>
			<stop  offset="0.531" style="stop-color:#00A4B0"/>
			<stop  offset="1" style="stop-color:#0C8DD7"/>
		</linearGradient>
		<circle style="fill:url(#SVGID_00000132777091401776156540000015111098498000909503_);" cx="141.23" cy="85.6" r="2.39"/>
		
			<linearGradient id="SVGID_00000112601413507983380900000003762439622031733404_" gradientUnits="userSpaceOnUse" x1="145.1867" y1="85.6002" x2="149.9601" y2="85.6002">
			<stop  offset="0" style="stop-color:#A0C55C"/>
			<stop  offset="0.531" style="stop-color:#00A4B0"/>
			<stop  offset="1" style="stop-color:#0C8DD7"/>
		</linearGradient>
		<circle style="fill:url(#SVGID_00000112601413507983380900000003762439622031733404_);" cx="147.57" cy="85.6" r="2.39"/>
	</g>
	<g>
		<path class="st1" d="M123.87,61.09c-1.4,0-2.54-1.14-2.54-2.54V44.84c0-6.08,4.95-11.03,11.03-11.03h9.48
			c1.4,0,2.54,1.14,2.54,2.54s-1.14,2.54-2.54,2.54h-9.48c-3.28,0-5.96,2.67-5.96,5.96v13.71
			C126.41,59.95,125.27,61.09,123.87,61.09z"/>
	</g>
	<g>
		<path class="st1" d="M189.05,166.1h-9.48c-1.4,0-2.54-1.14-2.54-2.54c0-1.4,1.14-2.54,2.54-2.54h9.48c3.28,0,5.96-2.67,5.96-5.96
			v-13.71c0-1.4,1.14-2.54,2.54-2.54c1.4,0,2.54,1.14,2.54,2.54v13.71C200.08,161.15,195.13,166.1,189.05,166.1z"/>
	</g>
</g>
</svg>
