<?xml version="1.0" encoding="utf-8"?>
<!-- Generator: Adobe Illustrator 28.4.1, SVG Export Plug-In . SVG Version: 6.00 Build 0)  -->
<svg version="1.1" xmlns="http://www.w3.org/2000/svg" xmlns:xlink="http://www.w3.org/1999/xlink" x="0px" y="0px"
	 viewBox="0 0 1000 580" style="enable-background:new 0 0 1000 580;" xml:space="preserve">
<style type="text/css">
	.st0{fill:url(#SVGID_1_);}
	.st1{fill:url(#SVGID_00000065044887066492934020000003752326022342301117_);}
	.st2{fill:url(#SVGID_00000169556074024454577560000003290487611105447339_);}
	.st3{fill:url(#SVGID_00000025439500516496235060000016224120869937997987_);}
	.st4{fill:url(#SVGID_00000159430218793650945000000000777586439980732087_);}
	.st5{fill:url(#SVGID_00000175304730807900448770000000875849713495535539_);}
	.st6{fill:url(#SVGID_00000137812909642209826780000001136324386740549540_);}
	.st7{fill:url(#SVGID_00000148633156843432824910000000021321632707410306_);}
	.st8{fill:url(#SVGID_00000011019958653906297890000012490022738627106197_);}
	.st9{fill:url(#SVGID_00000034799637701447131390000004179809685102600608_);}
	.st10{fill:url(#SVGID_00000047037462288507401940000010132188489847757738_);}
	.st11{fill:url(#SVGID_00000012469641401627092530000015498886901631629992_);}
	.st12{fill:url(#SVGID_00000174565154552715345130000016422456896479511964_);}
	.st13{fill:url(#SVGID_00000097476926276104713690000002980612919342404000_);}
	.st14{fill:url(#SVGID_00000085227270467465853070000005098163822318827682_);}
	.st15{fill:#F3EBD9;}
	.st16{fill:url(#SVGID_00000100357355677199904950000007465062039574552197_);}
	.st17{fill:url(#SVGID_00000008111174936582682400000002527202157017629602_);}
	.st18{fill:url(#SVGID_00000101098893103979556060000002270023437231804303_);}
	.st19{fill:url(#SVGID_00000058549173402946816860000001193600381360535942_);}
	.st20{fill:url(#SVGID_00000153698217414310892200000002722104498411899069_);}
	.st21{fill:url(#SVGID_00000003813231565285497140000016829595367701599898_);}
	.st22{fill:url(#SVGID_00000155852664419577152470000017595075157617515710_);}
	.st23{fill:url(#SVGID_00000080200856245828624220000005476354473646911407_);}
	.st24{fill:url(#SVGID_00000070087392911743755500000006106525932379956869_);}
	.st25{fill:url(#SVGID_00000099659364104044869440000008431879914599004048_);}
	.st26{fill:url(#SVGID_00000145055575209476892140000016344777828493504937_);}
	.st27{fill:url(#SVGID_00000075152121801202773510000017059935060898124422_);}
	.st28{fill:url(#SVGID_00000018919752150939468890000011901748146479793569_);}
	.st29{fill:url(#SVGID_00000075163947162456468950000000536776587685638021_);}
</style>
<g id="_x31_2">
</g>
<g id="_x31_1">
</g>
<g id="_x31_0">
</g>
<g id="_x39_">
</g>
<g id="_x38_">
</g>
<g id="_x37__00000014600371437760975490000011603007339324135047_">
</g>
<g id="_x36_">
</g>
<g id="_x35_">
</g>
<g id="_x34_">
</g>
<g id="_x33_">
</g>
<g id="_x32_">
</g>
<g id="_x31_">
	<linearGradient id="SVGID_1_" gradientUnits="userSpaceOnUse" x1="438.882" y1="587.1565" x2="550.2954" y2="206.0602">
		<stop  offset="1.821245e-03" style="stop-color:#ECC452"/>
		<stop  offset="1" style="stop-color:#E22E03"/>
	</linearGradient>
	<path class="st0" d="M610.33,255.87c-3.2-2.37-15.36-4.75-21.04-5.75c-2.01-0.55-4.1-0.85-6.26-0.85
		c-11.8,0-21.88,8.73-25.97,21.06c0,0,0,0,0,0c-2.55-0.69-3.01-2.55-4.86-2.55s-1.85,2.08-1.85,2.08l-0.23,3.7l-1.9,0.25l-47.4-7.88
		c-0.59-2.84-2.07-5.79-2.07-5.79s-1.62-1.39-4.86-3.24c-3.24-1.85-5.09,2.08-5.09,2.08l-1.74,0.69l0.08,3.98l-0.25-0.04
		c0.11-1.29,0.17-2.6,0.17-3.94c0-14.29-4.52-23.44-13.31-30.08c-10.41-7.87-32.86-7.4-32.86-7.4c-15.34,0-27.77,16.01-27.77,35.75
		c0,19.74,12.43,35.75,27.77,35.75c0.47,0,0.93-0.02,1.39-0.05l18.74,1.09c11.88-0.75,21.57-10.7,24.84-24.61l3.9,0.62l1.34,8.6
		c0,0,5.78,33.78,7.17,43.04c1.39,9.26-2.31,20.36-2.08,29.15c0.23,8.79,6.71,15.27,6.71,15.27s-0.69,9.49,1.39,14.81
		c2.08,5.32,2.08,12.73,2.08,15.04c0,2.31,0.93,2.78,0.93,2.78l-1.62,0.93c-0.46,3.24-5.55,10.64-5.55,10.64s0.46,1.39,0,2.08
		c-0.46,0.69-3.93,3.7-6.02,9.49c-7.87,20.82,7.87,33.32,7.87,33.32c-2.31,8.33-1.16,25.45-0.46,28.46
		c0.69,3.01-1.16,4.17-1.16,4.17c-9.02,1.62-11.34,4.86-19.67,11.57c-8.33,6.71-16.89,8.79-16.89,8.79
		c-2.55-1.16-3.93,4.16-7.87,9.02c-3.93,4.86,0.46,7.64,0.46,7.64s5.78,3.7,9.26,6.71c3.47,3.01,4.86,3.01,11.57,2.78
		c6.71-0.23,11.11-0.46,9.72-3.24c-1.39-2.78-4.86-3.7-4.86-3.7l-1.85-3.01c0,0,0.23-3.7-0.46-3.47s-3.01-1.39-3.01-1.39
		s1.62-1.16,2.31-1.62c0.69-0.46,0-3.01,0-3.01s12.96-2.31,29.15-6.94c16.2-4.63,17.35-13.42,17.35-13.42l11.57-24.3
		c0,0-0.46,3.93,0.46,8.56c0.93,4.63,8.33,31.24,8.79,32.39c0.46,1.16-0.93,5.32-0.93,5.32s-0.93,3.24-1.16,7.64
		c-0.05,0.97,0.04,1.86,0.23,2.64c0.58,2.53,2.88,4.29,5.47,4.27c7.06-0.07,23.62-0.24,25.08-0.2c7.87,0.23,3.47-5.55,0.93-5.78
		c-2.55-0.23-7.17-4.16-7.17-4.16l-5.78-5.09l-0.46-4.4l-3.93-1.62c-3.47-7.87,0-32.16,2.08-50.91c2.08-18.74-6.02-21.06-6.02-21.06
		l-13.65-7.17l7.17-10.88v-1.85c19.67-38.64,4.63-64.33,4.63-64.33s3.7-13.42,4.16-22.21c0.46-8.79,0-14.11,3.93-19.21
		c1.06-1.37,1.86-3.77,2.48-6.53c5.04,5.9,11.94,9.54,19.56,9.54c0,0,11.84,0.61,16.59-0.56c12.77-3.15,22.56-16.28,22.56-32.41
		C622.18,271.73,617.81,261.42,610.33,255.87z M554.28,288.61c-0.69,4.86-2.78,8.56-5.09,10.41c-1.67,1.34-3.95,5.45-5.08,7.63
		c0.84-2.28,0.11-4.24-0.47-3.47c-0.69,0.93-4.86,2.55-9.49,1.62c-4.63-0.93-7.8-0.82-13.88,3.24c-6.25,4.17-4.63,12.73-4.63,12.73
		c-0.69-4.4-4.16-12.26-4.86-15.04c-0.69-2.78-2.78-12.73-5.32-17.82c-1.8-3.6-3.25-10.44-3.95-15.28l47.96,7.67
		c2.32,1.4,5.62,2.3,5.62,2.3S554.97,283.75,554.28,288.61z"/>
</g>
</svg>
