<?xml version="1.0" encoding="utf-8"?>
<!-- Generator: Adobe Illustrator 28.4.1, SVG Export Plug-In . SVG Version: 6.00 Build 0)  -->
<svg version="1.1" xmlns="http://www.w3.org/2000/svg" xmlns:xlink="http://www.w3.org/1999/xlink" x="0px" y="0px"
	 viewBox="0 0 1000 580" style="enable-background:new 0 0 1000 580;" xml:space="preserve">
<style type="text/css">
	.st0{fill:url(#SVGID_1_);}
	.st1{fill:url(#SVGID_00000136380865108317386510000016144547396200933516_);}
	.st2{fill:url(#SVGID_00000101820949870751009780000001495070694205075846_);}
	.st3{fill:url(#SVGID_00000031184048367909389830000017830817293031286935_);}
	.st4{fill:url(#SVGID_00000119805231798974942500000012600337384333700001_);}
	.st5{fill:url(#SVGID_00000054264979879787437510000015374575699695533230_);}
	.st6{fill:url(#SVGID_00000086662140354888418630000004476337394525385910_);}
	.st7{fill:url(#SVGID_00000100365128565325662660000003490124995923829684_);}
	.st8{fill:url(#SVGID_00000172403234160570457090000011501518407664961677_);}
	.st9{fill:url(#SVGID_00000104679239885676922030000018088263971037124503_);}
	.st10{fill:url(#SVGID_00000143599093366036865980000010284419312731164603_);}
	.st11{fill:url(#SVGID_00000058587937195537957310000002165467075575345536_);}
	.st12{fill:url(#SVGID_00000047741478772261227770000015446282356403158917_);}
	.st13{fill:url(#SVGID_00000067213158831091103940000015717789578316480136_);}
	.st14{fill:url(#SVGID_00000001645653692096864110000016248547911178613394_);}
	.st15{fill:#F3EBD9;}
	.st16{fill:url(#SVGID_00000093170722621712638310000009468483984161871253_);}
	.st17{fill:url(#SVGID_00000018932773279716756390000016903502693651540890_);}
	.st18{fill:url(#SVGID_00000109731979878767442190000010476070864282670469_);}
	.st19{fill:url(#SVGID_00000011723247379664604230000006972278391304220803_);}
	.st20{fill:url(#SVGID_00000073000752364021948010000004395486725499327409_);}
	.st21{fill:url(#SVGID_00000160877417467479977020000008018003036782574730_);}
	.st22{fill:url(#SVGID_00000079444673051467549470000004926418878177724825_);}
	.st23{fill:url(#SVGID_00000080911824206878414370000005434006817840572322_);}
	.st24{fill:url(#SVGID_00000091730922191400101160000003292986119085686152_);}
	.st25{fill:url(#SVGID_00000144318816098329817920000001667947700236176551_);}
	.st26{fill:url(#SVGID_00000112632333862999594960000004560386941225341593_);}
	.st27{fill:url(#SVGID_00000100355505925454012360000013664331401274010016_);}
	.st28{fill:url(#SVGID_00000059287364772746558650000014784674512938402969_);}
	.st29{fill:url(#SVGID_00000111904853519036787910000012084380102206458272_);}
</style>
<g id="_x31_2">
</g>
<g id="_x31_1">
</g>
<g id="_x31_0">
</g>
<g id="_x39_">
</g>
<g id="_x38_">
</g>
<g id="_x37__00000014600371437760975490000011603007339324135047_">
</g>
<g id="_x36_">
</g>
<g id="_x35_">
</g>
<g id="_x34_">
</g>
<g id="_x33_">
	<linearGradient id="SVGID_1_" gradientUnits="userSpaceOnUse" x1="465.8877" y1="324.2421" x2="717.1753" y2="324.2421">
		<stop  offset="0.5299" style="stop-color:#B0B8AC;stop-opacity:0"/>
		<stop  offset="1" style="stop-color:#B4BAAF"/>
	</linearGradient>
	<rect x="465.89" y="316.61" class="st0" width="251.29" height="15.27"/>
	
		<linearGradient id="SVGID_00000182514263817872265320000009662599543463000978_" gradientUnits="userSpaceOnUse" x1="465.8877" y1="342.6809" x2="717.1753" y2="342.6809">
		<stop  offset="0.5299" style="stop-color:#B0B8AC;stop-opacity:0"/>
		<stop  offset="1" style="stop-color:#B4BAAF"/>
	</linearGradient>
	
		<rect x="465.89" y="335.05" style="fill:url(#SVGID_00000182514263817872265320000009662599543463000978_);" width="251.29" height="15.27"/>
	
		<linearGradient id="SVGID_00000105391554943833527340000015796488679375424176_" gradientUnits="userSpaceOnUse" x1="465.8877" y1="361.7343" x2="717.1753" y2="361.7343">
		<stop  offset="0.5299" style="stop-color:#B0B8AC;stop-opacity:0"/>
		<stop  offset="1" style="stop-color:#B4BAAF"/>
	</linearGradient>
	
		<rect x="465.89" y="354.1" style="fill:url(#SVGID_00000105391554943833527340000015796488679375424176_);" width="251.29" height="15.27"/>
	
		<linearGradient id="SVGID_00000062162445828461627120000011442134709361048751_" gradientUnits="userSpaceOnUse" x1="465.8877" y1="398.0659" x2="657.1314" y2="398.0659">
		<stop  offset="0.5299" style="stop-color:#B0B8AC;stop-opacity:0"/>
		<stop  offset="1" style="stop-color:#B4BAAF"/>
	</linearGradient>
	
		<rect x="465.89" y="372.54" style="fill:url(#SVGID_00000062162445828461627120000011442134709361048751_);" width="191.24" height="51.06"/>
	
		<linearGradient id="SVGID_00000074408894290586215100000006007554282495239603_" gradientUnits="userSpaceOnUse" x1="668.5107" y1="494.8233" x2="728.2089" y2="344.8837">
		<stop  offset="1.821120e-03" style="stop-color:#00A4B0"/>
		<stop  offset="1" style="stop-color:#0C8DD7"/>
	</linearGradient>
	<path style="fill:url(#SVGID_00000074408894290586215100000006007554282495239603_);" d="M729.59,428.5
		c1.83-0.26,3.55-0.83,3.55-0.83l7.98-2.08l4.51,0.35l2.43-2.78l1.04-3.82l-0.35-2.43l-0.69-3.47c-1.39-9.37-17.35-11.8-17.35-11.8
		c-4.16-2.08-4.51-10.41-5.55-13.54c-1.04-3.12-1.74-18.4-1.74-22.21s-2.08-6.94-2.08-6.94l2.43-3.12l2.78-2.43
		c0,0,4.16-4.86,3.82-6.94l1.39-2.43l3.12-0.35c0,0,6.94,1.04,1.74-13.19c-5.21-14.23-16.66-15.62-27.07-13.54
		c-10.41,2.08-9.72,12.49-9.72,12.49s1.04,1.74,0.35,4.16c-0.69,2.43-6.25,4.17-6.25,4.17c-8.45-1.04-14.13-1.15-29.04,3.82
		c-16.66,5.55-23.6,12.03-34.01,24.3c-10.41,12.26-3.24,30.31,1.16,40.72c4.4,10.41,10.64,20.36,11.11,22.44
		c0.42,1.88-1.25,5.28-5.68,9.68c-4.46-3.95-9.58-6.21-15.03-6.21c-17.25,0-31.24,22.53-31.24,50.33s13.99,50.33,31.24,50.33
		c12.84,0,23.87-12.49,28.67-30.34c2.35,1.57,4.74,3.04,6.38,3.73c4.4,1.85,8.33,2.31,12.96-2.08c4.63-4.4,4.63-15.5,4.63-15.5
		l3.7-1.62c0,0,1.25-0.88,3.07-2.1c1.1,29.24,17.67,52.45,37.95,52.45c20.99,0,38.01-24.87,38.01-55.54
		C757.78,456.46,745.82,434.83,729.59,428.5z M716.02,408.93l2.55-0.23l17.59,14.35c0,0-2.78,1.16-5.78,1.62
		c-1.95,0.3-3.6,1.77-3.9,2.83c-2.17-0.56-4.41-0.86-6.69-0.86c-3.01,0-5.94,0.51-8.75,1.48c-0.98-2.47-1.72-3.91-1.72-3.91
		l-0.69-5.09l0.93-2.55v-1.85l-3.47-2.08l-0.93-3.47l7.64-0.23H716.02z M686.86,375.61c1.39-0.69,6.94-4.16,8.56-3.01
		s8.79,2.55,11.34,3.24s1.85,2.31,1.85,2.31s0.46,3.01,0.93,6.25s2.08,8.56,2.31,9.95c0.23,1.39,0.23,6.48,0.23,6.48
		c-2.31,0-3.24,2.08-4.4,1.62c-1.16-0.46-5.78,0.23-7.4,0.69c-1.62,0.46-2.08-1.16-2.08-1.16c-3.01-10.64-14.11-20.36-14.11-20.36
		l-1.62-3.93C682.47,377.69,685.48,376.3,686.86,375.61z M699.68,435.03c-1.72,1.57-3.35,3.34-4.88,5.28l4.55-8.7
		C699.36,431.61,699.44,432.91,699.68,435.03z M639.6,462.21c1.31-1.4,3.1-3.18,4.56-4.62c3.14,7.17,4.99,15.99,4.99,25.54
		c0,1.39-0.04,2.77-0.12,4.13c-0.56,0.05-0.92-0.23-0.92-0.23l-13.02-3.12c0,0-1.56-1.91-2.08-3.47c-0.52-1.56,0.87-5.9,0.87-6.59
		C633.88,473.14,637,464.98,639.6,462.21z M647.91,496.38c-0.15,0.76-0.31,1.51-0.48,2.25c-1.14-0.89-1.93-1.54-1.93-1.54
		L647.91,496.38z M653.3,475.17c-0.74-7.76-2.58-14.93-5.26-21.1l0.24-0.19C648.28,453.88,653,465.82,653.3,475.17z M622.94,526.65
		c-14.48,0-26.21-19.49-26.21-43.53c0-24.04,11.74-43.53,26.21-43.53c3.76,0,7.33,1.32,10.57,3.69
		c-4.61,7.35-8.69,21.72-10.27,24.87c-1.85,3.7-5.32,7.4-5.32,7.4s-3.47,2.78-4.86,4.17c-1.39,1.39,0.46,5.09,0.46,5.09l2.31,3.24
		c0,0,0.46,1.16,0.46,3.7c0,2.55,3.7,5.55,3.7,5.55c4.86,6.25,12.73,5.09,15.73,4.86c3.01-0.23,3.01-2.08,3.01-2.08l4.63-2.78
		c0,0,1.57,1.19,3.73,2.74C643.11,515.69,633.79,526.65,622.94,526.65z M651.41,501.61c0.29-1.16,0.56-2.35,0.8-3.55
		c1.17,3.02,3.02,5.8,3.02,5.8C654.47,503.67,652.99,502.73,651.41,501.61z M676.91,439.7c-0.23,7.4-3.24,19.44-3.24,19.44
		s-3.7,5.78-5.55,8.56c-1.85,2.78-8.33,6.02-8.33,6.02l-3.24,0.46l-0.93-2.08l-0.23-26.84l4.86-6.48c0,0,5.09-4.16,5.32-10.64
		c0.23-6.48-5.09-22.68-5.09-22.68c3.7,3.01,19.67,9.26,19.67,9.26l2.08,1.16c0,0,2.31,0.69,0.93,3.01
		C681.77,421.19,677.14,432.3,676.91,439.7z M685.56,457.98c-1.1,3.32-1.98,6.83-2.62,10.48c-1.36-0.55-1.86-1.91-1.86-1.91
		L685.56,457.98z M720.3,532.96c-17.67,0-32-22.51-32-50.28c0-0.53,0.02-1.05,0.03-1.58c1.45-0.88,2.87-1.69,4.1-2.3
		c5.09-2.55,5.32-4.4,2.78-8.33c-1.35-2.09-3.43-2.61-5.49-2.57c1.98-10.15,5.96-18.93,11.21-25.22c0.34,1.64,0.74,3.37,1.22,5.11
		c2.31,8.33,5.32,25.45,5.32,29.39c0,3.93,4.16,7.4,7.17,8.1s2.08-2.55,3.93-2.55c1.85,0,1.16,2.55,4.17,2.55
		c3.01,0,3.93-2.31,3.93-2.31s-10.88-37.72-12.73-45.58c-0.3-1.29-0.63-2.5-0.97-3.64c2.36-0.87,4.81-1.34,7.33-1.34
		c17.67,0,32,22.51,32,50.28S737.97,532.96,720.3,532.96z"/>
</g>
<g id="_x32_">
</g>
<g id="_x31_">
</g>
</svg>
