<?xml version="1.0" encoding="utf-8"?>
<!-- Generator: Adobe Illustrator 28.4.1, SVG Export Plug-In . SVG Version: 6.00 Build 0)  -->
<svg version="1.1" xmlns="http://www.w3.org/2000/svg" xmlns:xlink="http://www.w3.org/1999/xlink" x="0px" y="0px"
	 viewBox="0 0 1000 580" style="enable-background:new 0 0 1000 580;" xml:space="preserve">
<style type="text/css">
	.st0{fill:url(#SVGID_1_);}
	.st1{fill:url(#SVGID_00000135669355025046811040000018251096845966224566_);}
	.st2{fill:url(#SVGID_00000153683822163866299420000003322667614944360331_);}
	.st3{fill:url(#SVGID_00000030479928883349622590000012121852147387042441_);}
	.st4{fill:url(#SVGID_00000101810834023123873130000015691982136357275271_);}
	.st5{fill:url(#SVGID_00000094578427664223468900000005836299012852635031_);}
	.st6{fill:url(#SVGID_00000165956999327150372090000010507456071613824664_);}
	.st7{fill:url(#SVGID_00000168112379959839995750000012413161098001323948_);}
	.st8{fill:url(#SVGID_00000163790591825919127270000016605337416149636491_);}
	.st9{fill:url(#SVGID_00000182514907542659783850000012746106860574179493_);}
	.st10{fill:url(#SVGID_00000066481234414877488280000010135519438500774323_);}
	.st11{fill:url(#SVGID_00000064316185304952519380000013804235857232678292_);}
	.st12{fill:url(#SVGID_00000119089657550928185830000007390806671817156502_);}
	.st13{fill:url(#SVGID_00000019676501305109193920000009912670414325933984_);}
	.st14{fill:url(#SVGID_00000170998459351546390270000013959254407460397229_);}
	.st15{fill:#F3EBD9;}
	.st16{fill:url(#SVGID_00000179639251989602221460000010965096040929104027_);}
	.st17{fill:url(#SVGID_00000099636005582476093860000012982123992728940958_);}
	.st18{fill:url(#SVGID_00000021823541976847591760000009785897634386207663_);}
	.st19{fill:url(#SVGID_00000039125260709797898370000018320313654896048287_);}
	.st20{fill:url(#SVGID_00000121269018783167933170000008387995041587924619_);}
	.st21{fill:url(#SVGID_00000053518728881434581060000000386094849206804386_);}
	.st22{fill:url(#SVGID_00000047043009544720109830000014482269309475098514_);}
	.st23{fill:url(#SVGID_00000016053135432712823020000017711448081887605659_);}
	.st24{fill:url(#SVGID_00000007400088259572161280000003036271278302587015_);}
	.st25{fill:url(#SVGID_00000054981682763950980000000000106862313453913733_);}
	.st26{fill:url(#SVGID_00000133521197422079924470000010522410871155756172_);}
	.st27{fill:url(#SVGID_00000160897794273367054770000017098861550463225515_);}
	.st28{fill:url(#SVGID_00000061435190219326588200000002218017754678598070_);}
	.st29{fill:url(#SVGID_00000162340486797239158370000008175747382432724912_);}
</style>
<g id="_x31_2">
</g>
<g id="_x31_1">
</g>
<g id="_x31_0">
</g>
<g id="_x39_">
</g>
<g id="_x38_">
</g>
<g id="_x37__00000014600371437760975490000011603007339324135047_">
</g>
<g id="_x36_">
</g>
<g id="_x35_">
</g>
<g id="_x34_">
</g>
<g id="_x33_">
</g>
<g id="_x32_">
	<linearGradient id="SVGID_1_" gradientUnits="userSpaceOnUse" x1="427.8247" y1="329.2523" x2="305.6517" y2="448.6486">
		<stop  offset="1.821120e-03" style="stop-color:#BACE49"/>
		<stop  offset="1" style="stop-color:#69B186"/>
	</linearGradient>
	<path class="st0" d="M312.71,335c0,0-5.78,1.04-8.33-1.97c-1.8-2.13-4.65-5.77-6.16-7.71c-0.69-0.89-1.6-1.58-2.64-2.02
		c-1.82-0.77-4.73-1.92-6.25-2.07c-2.31-0.23-6.48,0-6.48,0s-1.27,0.23-0.93,1.39c0.35,1.16,0.35,1.16,0.35,1.16
		s-1.85,0.12-1.85,0.93c0,0.81,1.62,1.04,1.62,1.04l2.43,1.16c0,0-0.46,0.46,1.39,1.16c1.85,0.69,3.36,1.16,3.36,1.16l2.08,1.62
		c0,0,1.62,2.2,2.31,3.7s4.16,3.93,4.86,4.28c0.69,0.35,0.58,2.08,0.58,2.08s4.51,1.5,6.02,3.47c1.5,1.97,2.78,1.5,3.24,1.97
		c0.46,0.46,4.86,3.12,6.02,5.21c1.16,2.08,1.16,2.08,1.16,2.08s-0.93,4.86-2.2,8.68s-1.74,9.26-0.35,12.49
		c1.39,3.24,1.16,10.88,1.04,11.69c-0.12,0.81-0.12,10.3,3.24,14.92c3.36,4.63,5.55,19.44,5.21,22.1c-0.35,2.66,0.12,8.79,0.12,8.79
		h2.66c0,0-4.28,7.75-5.55,9.26c-1.27,1.5-10.3,12.84-12.03,16.54s-2.78,7.4-2.78,7.4s-2.55,6.48-2.55,8.45s0,5.44,1.16,7.87
		c1.16,2.43,1.62,20.71,1.62,20.71l1.04,11.45l-1.5-0.35c0,0-1.39,0.81-1.74,1.85c-0.35,1.04,2.78,0.12-1.5,1.04
		c-4.28,0.93-4.74,2.89-9.37,2.78c-4.63-0.12-9.69,5.23-7.29,7.64c2.78,2.78,0,2.89,8.45,3.59c8.45,0.69,10.99-1.62,15.62-1.27
		c4.63,0.35,16.08,0.58,16.08-4.86s-0.58-7.29-0.58-7.29s-1.04-2.31,0.69-6.59s1.04-16.78-1.16-22.68c-2.2-5.9-2.55-7.4-1.39-8.45
		c1.16-1.04,4.05-4.86,7.87-5.09c0.81,0.46,4.97,1.39,7.52-0.93c2.55-2.31,3.24-4.05,4.28-5.55c1.04-1.5,13.54-15.73,13.54-15.73
		s1.39-2.08,3.82-1.27c2.43,0.81,18.97,7.52,22.44,7.87c3.47,0.35,4.16,1.16,4.51,1.27s2.31,1.5,5.78,3.59s7.17,3.7,7.52,3.82
		c0.35,0.12,3.59,2.55,3.59,2.55s4.86,1.62,7.06,0.46c2.2-1.16,9.6-3.82,12.26-7.52c2.66-3.7,4.86-4.86,6.59-6.59
		s7.87-8.56,11.57-11.11s4.05-3.36,5.44-4.05c1.39-0.69,5.9-1.74,5.9-1.74s2.31,0.12,2.89-0.35c0.58-0.46,7.64-2.78,9.95-2.78
		c2.31,0,5.9,0.12,7.06-0.69c1.16-0.81,3.36-2.08,3.47-3.7s-1.85-6.71-8.91-7.29c-7.06-0.58-11.22,0.58-14.69-0.46
		c-3.47-1.04-8.56-3.24-11.45-2.66s-6.02,4.97-5.21,6.48c0.81,1.5-0.23,4.05-0.23,4.05s-9.14,5.09-10.99,5.44
		s-11.22,3.24-13.07,8.33c0,0-2.78-0.12-3.01-0.46s-2.55-3.01-2.55-3.01l-18.51-17.12c0,0-10.76-12.61-12.61-16.08
		s-3.12-7.06-4.28-7.75c-1.16-0.69-2.43-1.16-3.01-1.27c-0.58-0.12-3.36-1.16-3.47-1.5c-0.12-0.35-0.69-5.9-1.85-6.94
		c-1.16-1.04-0.81-2.2-0.81-3.01c0-0.81-0.35-2.78-0.46-3.12s-1.97-1.27,0.46-2.55c2.43-1.27,3.7,0,3.7,0s0.35,4.4,1.85,5.21
		c1.5,0.81,3.12,2.43,3.59,2.78s2.55,2.89,2.55,2.89s0.93,2.55,3.24,3.82c2.31,1.27,3.47,4.28,3.82,4.74
		c0.35,0.46,2.78,5.55,4.28,7.17s2.78,4.17,3.01,4.51c0.23,0.35,1.04,2.08,1.74,2.89c0.69,0.81,1.74,1.97,2.08,2.43
		c0.35,0.46,1.04,2.08,1.27,2.66c0.23,0.58,1.62,1.5,1.62,1.85s-0.12,2.89-0.12,2.89l-0.64,4.22l5.73,5.21c0,0,3.59-1.56,4.05-0.17
		s-0.23,3.07-0.23,3.07s1.39,2.55,2.78,2.66c1.39,0.12,2.89-0.87,3.47-1.79c0.58-0.93,1.04-2.08,1.04-2.66
		c0-0.58,0.12-0.69-0.12-1.74c-0.23-1.04-0.46-1.74-0.46-2.55c0-0.81,0.23-0.81,0-1.62c-0.23-0.81-0.81-3.47-0.81-3.47
		s-0.69-1.74-1.62-2.31c-0.93-0.58-4.05-2.89-4.05-2.89l-0.46-2.89c0,0,0.35,0.12-0.46-1.04c-0.81-1.16-1.5-3.59-1.74-4.4
		c-0.23-0.81-3.82-7.64-4.05-8.33c-0.23-0.69,0.35,0.93-2.31-5.21c-2.66-6.13-5.9-10.99-6.94-12.49c-1.04-1.5-1.16-2.2-1.62-2.89
		c-0.46-0.69-1.27-1.85-1.5-2.2c-0.23-0.35-1.16-1.74-2.43-4.51c-1.27-2.78-1.85-4.16-3.82-6.02s-9.6-13.3-10.64-17.93
		c-1.04-4.63-2.43-9.14-7.06-11.57c-4.63-2.43-4.28-2.2-5.78-2.78c-1.5-0.58-1.97,0.58-4.16-1.97c-2.2-2.55-2.78-3.24-3.01-3.7
		s-0.69-2.55-0.81-2.89c-0.12-0.35-1.62-2.66-3.47-2.78s-1.62-0.23-2.89-0.35c-1.27-0.12-1.16-3.24-0.58-3.47s1.5-6.02-0.81-5.78
		c-2.31,0.23-2.08,0.93-2.08,0.93s0.12-7.75-1.39-11.69c-1.5-3.93-7.17-7.52-16.43-5.67c-9.26,1.85-10.41,4.4-14.69,4.4
		c-4.28,0,2.55,3.12,3.01,6.71s0.69,7.17,3.24,9.95C309.7,324.13,310.86,331.18,312.71,335z"/>
	
		<linearGradient id="SVGID_00000152944918716871895220000016669498752950160008_" gradientUnits="userSpaceOnUse" x1="315.254" y1="477.3054" x2="261.1092" y2="513.402">
		<stop  offset="1.821120e-03" style="stop-color:#BACE49"/>
		<stop  offset="1" style="stop-color:#69B186"/>
	</linearGradient>
	<circle style="fill:url(#SVGID_00000152944918716871895220000016669498752950160008_);" cx="259.03" cy="514.79" r="19.09"/>
</g>
<g id="_x31_">
</g>
</svg>
