<?xml version="1.0" encoding="utf-8"?>
<!-- Generator: Adobe Illustrator 28.4.1, SVG Export Plug-In . SVG Version: 6.00 Build 0)  -->
<svg version="1.1" xmlns="http://www.w3.org/2000/svg" xmlns:xlink="http://www.w3.org/1999/xlink" x="0px" y="0px"
	 viewBox="0 0 1000 580" style="enable-background:new 0 0 1000 580;" xml:space="preserve">
<style type="text/css">
	.st0{fill:url(#SVGID_1_);}
	.st1{fill:url(#SVGID_00000034056747873601382700000014436767550568007347_);}
	.st2{fill:url(#SVGID_00000145739844487695307990000015438325267881955216_);}
	.st3{fill:url(#SVGID_00000124845070114897849090000016846398226628563123_);}
	.st4{fill:url(#SVGID_00000091008590352537353060000004090109412824324794_);}
	.st5{fill:url(#SVGID_00000093870299784661718540000010701524368952907183_);}
	.st6{fill:url(#SVGID_00000035527363090675974700000005670843627186382502_);}
	.st7{fill:url(#SVGID_00000066506458262985280240000006811242685506520971_);}
	.st8{fill:url(#SVGID_00000179632548723708650790000010553679556001472952_);}
	.st9{fill:url(#SVGID_00000082336028808246951480000015676574240880421556_);}
	.st10{fill:url(#SVGID_00000101080703667868856790000003613578109880438443_);}
	.st11{fill:url(#SVGID_00000156582414286250490230000012323689481538040250_);}
	.st12{fill:url(#SVGID_00000085249800432692176470000003747861363402327168_);}
	.st13{fill:url(#SVGID_00000181791521964367896800000009526184316006545075_);}
	.st14{fill:url(#SVGID_00000088121618593799492460000011675328167688928429_);}
	.st15{fill:#F3EBD9;}
	.st16{fill:url(#SVGID_00000120540216641364526230000012607209831855422848_);}
	.st17{fill:url(#SVGID_00000125571562971172770900000015650931392806580102_);}
	.st18{fill:url(#SVGID_00000124126261186224583440000016419513783467145394_);}
	.st19{fill:url(#SVGID_00000031890765148904296860000000801034909197734304_);}
	.st20{fill:url(#SVGID_00000008127795729781287640000004526683732234859447_);}
	.st21{fill:url(#SVGID_00000049932520764724259370000001547648964053876372_);}
	.st22{fill:url(#SVGID_00000019662534185300321260000006944688504787662243_);}
	.st23{fill:url(#SVGID_00000021829832432645274170000009795591257022804621_);}
	.st24{fill:url(#SVGID_00000183948861424841524650000004385454300418186926_);}
	.st25{fill:url(#SVGID_00000065044530480911133270000016351764370263595967_);}
	.st26{fill:url(#SVGID_00000106849017289478021650000008808940584426826430_);}
	.st27{fill:url(#SVGID_00000041295354991426541810000013485712737718931093_);}
	.st28{fill:url(#SVGID_00000110435595438451260170000008980849282853100438_);}
	.st29{fill:url(#SVGID_00000036932111607704116170000016551458069030321589_);}
</style>
<g id="_x31_2">
</g>
<g id="_x31_1">
</g>
<g id="_x31_0">
</g>
<g id="_x39_">
</g>
<g id="_x38_">
</g>
<g id="_x37__00000014600371437760975490000011603007339324135047_">
</g>
<g id="_x36_">
	<linearGradient id="SVGID_1_" gradientUnits="userSpaceOnUse" x1="436.8494" y1="294.1808" x2="367.433" y2="128.9696">
		<stop  offset="1.821120e-03" style="stop-color:#00A4B0"/>
		<stop  offset="1" style="stop-color:#0C8DD7"/>
	</linearGradient>
	<path class="st0" d="M484.17,285.6c-6.48-4.86-12.03-11.8-12.03-11.8s-1.85-3.7-5.55-2.55c0,0-4.86-10.18-12.96-11.11l-6.02,1.62
		l-5.32-10.18c0,0-0.23-1.62-1.62-2.55c-1.39-0.93-10.88-12.26-14.58-16.89c-3.7-4.63-5.09-7.4-5.32-8.1
		c-0.23-0.69-1.39-8.33-3.01-9.72c-1.62-1.39,1.85-3.93-0.23-6.25s-4.4-4.17-4.4-4.17s-0.93-7.64-0.69-9.49s0.69-6.94,0.93-8.1
		c0.23-1.16,1.16-5.55,1.16-5.55l5.78,1.85l2.78-1.39l12.5,1.39c0,0,4.4,0.46,6.02-4.4c1.62-4.86,1.85-9.95,1.85-9.95l-2.31-23.6
		l-0.23-5.09l1.16-1.62l2.55-0.69l-0.46-2.08l1.1-2.72c0,0-0.35-2.08-1.56-1.56c0,0,1.21-2.95,0.35-3.12
		c-0.87-0.17-1.74,0.52-1.74,0.52s0.52-2.78-0.17-3.3c-0.69-0.52-1.74-0.52-1.74-0.52l-0.48,0.39l-1.59-4.05
		c0.87-0.61,1.56-1.02,1.56-1.02s1.04-1.39,0.35-1.74c-0.52-0.26-2,0.35-2.72,0.68l-1.81-4.59l-0.98,0.38l-12.8-32.02
		c1.23-0.52,2.36-1.22,3.38-2.06l0,0.01c0.17-0.13,0.35-0.25,0.52-0.39l-0.02-0.05c1.67-1.51,3.01-3.44,3.93-5.72
		c1.65-4.13,1.72-8.89,0.19-13.4c-1.53-4.51-4.49-8.24-8.32-10.51c-3.88-2.29-8.18-2.82-12.13-1.48c-3.95,1.34-7.04,4.38-8.71,8.57
		c-1.3,3.25-1.62,6.9-0.94,10.5l-0.06,0.02l0.14,0.41c0.17,0.83,0.4,1.65,0.67,2.47c2.62,7.7,9.29,12.7,16.08,12.7
		c1.18,0,2.36-0.16,3.53-0.47l12.84,32.1l-0.74,0.29l2.26,5.73c-1,1.16-1.95,2.69-2.1,4.47c-0.35,3.99,0.17,7.64,0.17,7.64
		l-0.69,3.3l0.69,2.08c0,0-0.69,2.95-0.87,5.03c-0.17,2.08-0.17,12.84-0.17,12.84s-1.21,6.77-2.78,7.98c0,0-6.25-2.08-7.98-3.12
		c-1.74-1.04-2.6-2.43-2.6-2.43s-1.91-0.69-2.43-2.08c-0.52-1.39-4.69-4.34-4.69-4.34l-12.67-7.12c0,0,2.95-12.49,2.78-14.23
		c0,0,2.08-0.52,2.78-2.6s-0.35-8.5-1.56-9.89c0,0-3.12-7.98-15.27-7.98c-1.36,0-2.6-0.69-8.68,1.74c-6.07,2.43-3.12,3.99-1.56,4.86
		c1.56,0.87,0.52,3.64,0.52,3.64s-2.43,5.38-1.21,7.46s1.74,4.69,1.74,4.69l0.17,3.82l-2.26,0.69c0,0-2.08-3.99-6.25-4.34
		c-4.16-0.35-12.15,0.52-15.97,1.74c-3.82,1.21-7.98,2.78-10.07,2.43c-2.08-0.35-3.12,0.35-3.12,0.35s-5.38,0.69-9.37-1.04
		c-3.99-1.74-9.72-4.17-14.92-5.55c-5.21-1.39-9.72-5.38-9.72-5.38l-1.39-0.52l-1.56-0.69c0,0-4.8-4.4-10.64-3.59
		c0,0-6.71-1.39-8.79-2.08c-2.08-0.69-5.55-1.16-5.78,0.23c-0.23,1.39,0.93,1.62,3.24,2.78c2.31,1.16,5.78,1.16,5.78,1.16h-7.4
		c0,0-3.7,0.46-3.24,2.31c0,0,0.93,1.62,2.78,0.93c1.85-0.69,6.02,0.23,6.02,0.23l-6.02,1.62c0,0-3.01,0.46-2.78,1.39
		c0.23,0.93,4.63,1.39,4.63,1.39l6.48-0.46l-4.16,3.93c0,0-1.85,2.08-0.93,2.78s4.16-1.39,5.09-2.31c0.93-0.93,4.4-1.62,4.4-1.62
		s4.86,1.85,8.79,0.46c0,0,7.87,4.86,11.34,8.33c3.47,3.47,12.73,7.87,15.04,8.1c2.31,0.23,18.74,2.55,18.74,2.55
		s0.93,2.78,2.08,2.78s4.4,0.23,5.09,0.46c0.69,0.23,6.02,3.93,6.02,3.93s1.62,5.09,1.62,9.49c0,4.4,1.16,20.36,2.08,23.14
		s2.78,7.4,0.93,9.72s0.23,10.88-2.08,13.88c-2.31,3.01,0.46,2.55,0.46,2.55s-1.62,30.31,2.31,42.81
		c3.93,12.49,3.47,21.29,3.47,21.29l2.78,0.23c0,0,3.47,19.44,5.32,21.75c1.85,2.31,6.02,10.64,14.11,13.42l-0.69,3.47
		c0,0-0.23,2.31,2.55,4.16c2.78,1.85,3.01,4.63,3.01,4.63l0.23,6.71c0,0,1.85,4.63,3.7,7.17c1.85,2.55,3.93,5.32,7.64,3.24
		c3.7-2.08,3.7-11.8,2.78-14.35c-0.93-2.55-3.7-4.63-3.7-8.1c0-3.47-0.69-8.56,0-9.72c0.69-1.16,0.69-9.26-5.32-9.49
		c0,0-2.78-0.69-4.16,0.93c0,0,0.69-10.18-4.63-12.03c0,0,1.16-12.26-1.62-16.89l1.62-2.55l2.55-15.27c0,0,0.69-6.94,1.85-6.48
		c1.16,0.46,20.82,12.26,20.82,12.26l3.93,1.62l3.47-2.55c0,0,9.95,10.18,13.19,12.03s11.11,3.47,17.35,3.93
		c6.25,0.46,9.02,2.08,9.02,2.08l0.46,2.55l3.7,3.7c0,0-1.39,1.85,0.46,2.55c1.85,0.69,4.86,2.78,4.86,2.78l4.86,7.4
		c0,0,4.16,5.32,7.4,5.32c3.24,0,5.32-1.62,5.78-4.63C491.8,299.71,490.65,290.46,484.17,285.6z M423.15,79.06L422.78,78l1.46-0.51
		l0.37,1.07L423.15,79.06z M425.77,67.74l1.32-0.46l0.37,1.07l-1.32,0.46L425.77,67.74z M426.13,70.66l-1.32,0.46l-0.37-1.07
		l1.32-0.46L426.13,70.66z M425.57,67.16l-0.41-1.19l1.32-0.46l0.41,1.19L425.57,67.16z M425.19,67.95l0.37,1.07l-1.32,0.46
		l-0.37-1.07L425.19,67.95z M423.67,67.82l-0.41-1.19l1.32-0.46l0.41,1.19L423.67,67.82z M408.1,63.92l0.37,1.07l-1.32,0.46
		l-0.37-1.07L408.1,63.92z M406.58,63.79l-0.37-1.07l1.32-0.46l0.37,1.07L406.58,63.79z M408.11,62.07l1.32-0.46l0.37,1.07
		l-1.32,0.46L408.11,62.07z M410,63.26l0.37,1.07l-1.32,0.46l-0.37-1.07L410,63.26z M410.38,62.48l-0.37-1.07l1.53-0.53l0.37,1.07
		L410.38,62.48z M412.11,62.53l0.37,1.07l-1.53,0.53l-0.37-1.07L412.11,62.53z M410.57,64.91l0.43,1.26l-1.32,0.46l-0.43-1.26
		L410.57,64.91z M411.2,66.75l0.43,1.26l-1.32,0.46l-0.43-1.26L411.2,66.75z M411.58,65.97l-0.43-1.26l1.53-0.53l0.43,1.26
		L411.58,65.97z M413.06,63.4l-0.37-1.07l1.53-0.53l0.37,1.07L413.06,63.4z M414.8,63.45l0.43,1.26l-1.53,0.53l-0.43-1.26
		L414.8,63.45z M413.32,66.01l0.43,1.26l-1.53,0.53l-0.43-1.26L413.32,66.01z M413.95,67.85l0.42,1.2l-1.53,0.53l-0.42-1.2
		L413.95,67.85z M414.33,67.07l-0.43-1.26l1.53-0.53l0.43,1.26L414.33,67.07z M415.81,64.5l-0.43-1.26l1.47-0.51l0.43,1.26
		L415.81,64.5z M417.48,64.57l0.43,1.26l-1.47,0.51l-0.43-1.26L417.48,64.57z M416.07,67.12l0.42,1.2l-1.53,0.53l-0.42-1.2
		L416.07,67.12z M416.68,68.9l0.41,1.19l-1.53,0.53l-0.41-1.19L416.68,68.9z M417.06,68.12l-0.42-1.2l1.47-0.51l0.42,1.2
		L417.06,68.12z M418.07,64.37l1.46-0.51l0.43,1.26l-1.46,0.51L418.07,64.37z M418.74,68.19l0.41,1.19l-1.47,0.51l-0.41-1.19
		L418.74,68.19z M419.12,67.41l-0.42-1.2l1.46-0.51l0.42,1.2L419.12,67.41z M420.78,67.48l0.41,1.19l-1.46,0.51l-0.41-1.19
		L420.78,67.48z M420.74,65.5l1.32-0.46l0.42,1.2l-1.32,0.46L420.74,65.5z M421.4,69.26l0.37,1.07l-1.46,0.51l-0.37-1.07
		L421.4,69.26z M421.36,67.28l1.32-0.46l0.41,1.19l-1.31,0.46L421.36,67.28z M423.29,68.6l0.37,1.07l-1.32,0.46l-0.37-1.07
		L423.29,68.6z M423.06,66.05l-0.42-1.2l1.32-0.46l0.42,1.2L423.06,66.05z M422.44,64.26l-0.43-1.26l1.32-0.46l0.43,1.26
		L422.44,64.26z M421.8,62.43l-0.43-1.26l1.32-0.46l0.43,1.26L421.8,62.43z M421.42,63.21l0.43,1.26l-1.32,0.46l-0.43-1.26
		L421.42,63.21z M419.91,63.08l-0.43-1.26l1.32-0.46l0.43,1.26L419.91,63.08z M419.27,61.25l-0.37-1.07l1.32-0.46l0.37,1.07
		L419.27,61.25z M419.33,63.28l-1.46,0.51l-0.43-1.26l1.46-0.51L419.33,63.28z M417.23,61.95l-0.37-1.07l1.46-0.51l0.37,1.07
		L417.23,61.95z M416.66,60.31l-0.37-1.07l1.46-0.51l0.37,1.07L416.66,60.31z M416.65,62.15l-1.47,0.51l-0.37-1.07l1.47-0.51
		L416.65,62.15z M414.61,61.02l-0.37-1.07l1.47-0.51l0.37,1.07L414.61,61.02z M414.04,59.37l-0.37-1.07l1.47-0.51l0.37,1.07
		L414.04,59.37z M414.02,61.22l-1.53,0.53l-0.37-1.07l1.53-0.53L414.02,61.22z M411.92,60.1l-0.37-1.07l1.53-0.53l0.37,1.07
		L411.92,60.1z M411.35,58.46l-0.37-1.07l1.53-0.53l0.37,1.07L411.35,58.46z M411.34,60.3l-1.53,0.53l-0.37-1.07l1.53-0.53
		L411.34,60.3z M409.24,59.19l-0.37-1.07l1.53-0.53l0.37,1.07L409.24,59.19z M409.22,61.04l-1.32,0.46l-0.37-1.07l1.32-0.46
		L409.22,61.04z M407.34,59.85l-0.37-1.07l1.32-0.46l0.37,1.07L407.34,59.85z M407.33,61.69l-1.32,0.46l-0.37-1.07l1.32-0.46
		L407.33,61.69z M405.44,60.5l-0.37-1.07l1.32-0.46l0.37,1.07L405.44,60.5z M405.43,62.35l-1.32,0.46l-0.37-1.07l1.32-0.46
		L405.43,62.35z M405.63,62.93L406,64l-1.32,0.46l-0.37-1.07L405.63,62.93z M406.2,64.58l0.37,1.07l-1.32,0.46l-0.37-1.07
		L406.2,64.58z M406.77,66.22l0.43,1.26l-1.32,0.46l-0.43-1.26L406.77,66.22z M407.41,68.06l0.43,1.26l-1.32,0.46l-0.43-1.26
		L407.41,68.06z M407.79,67.28l-0.43-1.26l1.32-0.46l0.43,1.26L407.79,67.28z M409.3,67.4l0.43,1.26l-1.32,0.46l-0.43-1.26
		L409.3,67.4z M409.94,69.24l0.42,1.2l-1.32,0.46l-0.42-1.2L409.94,69.24z M410.56,71.02l0.41,1.19l-1.32,0.46l-0.41-1.19
		L410.56,71.02z M410.94,70.24l-0.42-1.2l1.32-0.46l0.42,1.2L410.94,70.24z M412.45,70.37l0.41,1.19l-1.32,0.46l-0.41-1.19
		L412.45,70.37z M413.07,72.14l0.37,1.07l-1.32,0.46l-0.37-1.07L413.07,72.14z M413.03,70.17l1.53-0.53l0.41,1.19l-1.53,0.53
		L413.03,70.17z M415.18,71.41l0.37,1.07l-1.53,0.53l-0.37-1.07L415.18,71.41z M415.75,73.06l0.37,1.07l-1.53,0.53l-0.37-1.07
		L415.75,73.06z M415.76,71.21l1.53-0.53l0.37,1.07l-1.53,0.53L415.76,71.21z M417.87,72.32l0.37,1.07l-1.53,0.53l-0.37-1.07
		L417.87,72.32z M417.88,70.48l1.47-0.51l0.37,1.07l-1.47,0.51L417.88,70.48z M419.92,71.61l0.37,1.07l-1.47,0.51l-0.37-1.07
		L419.92,71.61z M420.49,73.26l0.37,1.07l-1.47,0.51l-0.37-1.07L420.49,73.26z M420.5,71.41l1.46-0.51l0.37,1.07l-1.46,0.51
		L420.5,71.41z M422.54,72.55l0.37,1.07l-1.46,0.51l-0.37-1.07L422.54,72.55z M422.55,70.7l1.32-0.46l0.37,1.07l-1.32,0.46
		L422.55,70.7z M424.43,71.9l0.37,1.07l-1.32,0.46l-0.37-1.07L424.43,71.9z M425,73.54l0.37,1.07l-1.31,0.46L423.69,74L425,73.54z
		 M425.01,71.69l1.32-0.46l0.37,1.07l-1.32,0.46L425.01,71.69z M426.9,72.89l0.37,1.07l-1.32,0.46l-0.37-1.07L426.9,72.89z
		 M426.71,70.46l-0.37-1.07l1.32-0.46l0.37,1.07L426.71,70.46z M427.46,66.51l-0.41-1.19l1.32-0.46l0.41,1.19L427.46,66.51z
		 M426.85,64.73l-0.42-1.2l1.32-0.46l0.42,1.2L426.85,64.73z M426.23,62.95l-0.43-1.26l1.32-0.46l0.43,1.26L426.23,62.95z
		 M425.85,63.73l0.42,1.2l-1.32,0.46l-0.42-1.2L425.85,63.73z M424.34,63.61l-0.43-1.26l1.32-0.46l0.43,1.26L424.34,63.61z
		 M423.7,61.77l-0.43-1.26l1.31-0.46l0.43,1.26L423.7,61.77z M423.06,59.93l-0.37-1.07l1.32-0.46l0.37,1.07L423.06,59.93z
		 M422.49,58.29l-0.37-1.07l1.32-0.46l0.37,1.07L422.49,58.29z M422.48,60.13l-1.32,0.46l-0.37-1.07l1.32-0.46L422.48,60.13z
		 M420.6,58.94l-0.37-1.07l1.32-0.46l0.37,1.07L420.6,58.94z M420.03,57.3l-0.37-1.07l1.32-0.46l0.37,1.07L420.03,57.3z
		 M420.02,59.14l-1.32,0.46l-0.37-1.07l1.32-0.46L420.02,59.14z M418.13,57.95l-0.37-1.07l1.32-0.46l0.37,1.07L418.13,57.95z
		 M417.56,56.31l-0.37-1.07l1.32-0.46l0.37,1.07L417.56,56.31z M417.55,58.15l-1.46,0.51l-0.37-1.07l1.46-0.51L417.55,58.15z
		 M415.52,57.01l-0.37-1.07l1.46-0.51l0.37,1.07L415.52,57.01z M414.95,55.37l-0.37-1.07l1.46-0.51l0.37,1.07L414.95,55.37z
		 M414.94,57.21l-1.47,0.51l-0.37-1.07l1.47-0.51L414.94,57.21z M412.9,56.08l-0.37-1.07L414,54.5l0.37,1.07L412.9,56.08z
		 M412.33,54.43l-0.37-1.07l1.47-0.51l0.37,1.07L412.33,54.43z M412.31,56.28l-1.53,0.53l-0.37-1.07l1.53-0.53L412.31,56.28z
		 M410.21,55.16l-0.37-1.07l1.53-0.53l0.37,1.07L410.21,55.16z M410.2,57.01l-1.53,0.53l-0.37-1.07l1.53-0.53L410.2,57.01z
		 M408.1,55.9l-0.37-1.07l1.53-0.53l0.37,1.07L408.1,55.9z M408.08,57.74l-1.32,0.46l-0.37-1.07l1.32-0.46L408.08,57.74z
		 M406.2,56.55l-0.37-1.07l1.32-0.46l0.37,1.07L406.2,56.55z M406.19,58.4l-1.32,0.46l-0.37-1.07l1.31-0.46L406.19,58.4z
		 M404.86,60.7l-1.32,0.46l-0.37-1.07l1.32-0.46L404.86,60.7z M402.98,59.51l-0.37-1.07l1.32-0.46l0.37,1.07L402.98,59.51z
		 M403.17,61.94l0.37,1.07l-1.32,0.46l-0.37-1.07L403.17,61.94z M403.74,63.59l0.37,1.07l-1.32,0.46l-0.37-1.07L403.74,63.59z
		 M404.31,65.23l0.37,1.07l-1.32,0.46l-0.37-1.07L404.31,65.23z M404.88,66.88l0.43,1.26L404,68.59l-0.43-1.26L404.88,66.88z
		 M405.51,68.72l0.43,1.26l-1.32,0.46l-0.43-1.26L405.51,68.72z M406.15,70.55l0.42,1.2l-1.32,0.46l-0.42-1.2L406.15,70.55z
		 M406.77,72.34l0.41,1.19l-1.32,0.46l-0.41-1.19L406.77,72.34z M407.14,71.55l-0.42-1.2l1.32-0.46l0.42,1.2L407.14,71.55z
		 M408.66,71.68l0.41,1.19l-1.32,0.46l-0.41-1.19L408.66,71.68z M409.28,73.45l0.37,1.07l-1.32,0.46l-0.37-1.07L409.28,73.45z
		 M409.85,75.1l0.37,1.07l-1.32,0.46l-0.37-1.07L409.85,75.1z M409.86,73.25l1.32-0.46l0.37,1.07l-1.32,0.46L409.86,73.25z
		 M411.74,74.44l0.37,1.07l-1.32,0.46l-0.37-1.07L411.74,74.44z M412.31,76.09l0.37,1.07l-1.32,0.46L411,76.55L412.31,76.09z
		 M412.32,74.24l1.32-0.46l0.37,1.07l-1.32,0.46L412.32,74.24z M414.21,75.43l0.37,1.07l-1.32,0.46l-0.37-1.07L414.21,75.43z
		 M414.78,77.08l0.37,1.07l-1.32,0.46l-0.37-1.07L414.78,77.08z M414.79,75.23l1.53-0.53l0.37,1.07l-1.53,0.53L414.79,75.23z
		 M416.89,76.35l0.37,1.07l-1.53,0.53l-0.37-1.07L416.89,76.35z M416.9,74.5l1.53-0.53l0.37,1.07l-1.53,0.53L416.9,74.5z
		 M419.01,75.62l0.37,1.07l-1.53,0.53l-0.37-1.07L419.01,75.62z M419.58,77.26l0.37,1.07l-1.53,0.53l-0.37-1.07L419.58,77.26z
		 M419.59,75.42l1.47-0.51l0.37,1.07l-1.47,0.51L419.59,75.42z M421.63,76.55l0.37,1.07l-1.47,0.51l-0.37-1.07L421.63,76.55z
		 M421.64,74.7l1.46-0.51l0.37,1.07l-1.46,0.51L421.64,74.7z M423.68,75.84l0.37,1.07l-1.46,0.51l-0.37-1.07L423.68,75.84z
		 M424.26,75.64l1.31-0.46l0.37,1.07l-1.31,0.46L424.26,75.64z M425.11,78.12l-0.29-0.83l1.31-0.46l0.02,0.06
		C425.83,77.33,425.48,77.74,425.11,78.12z M426.8,75.96l-0.28,0.1l-0.37-1.07l1.32-0.46l0.05,0.14
		C427.3,75.12,427.06,75.55,426.8,75.96z M427.99,73.62c-0.01,0.03-0.03,0.06-0.04,0.1l-0.1,0.04l-0.37-1.07l0.95-0.33
		C428.3,72.78,428.16,73.21,427.99,73.62z M427.28,72.1l-0.37-1.07l1.32-0.46l0.37,1.07L427.28,72.1z M428.86,70.55l-0.06-0.17
		l0.09-0.03C428.88,70.42,428.88,70.49,428.86,70.55z M428.99,69.67l-0.39,0.14l-0.37-1.07l0.87-0.3
		C429.08,68.85,429.05,69.26,428.99,69.67z M429.13,67.06c0.01,0.24,0.02,0.48,0.02,0.72l-1.11,0.38l-0.37-1.07l1.32-0.46
		L429.13,67.06z M428.8,64.06l-0.06,0.02l-0.42-1.2l0.2-0.07C428.64,63.22,428.72,63.64,428.8,64.06z M428.14,61.5
		c0.08,0.24,0.14,0.48,0.21,0.72l-0.22,0.08l-0.43-1.26l0.24-0.08C428,61.14,428.08,61.31,428.14,61.5z M427.16,59.17
		c0.2,0.4,0.38,0.8,0.55,1.21l-0.22,0.07l-0.43-1.26L427.16,59.17z M426.88,58.61l-0.03,0.01l-0.05-0.15
		C426.83,58.52,426.86,58.56,426.88,58.61z M426.91,60.66l-1.32,0.46l-0.43-1.26l1.32-0.46L426.91,60.66z M426.28,58.82l-1.32,0.46
		l-0.37-1.07l1.32-0.46L426.28,58.82z M425.41,56.33l0.29,0.85l-1.32,0.46l-0.37-1.07l1.25-0.43
		C425.32,56.2,425.36,56.26,425.41,56.33z M424.86,55.63l-1.04,0.36l-0.37-1.07l0.6-0.21C424.33,55,424.6,55.31,424.86,55.63z
		 M423.55,54.23l-0.3,0.1l-0.21-0.59C423.22,53.9,423.38,54.07,423.55,54.23z M423.24,56.18l-1.32,0.46l-0.37-1.07l1.32-0.46
		L423.24,56.18z M422.67,54.54l-1.32,0.46l-0.37-1.07l1.31-0.46L422.67,54.54z M420.85,52.13c0.4,0.25,0.79,0.51,1.17,0.79
		l-1.23,0.43l-0.37-1.07L420.85,52.13z M420.77,55.19l-1.32,0.46l-0.37-1.07l1.32-0.46L420.77,55.19z M420.2,53.55L418.89,54
		l-0.37-1.07l1.32-0.46L420.2,53.55z M418.7,51.03c0.25,0.1,0.5,0.21,0.75,0.33l0.19,0.54l-1.32,0.46l-0.37-1.07L418.7,51.03z
		 M418.31,54.2l-1.32,0.46l-0.37-1.07l1.32-0.46L418.31,54.2z M417.79,50.7l-0.04,0.01l-0.01-0.03
		C417.76,50.68,417.77,50.69,417.79,50.7z M417.74,52.56l-1.32,0.46l-0.37-1.07l1.32-0.46L417.74,52.56z M415.77,50.2
		c0.42,0.07,0.83,0.15,1.24,0.26l0.15,0.45l-1.32,0.46l-0.37-1.07L415.77,50.2z M415.84,53.21l-1.46,0.51l-0.37-1.07l1.46-0.51
		L415.84,53.21z M415.27,51.57l-1.46,0.51l-0.37-1.07l1.46-0.51L415.27,51.57z M413.84,50.04c0.16,0,0.31,0.01,0.47,0.02l-1.07,0.37
		l-0.12-0.36C413.36,50.06,413.6,50.04,413.84,50.04z M413.23,52.28l-1.47,0.51l-0.37-1.07l1.47-0.51L413.23,52.28z M412.48,50.13
		l0.17,0.5l-1.47,0.51l-0.25-0.73C411.44,50.27,411.96,50.19,412.48,50.13z M411.17,52.99l-1.53,0.53l-0.37-1.07l1.53-0.53
		L411.17,52.99z M410.03,50.67c0.1-0.03,0.21-0.06,0.31-0.09l0.26,0.76l-1.53,0.53l-0.25-0.71
		C409.22,50.97,409.62,50.81,410.03,50.67z M409.06,53.72l-1.53,0.53l-0.37-1.07l1.53-0.53L409.06,53.72z M408.27,51.44l0.22,0.63
		l-1.53,0.53l-0.1-0.28C407.31,52,407.78,51.7,408.27,51.44z M406.35,52.73l0.03,0.08l-0.21,0.07
		C406.23,52.82,406.29,52.77,406.35,52.73z M406.58,53.38l0.37,1.07l-1.32,0.46l-0.37-1.07L406.58,53.38z M405.62,56.75l-1.31,0.46
		l-0.37-1.07l1.31-0.46L405.62,56.75z M404.76,54.28l0.28,0.82l-1.23,0.42C404.11,55.09,404.43,54.68,404.76,54.28z M403.31,56.36
		l0.04-0.01l0.37,1.07l-1.12,0.39C402.81,57.3,403.05,56.82,403.31,56.36z M402.15,59.01l0.24,0.71l-0.52,0.18
		C401.96,59.59,402.05,59.3,402.15,59.01z M401.7,60.6l0.89-0.31l0.37,1.07l-1.32,0.46l-0.12-0.35
		C401.58,61.18,401.64,60.89,401.7,60.6z M401.35,62.83l0.29,0.83l-0.34,0.12C401.31,63.46,401.33,63.15,401.35,62.83z
		 M401.29,64.43l0.55-0.19l0.37,1.07l-0.88,0.3C401.3,65.22,401.29,64.83,401.29,64.43z M401.4,66.24l1.01-0.35l0.37,1.07
		l-1.23,0.43C401.48,67,401.44,66.62,401.4,66.24z M401.69,68.07c-0.01-0.03-0.01-0.05-0.02-0.08l1.31-0.45l0.43,1.26l-1.31,0.46
		L401.69,68.07z M402.3,69.83l1.32-0.46l0.43,1.26l-1.32,0.46L402.3,69.83z M403.29,72.7l-0.36-1.03l1.32-0.46l0.42,1.2l-1.29,0.45
		C403.35,72.8,403.32,72.75,403.29,72.7z M403.67,73.41l1.2-0.41l0.41,1.19l-0.94,0.33C404.1,74.15,403.88,73.79,403.67,73.41z
		 M404.7,75.04l0.78-0.27l0.37,1.07l-0.44,0.15C405.17,75.68,404.93,75.36,404.7,75.04z M405.84,76.49l0.22-0.08l0.17,0.51
		C406.1,76.78,405.96,76.63,405.84,76.49z M406.06,74.57l1.32-0.46l0.37,1.07l-1.32,0.46L406.06,74.57z M406.63,76.21l1.32-0.46
		l0.37,1.07L407,77.28L406.63,76.21z M407.21,77.89l-0.01-0.03l1.32-0.46l0.37,1.07l-0.69,0.24
		C407.86,78.45,407.53,78.18,407.21,77.89z M408.8,79.15l0.29-0.1l0.14,0.39C409.08,79.35,408.94,79.25,408.8,79.15z M409.1,77.2
		l1.32-0.46l0.37,1.07l-1.32,0.46L409.1,77.2z M409.67,78.85l1.32-0.46l0.37,1.07l-1.32,0.46L409.67,78.85z M410.75,80.32l0.8-0.28
		l0.26,0.76C411.46,80.65,411.1,80.49,410.75,80.32z M411.57,78.19l1.32-0.46l0.37,1.07l-1.32,0.46L411.57,78.19z M412.14,79.84
		l1.32-0.46l0.37,1.07l-1.32,0.46L412.14,79.84z M413.28,81.29l0.74-0.26l0.16,0.47C413.88,81.44,413.58,81.37,413.28,81.29z
		 M414.03,79.18l1.32-0.46l0.37,1.07l-1.32,0.46L414.03,79.18z M415.54,81.7c-0.22-0.02-0.44-0.04-0.66-0.08l-0.27-0.79l1.32-0.46
		l0.37,1.07L415.54,81.7z M415.93,78.53l1.53-0.53l0.37,1.07l-1.53,0.53L415.93,78.53z M416.5,80.17l1.53-0.53l0.37,1.07l-1.53,0.53
		L416.5,80.17z M417.35,81.72l1.25-0.43l0.09,0.27C418.25,81.64,417.8,81.69,417.35,81.72z M418.61,79.44l1.53-0.53l0.37,1.07
		l-1.53,0.53L418.61,79.44z M420.39,81.13c-0.36,0.12-0.73,0.22-1.09,0.31l-0.12-0.35l1.53-0.53l0.14,0.4
		C420.7,81.01,420.55,81.07,420.39,81.13z M420.73,78.71l1.47-0.51l0.37,1.07l-1.47,0.51L420.73,78.71z M421.3,80.36l1.47-0.51
		l0.05,0.13c-0.45,0.28-0.91,0.52-1.39,0.74L421.3,80.36z M436.85,127.23c-0.35-0.3-2.41-2.17-1.47-3.73L436.85,127.23z"/>
</g>
<g id="_x35_">
</g>
<g id="_x34_">
</g>
<g id="_x33_">
</g>
<g id="_x32_">
</g>
<g id="_x31_">
</g>
</svg>
