<?xml version="1.0" encoding="utf-8"?>
<!-- Generator: Adobe Illustrator 28.4.1, SVG Export Plug-In . SVG Version: 6.00 Build 0)  -->
<svg version="1.1" id="Layer_1" xmlns="http://www.w3.org/2000/svg" xmlns:xlink="http://www.w3.org/1999/xlink" x="0px" y="0px"
	 viewBox="0 0 150 46" style="enable-background:new 0 0 150 46;" xml:space="preserve">
<style type="text/css">
	.st0{fill:url(#SVGID_1_);}
	.st1{fill:#FFFFFF;}
	.st2{fill:url(#SVGID_00000119097046728531461880000005041553742998205584_);}
	.st3{fill:#D50902;}
	.st4{fill:url(#SVGID_00000033352036412808859070000002417149920635285928_);}
	.st5{fill:#19803B;}
	.st6{fill:#81BA74;}
	.st7{fill:#3E77FC;}
	.st8{fill:url(#SVGID_00000128465593235089179940000004124033607704300437_);}
</style>
<linearGradient id="SVGID_1_" gradientUnits="userSpaceOnUse" x1="19.4502" y1="46.0763" x2="46.6921" y2="21.5052" gradientTransform="matrix(1 0 0 -1 0 46)">
	<stop  offset="1.821120e-03" style="stop-color:#BACE49"/>
	<stop  offset="1" style="stop-color:#69B186"/>
</linearGradient>
<path class="st0" d="M45.84,1.24c-0.99,0-1.9,0.51-2.42,1.36l0,0c-3.54,5.79-11.94,5.79-15.48,0c-0.51-0.84-1.43-1.36-2.42-1.36
	c-1.56,0-2.83,1.27-2.83,2.83v22.24h5.23c0.17-0.74,0.27-1.5,0.32-2.3v-1.95c0-2.68,3.55-3.64,4.9-1.32c0.54,0.9,1.5,1.45,2.54,1.45
	s2.01-0.55,2.54-1.45c1.35-2.32,4.9-1.36,4.9,1.32v4.25h5.55V4.08C48.67,2.51,47.4,1.24,45.84,1.24z M35.81,15.53
	c-1.33,0-2.4-1.08-2.4-2.4s1.08-2.4,2.4-2.4c1.33,0,2.4,1.08,2.4,2.4S37.14,15.53,35.81,15.53z"/>
<g>
	<path class="st1" d="M73.75,6.11c-1.45,0-2.5,1.13-2.5,3.16c0,2.05,1.03,3.18,2.53,3.18c1.35,0,2.22-0.82,2.25-2.1h-2.09V9.07h3.65
		v1.08c0,2.31-1.59,3.75-3.81,3.75c-2.48,0-4.16-1.76-4.16-4.62c0-2.88,1.75-4.62,4.11-4.62c1.99,0,3.52,1.23,3.79,2.99h-1.65
		C75.59,6.69,74.85,6.11,73.75,6.11z"/>
	<path class="st1" d="M81.23,9.84c0.47-0.03,1.43-0.09,1.73-0.1V9.2c0-0.67-0.43-1.06-1.22-1.06c-0.71,0-1.14,0.32-1.27,0.81h-1.53
		c0.11-1.14,1.14-2.01,2.83-2.01c1.28,0,2.76,0.52,2.76,2.32v4.51h-1.52v-0.93h-0.05c-0.3,0.57-0.93,1.07-1.99,1.07
		c-1.29,0-2.26-0.71-2.26-2.04C78.72,10.36,79.97,9.91,81.23,9.84z M81.39,12.74c0.96,0,1.58-0.63,1.58-1.39v-0.56
		c-0.29,0.02-1.17,0.08-1.49,0.1c-0.76,0.06-1.23,0.37-1.23,0.97C80.25,12.45,80.72,12.74,81.39,12.74z"/>
	<path class="st1" d="M86.05,7.03h1.52v1.14h0.09c0.27-0.77,0.96-1.23,1.85-1.23c0.92,0,1.57,0.46,1.83,1.23h0.08
		c0.3-0.75,1.04-1.23,2.02-1.23c1.23,0,2.1,0.8,2.1,2.3v4.53h-1.58V9.49c0-0.85-0.51-1.22-1.16-1.22c-0.78,0-1.23,0.53-1.23,1.29
		v4.21h-1.54V9.43c0-0.7-0.47-1.16-1.15-1.16s-1.24,0.56-1.24,1.4v4.1h-1.59L86.05,7.03L86.05,7.03z"/>
	<path class="st1" d="M96.8,10.45c0-2.09,1.27-3.5,3.19-3.5c1.65,0,3.08,1.03,3.08,3.4v0.5h-4.71c0.02,1.15,0.7,1.83,1.73,1.83
		c0.7,0,1.17-0.3,1.37-0.7h1.55c-0.29,1.17-1.37,1.94-2.93,1.94C98.04,13.91,96.8,12.56,96.8,10.45z M101.56,9.76
		c-0.01-0.92-0.62-1.59-1.54-1.59c-0.96,0-1.59,0.73-1.64,1.59H101.56z"/>
	<path class="st1" d="M71.84,17.3l2.67,6.54h0.11l2.67-6.54h1.99v9h-1.55v-6.2h-0.09l-2.5,6.16h-1.16l-2.5-6.19H71.4v6.21h-1.57v-9
		h2.01V17.3z"/>
	<path class="st1" d="M83.11,22.35c0.47-0.03,1.44-0.09,1.73-0.1v-0.53c0-0.67-0.44-1.06-1.22-1.06c-0.71,0-1.14,0.32-1.27,0.81
		h-1.53c0.11-1.14,1.14-2.01,2.83-2.01c1.28,0,2.76,0.52,2.76,2.32v4.51H84.9v-0.93h-0.05c-0.3,0.57-0.93,1.07-1.99,1.07
		c-1.29,0-2.26-0.71-2.26-2.04C80.6,22.88,81.86,22.43,83.11,22.35z M83.27,25.26c0.96,0,1.58-0.63,1.58-1.39v-0.56
		c-0.29,0.02-1.17,0.08-1.49,0.1c-0.76,0.06-1.23,0.37-1.23,0.97C82.13,24.96,82.6,25.26,83.27,25.26z"/>
	<path class="st1" d="M89.52,26.29h-1.59v-6.75h1.52v1.14h0.09c0.31-0.76,1-1.23,2-1.23c1.4,0,2.32,0.92,2.31,2.54v4.3h-1.58v-4.05
		c0-0.91-0.48-1.44-1.32-1.44c-0.85,0-1.43,0.56-1.43,1.54C89.52,22.34,89.52,26.29,89.52,26.29z"/>
	<path class="st1" d="M97.59,22.35c0.46-0.03,1.43-0.09,1.73-0.1v-0.53c0-0.67-0.44-1.06-1.22-1.06c-0.71,0-1.14,0.32-1.27,0.81
		H95.3c0.11-1.14,1.14-2.01,2.83-2.01c1.28,0,2.76,0.52,2.76,2.32v4.51h-1.52v-0.93h-0.05c-0.3,0.57-0.93,1.07-1.99,1.07
		c-1.29,0-2.26-0.71-2.26-2.04C95.08,22.88,96.33,22.43,97.59,22.35z M97.75,25.26c0.96,0,1.58-0.63,1.58-1.39v-0.56
		c-0.29,0.02-1.17,0.08-1.49,0.1c-0.76,0.06-1.23,0.37-1.23,0.97C96.61,24.96,97.08,25.26,97.75,25.26z"/>
	<path class="st1" d="M102.32,26.9h1.58c0.11,0.58,0.67,0.87,1.48,0.87c0.94,0,1.57-0.41,1.57-1.4v-1.29h-0.08
		c-0.25,0.5-0.78,1.12-1.95,1.12c-1.55,0-2.78-1.13-2.78-3.33c0-2.22,1.23-3.4,2.8-3.4c1.19,0,1.69,0.71,1.94,1.19h0.08v-1.11h1.57
		v6.86c0,1.73-1.33,2.56-3.16,2.56C103.56,28.96,102.43,28.17,102.32,26.9z M106.96,22.89c0-1.28-0.57-2.14-1.6-2.14
		c-1.06,0-1.6,0.91-1.6,2.14c0,1.24,0.56,2.06,1.6,2.06C106.37,24.95,106.96,24.18,106.96,22.89z"/>
	<path class="st1" d="M109.77,22.96c0-2.09,1.27-3.5,3.19-3.5c1.65,0,3.08,1.03,3.08,3.4v0.5h-4.71c0.02,1.15,0.7,1.83,1.73,1.83
		c0.7,0,1.17-0.3,1.37-0.7h1.55c-0.29,1.17-1.37,1.94-2.93,1.94C111.01,26.43,109.77,25.07,109.77,22.96z M114.52,22.28
		c-0.01-0.92-0.62-1.59-1.54-1.59c-0.96,0-1.59,0.73-1.64,1.59H114.52z"/>
	<path class="st1" d="M117.3,19.55h1.52v1.14h0.09c0.27-0.77,0.96-1.23,1.85-1.23c0.92,0,1.57,0.46,1.83,1.23h0.08
		c0.3-0.75,1.04-1.23,2.02-1.23c1.23,0,2.1,0.8,2.1,2.3v4.53h-1.58V22c0-0.85-0.51-1.22-1.16-1.22c-0.78,0-1.23,0.53-1.23,1.29v4.21
		h-1.54v-4.35c0-0.7-0.47-1.16-1.15-1.16s-1.24,0.56-1.24,1.4v4.1h-1.59L117.3,19.55L117.3,19.55z"/>
	<path class="st1" d="M128.04,22.96c0-2.09,1.27-3.5,3.19-3.5c1.65,0,3.08,1.03,3.08,3.4v0.5h-4.71c0.02,1.15,0.7,1.83,1.73,1.83
		c0.7,0,1.17-0.3,1.37-0.7h1.55c-0.29,1.17-1.37,1.94-2.93,1.94C129.29,26.43,128.04,25.07,128.04,22.96z M132.8,22.28
		c-0.01-0.92-0.62-1.59-1.54-1.59c-0.96,0-1.59,0.73-1.64,1.59H132.8z"/>
	<path class="st1" d="M137.16,26.29h-1.59v-6.75h1.52v1.14h0.09c0.31-0.76,1-1.23,2-1.23c1.4,0,2.32,0.92,2.31,2.54v4.3h-1.58v-4.05
		c0-0.91-0.48-1.44-1.32-1.44c-0.85,0-1.43,0.56-1.43,1.54V26.29z"/>
	<path class="st1" d="M146.4,20.76h-1.33v3.5c0,0.65,0.33,0.78,0.72,0.78c0.19,0,0.49-0.01,0.7-0.03v1.29
		c-0.19,0.04-0.5,0.06-0.9,0.06c-1.19,0-2.11-0.59-2.1-1.85v-3.77h-0.97v-1.22h0.97V17.9h1.58v1.62h1.33V20.76z"/>
	<path class="st1" d="M73.05,31.07c-1.02,0-1.64,0.5-1.64,1.17c0,0.76,0.8,1.07,1.54,1.24l0.85,0.23c1.34,0.31,2.63,1.02,2.63,2.58
		c0,1.58-1.24,2.66-3.4,2.66c-2.1,0-3.42-1.01-3.49-2.78h1.59c0.08,0.95,0.87,1.4,1.89,1.4c1.07,0,1.8-0.52,1.8-1.29
		c0-0.71-0.66-1.01-1.63-1.26l-1.02-0.26c-1.48-0.38-2.4-1.13-2.4-2.42c0-1.59,1.42-2.65,3.31-2.65c1.91,0,3.2,1.08,3.23,2.6h-1.55
		C74.67,31.51,74.02,31.07,73.05,31.07z"/>
	<path class="st1" d="M77.86,41.3v-1.27c0.2,0.01,0.46,0.03,0.67,0.03c0.39,0,0.71-0.04,0.98-0.76l0.14-0.36l-2.46-6.88h1.68
		l1.57,5.09h0.07l1.57-5.09h1.68l-2.71,7.57c-0.39,1.08-1.09,1.72-2.36,1.72C78.37,41.34,78.06,41.33,77.86,41.3z"/>
	<path class="st1" d="M87.4,33.16c-0.68,0-1.18,0.34-1.17,0.8c-0.01,0.35,0.27,0.61,0.96,0.77l1.14,0.24
		c1.28,0.29,1.89,0.87,1.9,1.84c-0.01,1.27-1.12,2.15-2.88,2.15c-1.72,0-2.73-0.77-2.89-2.06h1.62c0.1,0.57,0.54,0.86,1.28,0.86
		c0.76,0,1.27-0.31,1.27-0.81c0-0.38-0.31-0.63-0.98-0.78l-1.08-0.24c-1.25-0.25-1.9-0.91-1.9-1.88c0-1.24,1.07-2.06,2.72-2.06
		c1.62,0,2.61,0.78,2.72,2.01h-1.5C88.49,33.48,88.07,33.16,87.4,33.16z"/>
	<path class="st1" d="M94.83,33.28H93.5v3.5c0,0.65,0.33,0.78,0.72,0.78c0.19,0,0.49-0.01,0.7-0.03v1.29
		c-0.19,0.04-0.5,0.06-0.9,0.06c-1.19,0-2.11-0.59-2.1-1.85v-3.76h-0.97v-1.22h0.97v-1.62h1.58v1.62h1.33V33.28z"/>
	<path class="st1" d="M95.71,35.48c0-2.09,1.27-3.51,3.19-3.51c1.65,0,3.08,1.03,3.08,3.41v0.5h-4.71c0.02,1.15,0.7,1.83,1.73,1.83
		c0.7,0,1.17-0.3,1.37-0.7h1.55c-0.29,1.17-1.37,1.94-2.93,1.94C96.95,38.94,95.71,37.59,95.71,35.48z M100.47,34.8
		c-0.01-0.92-0.62-1.59-1.54-1.59c-0.96,0-1.59,0.73-1.64,1.59H100.47z"/>
	<path class="st1" d="M103.24,32.06h1.52v1.14h0.09c0.27-0.77,0.96-1.23,1.85-1.23c0.92,0,1.57,0.46,1.83,1.23h0.08
		c0.3-0.75,1.04-1.23,2.02-1.23c1.23,0,2.1,0.8,2.1,2.3v4.53h-1.58v-4.28c0-0.85-0.51-1.22-1.16-1.22c-0.78,0-1.23,0.53-1.23,1.29
		v4.21h-1.54v-4.35c0-0.7-0.47-1.15-1.15-1.15s-1.24,0.56-1.24,1.4v4.1h-1.59L103.24,32.06L103.24,32.06z"/>
</g>
<linearGradient id="SVGID_00000114047981629875501990000002948597877491129531_" gradientUnits="userSpaceOnUse" x1="3.1441" y1="13.2282" x2="25.3115" y2="29.787" gradientTransform="matrix(1 0 0 -1 0 46)">
	<stop  offset="0" style="stop-color:#EEDA5D"/>
	<stop  offset="1" style="stop-color:#E22B03"/>
</linearGradient>
<path style="fill:url(#SVGID_00000114047981629875501990000002948597877491129531_);" d="M15.95,10.68
	c-7.16,0-12.43,5.31-12.43,12.56S8.79,35.8,15.95,35.8c7.04,0,12.32-5.31,12.32-12.56v-1.41H17.89c-1.25,0-2.26,1.01-2.26,2.26l0,0
	c0,1.25,1.01,2.26,2.26,2.26h4.84c-0.54,2.35-3.05,4.64-6.67,4.64c-4.22,0-7.36-3.26-7.36-7.75c0-4.46,3.14-7.66,7.36-7.66h1.2
	c1.35,0,2.45-1.1,2.45-2.45l0,0c0-1.36-1.11-2.46-2.47-2.45L15.95,10.68z"/>
<path class="st3" d="M22.69,21.83v4.49h5.23c0-0.01,0-0.02,0.01-0.03c0.16-0.73,0.27-1.48,0.31-2.26v-2.19L22.69,21.83L22.69,21.83z
	"/>
<linearGradient id="SVGID_00000087406433668086616160000005013026723227260351_" gradientUnits="userSpaceOnUse" x1="43.3994" y1="22.9235" x2="59.6911" y2="7.1659" gradientTransform="matrix(1 0 0 -1 0 46)">
	<stop  offset="1.821120e-03" style="stop-color:#00A4B0"/>
	<stop  offset="1" style="stop-color:#0C8DD7"/>
</linearGradient>
<path style="fill:url(#SVGID_00000087406433668086616160000005013026723227260351_);" d="M59.05,27.22h-0.09
	c-0.98,0-1.86-0.56-2.34-1.42c-0.7-1.25-2.08-1.97-4.02-1.97c-2.53,0-3.93,1.01-3.93,2.47c0,1.82,1.88,2.44,6.61,3.42
	c5.6,1.16,7.5,3.93,7.5,7.56c0,4.64-4.38,7.47-9.79,7.47c-4.16,0-7.54-1.57-9.3-4.26c-1.17-1.79,0.18-4.16,2.32-4.16l0,0
	c1,0,1.92,0.54,2.39,1.42c0.8,1.51,2.56,2.45,4.97,2.45c2.2,0,3.84-1.1,3.84-2.68c0-1.93-1.64-2.71-5.95-3.51
	c-5.27-0.98-8.13-3.16-8.13-7.71c0-4.38,4.35-7,9.82-7c3.55,0,6.51,1.42,8.21,3.69C62.46,24.74,61.22,27.22,59.05,27.22z"/>
<path class="st5" d="M48.67,26.3c0-0.02,0-0.04,0-0.06v-6.33c-3.3,1.01-5.54,3.25-5.54,6.39c0,0.01,0,0.01,0,0.02h5.54
	C48.67,26.31,48.67,26.31,48.67,26.3z"/>
<circle class="st6" cx="35.81" cy="29.74" r="2.4"/>
<circle class="st3" cx="17.34" cy="13.12" r="2.4"/>
<circle class="st7" cx="45.95" cy="39" r="2.65"/>
<linearGradient id="SVGID_00000035529715976487659380000001348775636903975564_" gradientUnits="userSpaceOnUse" x1="38.4133" y1="11.66" x2="43.2207" y2="11.66" gradientTransform="matrix(1 0 0 -1 0 46)">
	<stop  offset="1.821120e-03" style="stop-color:#00A4B0"/>
	<stop  offset="1" style="stop-color:#0C8DD7"/>
</linearGradient>
<circle style="fill:url(#SVGID_00000035529715976487659380000001348775636903975564_);" cx="40.82" cy="34.34" r="2.4"/>
</svg>
