<?xml version="1.0" encoding="utf-8"?>
<!-- Generator: Adobe Illustrator 28.4.1, SVG Export Plug-In . SVG Version: 6.00 Build 0)  -->
<svg version="1.1" xmlns="http://www.w3.org/2000/svg" xmlns:xlink="http://www.w3.org/1999/xlink" x="0px" y="0px"
	 viewBox="0 0 1000 580" style="enable-background:new 0 0 1000 580;" xml:space="preserve">
<style type="text/css">
	.st0{fill:url(#SVGID_1_);}
	.st1{fill:url(#SVGID_00000039126130517493554740000009186941404824692893_);}
	.st2{fill:url(#SVGID_00000085954156750631250090000014696115337119734430_);}
	.st3{fill:url(#SVGID_00000083072736373002143380000010007151534492080528_);}
	.st4{fill:url(#SVGID_00000066481484537904381030000011263111848908731275_);}
	.st5{fill:url(#SVGID_00000091714195465977177650000005572512790589603999_);}
	.st6{fill:url(#SVGID_00000170260429695577840800000007252880944586879147_);}
	.st7{fill:url(#SVGID_00000083781397455008495550000002722312007877156791_);}
	.st8{fill:url(#SVGID_00000031912891464164930300000011988480937929886134_);}
	.st9{fill:url(#SVGID_00000017506619411752980010000002700475853128380293_);}
	.st10{fill:url(#SVGID_00000103969008679039682560000013663740359418796196_);}
	.st11{fill:url(#SVGID_00000156571135433648570340000010425505362683299723_);}
	.st12{fill:url(#SVGID_00000060745833997229240320000004231808916931008134_);}
	.st13{fill:url(#SVGID_00000068643516090232252020000003906898996883612038_);}
	.st14{fill:url(#SVGID_00000117635825750872905860000014939804294972550572_);}
	.st15{fill:#F3EBD9;}
	.st16{fill:url(#SVGID_00000047026937068645944510000007112954068490779030_);}
	.st17{fill:url(#SVGID_00000045586778802189516090000009874300830824735935_);}
	.st18{fill:url(#SVGID_00000016797627343565980240000007323736278402162309_);}
	.st19{fill:url(#SVGID_00000102509200867634795720000005304069438602092424_);}
	.st20{fill:url(#SVGID_00000046299865570329481390000016184303162476863677_);}
	.st21{fill:url(#SVGID_00000016768067912640802010000002989058666336673722_);}
	.st22{fill:url(#SVGID_00000155834758752639372740000010670466758937114501_);}
	.st23{fill:url(#SVGID_00000065789127224142857440000004242932614766743468_);}
	.st24{fill:url(#SVGID_00000009581384307256774280000001826606485111540901_);}
	.st25{fill:url(#SVGID_00000026144383962397307790000002421201665359645609_);}
	.st26{fill:url(#SVGID_00000001648665188474285200000011810337882613683074_);}
	.st27{fill:url(#SVGID_00000160172760010988864270000018008402073883304383_);}
	.st28{fill:url(#SVGID_00000092432817464213985240000003794072837959954570_);}
	.st29{fill:url(#SVGID_00000085213354616348443300000010556731525410024601_);}
</style>
<g id="_x31_2">
</g>
<g id="_x31_1">
	<g>
		<linearGradient id="SVGID_1_" gradientUnits="userSpaceOnUse" x1="419.0527" y1="442.4586" x2="278.8315" y2="292.519">
			<stop  offset="0.1946" style="stop-color:#B0B8AC;stop-opacity:0"/>
			<stop  offset="1" style="stop-color:#B4BAAF;stop-opacity:0.5"/>
		</linearGradient>
		<path class="st0" d="M273.85,285.88c-1.87,1.97-3.65,4.02-5.35,6.14l132.43,132.43c2.12-1.7,4.17-3.48,6.14-5.35L273.85,285.88z"
			/>
		
			<linearGradient id="SVGID_00000046307748442354011730000013239637295931356589_" gradientUnits="userSpaceOnUse" x1="400.0473" y1="460.2321" x2="259.8261" y2="310.2926">
			<stop  offset="0.1946" style="stop-color:#B0B8AC;stop-opacity:0"/>
			<stop  offset="1" style="stop-color:#B4BAAF;stop-opacity:0.5"/>
		</linearGradient>
		<path style="fill:url(#SVGID_00000046307748442354011730000013239637295931356589_);" d="M258.49,307.4
			c-1.33,2.55-2.54,5.17-3.63,7.85l122.83,122.83c2.68-1.09,5.3-2.3,7.86-3.63L258.49,307.4z"/>
		
			<linearGradient id="SVGID_00000143591185730325378860000000852606314694528652_" gradientUnits="userSpaceOnUse" x1="409.5493" y1="451.346" x2="269.328" y2="301.4065">
			<stop  offset="0.1946" style="stop-color:#B0B8AC;stop-opacity:0"/>
			<stop  offset="1" style="stop-color:#B4BAAF;stop-opacity:0.5"/>
		</linearGradient>
		<path style="fill:url(#SVGID_00000143591185730325378860000000852606314694528652_);" d="M265.5,295.97
			c-1.61,2.25-3.12,4.57-4.53,6.96l129.05,129.05c2.39-1.41,4.71-2.92,6.96-4.53L265.5,295.97z"/>
		
			<linearGradient id="SVGID_00000062898832311434252100000015790229290357298610_" gradientUnits="userSpaceOnUse" x1="371.5748" y1="486.8592" x2="231.3536" y2="336.9196">
			<stop  offset="0.1946" style="stop-color:#B0B8AC;stop-opacity:0"/>
			<stop  offset="1" style="stop-color:#B4BAAF;stop-opacity:0.5"/>
		</linearGradient>
		<path style="fill:url(#SVGID_00000062898832311434252100000015790229290357298610_);" d="M247.94,352.16
			c0.06,4.23,0.4,8.4,1,12.48l79.36,79.36c4.08,0.6,8.25,0.94,12.48,1L247.94,352.16z"/>
		
			<linearGradient id="SVGID_00000095322923803685184400000014881799607305873553_" gradientUnits="userSpaceOnUse" x1="381.0551" y1="477.9934" x2="240.8338" y2="328.0538">
			<stop  offset="0.1946" style="stop-color:#B0B8AC;stop-opacity:0"/>
			<stop  offset="1" style="stop-color:#B4BAAF;stop-opacity:0.5"/>
		</linearGradient>
		<path style="fill:url(#SVGID_00000095322923803685184400000014881799607305873553_);" d="M249.24,335.03
			c-0.57,3.38-0.96,6.83-1.16,10.33l99.51,99.51c3.5-0.2,6.94-0.59,10.33-1.16L249.24,335.03z"/>
		
			<linearGradient id="SVGID_00000011736177531519358920000015455465204929023403_" gradientUnits="userSpaceOnUse" x1="390.5483" y1="469.1155" x2="250.3271" y2="319.1759">
			<stop  offset="0.1946" style="stop-color:#B0B8AC;stop-opacity:0"/>
			<stop  offset="1" style="stop-color:#B4BAAF;stop-opacity:0.5"/>
		</linearGradient>
		<path style="fill:url(#SVGID_00000011736177531519358920000015455465204929023403_);" d="M252.96,320.31
			c-1,2.91-1.85,5.89-2.56,8.92l113.31,113.31c3.03-0.71,6.01-1.57,8.92-2.56L252.96,320.31z"/>
		
			<linearGradient id="SVGID_00000160156515875816386100000014213596487486022821_" gradientUnits="userSpaceOnUse" x1="428.5564" y1="433.5709" x2="288.3351" y2="283.6313">
			<stop  offset="0.1946" style="stop-color:#B0B8AC;stop-opacity:0"/>
			<stop  offset="1" style="stop-color:#B4BAAF;stop-opacity:0.5"/>
		</linearGradient>
		<path style="fill:url(#SVGID_00000160156515875816386100000014213596487486022821_);" d="M283.47,277.06
			c-2.12,1.69-4.18,3.47-6.14,5.34l133.21,133.21c1.87-1.97,3.65-4.02,5.34-6.14L283.47,277.06z"/>
		
			<linearGradient id="SVGID_00000000180732875162550350000014396710671987622305_" gradientUnits="userSpaceOnUse" x1="487.0485" y1="378.8699" x2="346.8272" y2="228.9304">
			<stop  offset="0.1946" style="stop-color:#B0B8AC;stop-opacity:0"/>
			<stop  offset="1" style="stop-color:#B4BAAF;stop-opacity:0.5"/>
		</linearGradient>
		<path style="fill:url(#SVGID_00000000180732875162550350000014396710671987622305_);" d="M433.62,328.06
			c-8.37-33.78-34.96-60.37-68.74-68.74L433.62,328.06z"/>
		
			<linearGradient id="SVGID_00000098193144374578936840000011655839133816214433_" gradientUnits="userSpaceOnUse" x1="438.0596" y1="424.6836" x2="297.8384" y2="274.744">
			<stop  offset="0.1946" style="stop-color:#B0B8AC;stop-opacity:0"/>
			<stop  offset="1" style="stop-color:#B4BAAF;stop-opacity:0.5"/>
		</linearGradient>
		<path style="fill:url(#SVGID_00000098193144374578936840000011655839133816214433_);" d="M294.4,269.55
			c-2.39,1.41-4.71,2.91-6.96,4.52l131.44,131.44c1.61-2.25,3.11-4.57,4.52-6.96L294.4,269.55z"/>
		
			<linearGradient id="SVGID_00000076564005554658271240000000025280835131699103_" gradientUnits="userSpaceOnUse" x1="360.5185" y1="497.1989" x2="220.2972" y2="347.2594">
			<stop  offset="0.1946" style="stop-color:#B0B8AC;stop-opacity:0"/>
			<stop  offset="1" style="stop-color:#B4BAAF;stop-opacity:0.5"/>
		</linearGradient>
		<path style="fill:url(#SVGID_00000076564005554658271240000000025280835131699103_);" d="M250.63,373.29
			c8.32,33.97,35.06,60.7,69.02,69.02L250.63,373.29z"/>
		
			<linearGradient id="SVGID_00000066479796953088252130000010873626761709827984_" gradientUnits="userSpaceOnUse" x1="476.0338" y1="389.1707" x2="335.8125" y2="239.2312">
			<stop  offset="0.1946" style="stop-color:#B0B8AC;stop-opacity:0"/>
			<stop  offset="1" style="stop-color:#B4BAAF;stop-opacity:0.5"/>
		</linearGradient>
		<path style="fill:url(#SVGID_00000066479796953088252130000010873626761709827984_);" d="M356.21,257.61
			c-4.09-0.61-8.27-0.96-12.51-1.02l92.67,92.67c-0.07-4.24-0.41-8.42-1.02-12.51L356.21,257.61z"/>
		
			<linearGradient id="SVGID_00000085210932960677422230000001191059664114590129_" gradientUnits="userSpaceOnUse" x1="447.5616" y1="415.7975" x2="307.3404" y2="265.8579">
			<stop  offset="0.1946" style="stop-color:#B0B8AC;stop-opacity:0"/>
			<stop  offset="1" style="stop-color:#B4BAAF;stop-opacity:0.5"/>
		</linearGradient>
		<path style="fill:url(#SVGID_00000085210932960677422230000001191059664114590129_);" d="M306.74,263.45
			c-2.69,1.09-5.31,2.3-7.86,3.62l127,127c1.32-2.56,2.53-5.18,3.62-7.86L306.74,263.45z"/>
		
			<linearGradient id="SVGID_00000163768025329216451420000006497397373189017497_" gradientUnits="userSpaceOnUse" x1="457.0606" y1="406.9141" x2="316.8394" y2="256.9746">
			<stop  offset="0.1946" style="stop-color:#B0B8AC;stop-opacity:0"/>
			<stop  offset="1" style="stop-color:#B4BAAF;stop-opacity:0.5"/>
		</linearGradient>
		<path style="fill:url(#SVGID_00000163768025329216451420000006497397373189017497_);" d="M320.73,259.01
			c-3.04,0.71-6.02,1.56-8.93,2.55l119.59,119.59c0.99-2.92,1.84-5.9,2.55-8.93L320.73,259.01z"/>
		
			<linearGradient id="SVGID_00000007400788166867926460000001244898833469469070_" gradientUnits="userSpaceOnUse" x1="466.5537" y1="398.0363" x2="326.3325" y2="248.0968">
			<stop  offset="0.1946" style="stop-color:#B0B8AC;stop-opacity:0"/>
			<stop  offset="1" style="stop-color:#B4BAAF;stop-opacity:0.5"/>
		</linearGradient>
		<path style="fill:url(#SVGID_00000007400788166867926460000001244898833469469070_);" d="M336.87,256.71
			c-3.5,0.19-6.95,0.58-10.34,1.15l108.56,108.56c0.57-3.39,0.95-6.84,1.15-10.34L336.87,256.71z"/>
	</g>
</g>
<g id="_x31_0">
</g>
<g id="_x39_">
</g>
<g id="_x38_">
</g>
<g id="_x37__00000014600371437760975490000011603007339324135047_">
</g>
<g id="_x36_">
</g>
<g id="_x35_">
</g>
<g id="_x34_">
</g>
<g id="_x33_">
</g>
<g id="_x32_">
</g>
<g id="_x31_">
</g>
</svg>
