<?xml version="1.0" encoding="utf-8"?>
<!-- Generator: Adobe Illustrator 28.4.1, SVG Export Plug-In . SVG Version: 6.00 Build 0)  -->
<svg version="1.1" xmlns="http://www.w3.org/2000/svg" xmlns:xlink="http://www.w3.org/1999/xlink" x="0px" y="0px"
	 viewBox="0 0 1000 580" style="enable-background:new 0 0 1000 580;" xml:space="preserve">
<style type="text/css">
	.st0{fill:url(#SVGID_1_);}
	.st1{fill:url(#SVGID_00000041276744549106744610000008033934738971596700_);}
	.st2{fill:url(#SVGID_00000147942311737665947490000005932312637867050375_);}
	.st3{fill:url(#SVGID_00000026873715861617590750000001487661161019265679_);}
	.st4{fill:url(#SVGID_00000123406527288140485940000010633611025866236600_);}
	.st5{fill:url(#SVGID_00000182492517344596128780000001792830408877376959_);}
	.st6{fill:url(#SVGID_00000071556101735769217300000015853926676090529468_);}
	.st7{fill:url(#SVGID_00000141425974461674252820000012142915616913342336_);}
	.st8{fill:url(#SVGID_00000053520736804835104260000012572081640474062470_);}
	.st9{fill:url(#SVGID_00000099655291230086735970000016339365141056831108_);}
	.st10{fill:url(#SVGID_00000040533752726673195380000009326663488829475718_);}
	.st11{fill:url(#SVGID_00000155849486046923184440000010799872811242613389_);}
	.st12{fill:url(#SVGID_00000161621196778716633500000006647998229785431730_);}
	.st13{fill:url(#SVGID_00000069368248043159253530000006027951432126256053_);}
	.st14{fill:url(#SVGID_00000066485763324141389510000018108472651950371758_);}
	.st15{fill:#F3EBD9;}
	.st16{fill:url(#SVGID_00000066514307967916902430000009624840428560651438_);}
	.st17{fill:url(#SVGID_00000078730013287659043960000004637836695599976635_);}
	.st18{fill:url(#SVGID_00000165942668784459506670000010512138924457889441_);}
	.st19{fill:url(#SVGID_00000034082356471451739890000011827106581278772116_);}
	.st20{fill:url(#SVGID_00000120535805933490199620000017768902314557369991_);}
	.st21{fill:url(#SVGID_00000056392353099412480290000004794962380376743606_);}
	.st22{fill:url(#SVGID_00000055704951671188618350000004437569787735255728_);}
	.st23{fill:url(#SVGID_00000024711575163626646630000010584743543198657937_);}
	.st24{fill:url(#SVGID_00000059999596397323980480000012949603877142951817_);}
	.st25{fill:url(#SVGID_00000142156847292110188620000011877284764476576950_);}
	.st26{fill:url(#SVGID_00000106830188437842118470000017863490509172709282_);}
	.st27{fill:url(#SVGID_00000048479667023170267560000003117852821452634281_);}
	.st28{fill:url(#SVGID_00000161629878141036268310000009119511548858332581_);}
	.st29{fill:url(#SVGID_00000177484556376443145440000001871741037764481933_);}
</style>
<g id="_x31_2">
</g>
<g id="_x31_1">
</g>
<g id="_x31_0">
</g>
<g id="_x39_">
</g>
<g id="_x38_">
</g>
<g id="_x37__00000014600371437760975490000011603007339324135047_">
</g>
<g id="_x36_">
</g>
<g id="_x35_">
	<linearGradient id="SVGID_1_" gradientUnits="userSpaceOnUse" x1="661.2795" y1="264.4878" x2="707.0944" y2="157.5864">
		<stop  offset="1.821245e-03" style="stop-color:#ECC452"/>
		<stop  offset="1" style="stop-color:#E22E03"/>
	</linearGradient>
	<path class="st0" d="M762.53,227.75c-2.08-1.85-7.17,0.93-7.17,0.93s-12.26,7.17-18.51,9.95c-6.25,2.78-13.88-5.78-13.88-5.78
		s-17.59-25.22-20.82-30.77c-3.24-5.55-7.4-3.93-7.4-3.93l-17.12,1.39l0.93-2.55c0,0-2.31-2.78-1.62-3.47
		c0.69-0.69,4.86-3.93,3.47-4.86c0,0-2.55,0.23-4.63-1.85c-2.08-2.08-1.39-5.32-1.39-5.32s2.08-3.93,5.32-11.11
		c3.24-7.17,9.26-6.02,9.26-6.02l7.87,1.39l7.4-7.17c0,0,6.48-0.93,8.56-1.39s12.03-6.71,15.5-10.41c3.47-3.7,6.48-7.17,10.41-9.95
		c3.93-2.78,4.16-4.4,4.16-4.4l5.09-7.17l0.69-3.24c0,0,0,0,1.39-2.08s1.62-7.64,1.62-10.18s-1.39-3.7-1.39-3.7l-0.83-0.15
		c-2.1-7.01-8.6-12.11-16.29-12.11c-9.39,0-17.01,7.61-17.01,17.01c0,9.39,7.61,17.01,17.01,17.01c1.31,0,2.58-0.15,3.8-0.43
		c-1.19,2.75-4.1,6.63-11.2,9.22c-12.03,4.4-14.58,8.33-14.58,8.33l-2.78,0.46c0,0-10.64,0.69-16.66-0.23
		c-6.02-0.93-13.65-3.93-13.65-3.93l4.4-2.31l3.01,0.46c0,0,3.24,0.46,5.32,0c2.08-0.46,5.32,0.69,5.32,0.69l4.4,1.62
		c0,0,4.4,1.16,4.63,0.23c0.23-0.93-1.16-2.55-1.16-2.55s-2.78-0.93-5.32-1.85c-2.55-0.93-1.16-1.85-1.16-1.85s5.55-0.93,7.4-0.93
		s3.24-0.23,3.01-1.62c-0.23-1.39-2.55-1.39-2.55-1.39s-4.4,0.69-7.4,0.46c-3.01-0.23-1.16-1.62-1.16-1.62l7.87-3.01
		c0,0,3.24,0,3.01-1.85c-0.23-1.85-2.78-1.16-2.78-1.16l-6.94,1.16c0,0,1.85-1.39,3.93-3.24c2.08-1.85,1.62-3.24,1.62-3.24
		c-1.16-1.39-3.7,0.69-3.7,0.69s-4.4,3.01-7.87,4.86c-3.47,1.85-0.93-3.01-0.46-6.25c0.46-3.24-3.93-4.86-3.47-3.24
		c0.46,1.62-0.23,5.32-0.69,6.02c-0.46,0.69-2.08,2.08-4.16,5.32c-2.08,3.24-5.78,5.09-8.56,5.78c-2.78,0.69-4.16,0-4.16,0
		c1.39-3.24-1.39-8.79-1.39-8.79s4.4-3.93,0.69-4.63c-3.7-0.69-5.09-4.86-5.09-4.86s2.55-8.56-0.69-5.55
		c-3.24,3.01-10.88,1.16-16.66,3.93c-5.78,2.78-5.32,7.17-5.78,9.72s2.08,9.72,2.08,9.72l-2.31,1.62c0,0-7.4-5.09-12.96,0.46
		c-5.55,5.55-1.85,9.95-3.47,15.5s-1.39,9.49-0.93,14.58c0.46,5.09-0.69,10.41-4.16,18.51s-2.78,18.05-2.78,18.05l1.85,0.93
		c0,0-2.55,3.01-6.25,5.55c-3.7,2.55-3.47,8.79-3.7,9.72c-0.23,0.93-2.08,5.55-4.4,12.73c-2.31,7.17-9.02,9.95-9.02,9.95
		s6.94,6.48,5.32,7.64c-1.62,1.16-3.93,14.81-3.93,14.81s-4.16,13.42-6.48,18.51c-2.31,5.09-2.31,9.49-2.31,12.73
		s-3.47,24.76-3.47,24.76l-4.4,3.01c0,0,1.62,5.09-3.24,12.96c-4.86,7.87-6.25,15.97-5.78,18.05c0.46,2.08,6.71,3.7,11.11-0.46
		c4.4-4.17,4.16-11.8,6.48-13.65c2.31-1.85,3.93-3.01,3.93-3.01s1.62-4.17,0.93-6.71c-0.69-2.55-0.69-6.25-0.93-9.95
		c-0.23-3.7,5.78-16.89,8.56-22.21c2.78-5.32,1.62-11.8,1.62-11.8l18.74-23.6l5.09-1.85c0,0,1.62-0.93,6.71-3.7
		c5.09-2.78,6.71-9.95,6.71-9.95s2.78-10.88,6.71-10.18c3.93,0.69,18.97-2.78,18.97-2.78l1.16-3.7
		c7.17-1.85,23.14-12.26,23.14-12.26s0.23,1.16,4.4,8.56c4.16,7.4,24.99,19.67,26.61,20.59c1.62,0.93,4.4,9.26,4.4,9.26
		s3.01,12.73,8.1,12.03c5.09-0.69,12.03-7.64,12.03-7.64l0.23-4.63l3.93-1.16c0,0,6.48-4.63,9.95-9.72
		C763.22,238.4,764.61,229.6,762.53,227.75z"/>
</g>
<g id="_x34_">
</g>
<g id="_x33_">
</g>
<g id="_x32_">
</g>
<g id="_x31_">
</g>
</svg>
