<?xml version="1.0" encoding="utf-8"?>
<!-- Generator: Adobe Illustrator 28.4.1, SVG Export Plug-In . SVG Version: 6.00 Build 0)  -->
<svg version="1.1" xmlns="http://www.w3.org/2000/svg" xmlns:xlink="http://www.w3.org/1999/xlink" x="0px" y="0px"
	 viewBox="0 0 1000 580" style="enable-background:new 0 0 1000 580;" xml:space="preserve">
<style type="text/css">
	.st0{fill:url(#SVGID_1_);}
	.st1{fill:url(#SVGID_00000159464488618882148460000000424954037265593228_);}
	.st2{fill:url(#SVGID_00000011753012381867850900000009276760906806736544_);}
	.st3{fill:url(#SVGID_00000044166706659168532620000003194127165107546798_);}
	.st4{fill:url(#SVGID_00000147899713677831273550000014835602204974586770_);}
	.st5{fill:url(#SVGID_00000028302072582315625440000014121798846004400795_);}
	.st6{fill:url(#SVGID_00000098922729002949975860000006881980585863585695_);}
	.st7{fill:url(#SVGID_00000142876774708426448020000002468886248970513809_);}
	.st8{fill:url(#SVGID_00000141426062377802215520000002793082713697231802_);}
	.st9{fill:url(#SVGID_00000008119438975031256260000016459850527259628991_);}
	.st10{fill:url(#SVGID_00000155132134707209699220000015721912264774707102_);}
	.st11{fill:url(#SVGID_00000155847598796370452780000011995956714727075497_);}
	.st12{fill:url(#SVGID_00000109739814645179484340000016807379363068480914_);}
	.st13{fill:url(#SVGID_00000144305063668535594630000002324019422213707956_);}
	.st14{fill:url(#SVGID_00000006671700408576799180000003243951868567545004_);}
	.st15{fill:#F3EBD9;}
	.st16{fill:url(#SVGID_00000176754637674145932320000005038260804143577759_);}
	.st17{fill:url(#SVGID_00000080908649644925122360000001720754663796899755_);}
	.st18{fill:url(#SVGID_00000096758401171839873960000009550002334069873071_);}
	.st19{fill:url(#SVGID_00000066510403078965297290000004039773859861815965_);}
	.st20{fill:url(#SVGID_00000116927890043075426950000001384450788775539333_);}
	.st21{fill:url(#SVGID_00000120524197624374607170000005304408308137607354_);}
	.st22{fill:url(#SVGID_00000036963965369517943910000016805414137691998137_);}
	.st23{fill:url(#SVGID_00000013877010627931778360000018281578239503023248_);}
	.st24{fill:url(#SVGID_00000026155705492758344350000011017368826679075512_);}
	.st25{fill:url(#SVGID_00000155848536940295098380000008777882270333475755_);}
	.st26{fill:url(#SVGID_00000078735037117871897540000005881482415381750434_);}
	.st27{fill:url(#SVGID_00000018198496872758486910000013164613231257890178_);}
	.st28{fill:url(#SVGID_00000048462750747207693090000010737482066220547756_);}
	.st29{fill:url(#SVGID_00000098217465034879318620000009376761216314246572_);}
</style>
<g id="_x31_2">
</g>
<g id="_x31_1">
</g>
<g id="_x31_0">
</g>
<g id="_x39_">
</g>
<g id="_x38_">
</g>
<g id="_x37__00000014600371437760975490000011603007339324135047_">
</g>
<g id="_x36_">
</g>
<g id="_x35_">
</g>
<g id="_x34_">
	<linearGradient id="SVGID_1_" gradientUnits="userSpaceOnUse" x1="755.017" y1="316.7007" x2="796.6668" y2="486.0768">
		<stop  offset="1.821120e-03" style="stop-color:#BACE49"/>
		<stop  offset="1" style="stop-color:#69B186"/>
	</linearGradient>
	<path class="st0" d="M833.27,396.26c-1.21-2.43-2.43-7.46-2.43-7.46l-0.52-1.91l1.21-2.26c0,0,1.04-1.74,1.39-3.64
		c0.35-1.91,0,0-0.87-4.69c-0.87-4.69-4.51-13.54-4.51-13.54c-5.03-16.83-20.13-35.23-21.69-36.62c-1.56-1.39-1.21-2.95-1.21-2.95
		s5.21-3.3,9.02-7.29c3.82-3.99,3.3-6.59,3.3-6.59c2.08-8.5,1.21-16.14,0.17-22.04c-1.04-5.9-1.74-10.24-1.74-10.24v-1.91
		l-0.69-7.91l1.27,0.33c0,0,1.85,0.58,2.2-1.16c0.35-1.74-0.93-2.31-0.93-2.31l-2.37-0.42l-0.17-1.9l-2.26-1.74c0,0,0,0-0.35-0.52
		c-0.35-0.52-1.21,0-1.21,0l-1.74-1.39l-1.56,0.35l-2.26-1.21l-1.74,0.69l-2.08-1.04l-2.43,0.17l-1.74-0.87l-2.43,0.35l-2.08-1.04
		l-2.43,0.52l-2.08-0.87l-1.39,0.35c-2.43-0.35,0,3.82,0,3.82l-114.19-20.82c0,0-8.33,5.21-9.72,6.94s-0.69,6.25,3.82,8.68
		c4.51,2.43,6.94-2.43,6.94-2.43l1.04-10.41l113.5,20.82c1.04,0.35,1.85,3.36,2.55,5.21c0.69,1.85,3.82,2.2,3.82,2.2
		s2.14,5.96,1.1,10.3c-1.04,4.34-0.35,11.63-0.52,14.58c-0.17,2.95-3.47,9.2-3.47,9.2s-6.42,4.69-8.16,5.21
		c-1.74,0.52-3.12-2.95-3.12-2.95s-0.69-3.64-0.87-6.07c-0.17-2.43-6.07-9.02-6.07-9.02l2.78-0.17l0.35-1.21
		c0,0-1.39-0.52-3.64-0.87c-2.26-0.35-2.78-1.56-2.78-1.56c-3.12-4.51-6.77-4.69-6.77-4.69c-7.29-2.78-13.02,1.91-13.02,1.91
		s-0.87-0.35-1.74,0.17c-0.87,0.52-0.69,1.91-0.69,1.91c-6.94,6.25-3.3,14.23-3.3,14.23l5.21,7.81c0,0,0,0,0.87,2.6
		s7.12,3.12,7.12,3.12l1.74,2.26c0,0-2.08,2.6-3.3,4.86c-1.21,2.26,0.52,3.99,0.52,3.99s2.08,1.21,2.95,1.56
		c0.87,0.35,1.21,1.04,1.74,2.08c0.52,1.04,2.08,5.03,6.07,12.49c3.99,7.46,6.59,13.71,8.33,19.96
		c1.74,6.25,10.76,17.01,10.76,17.01s0,3.99,0.87,5.9c0.87,1.91,1.04,1.21,0.69,2.6c-0.35,1.39-2.08,1.74-2.08,1.74l-1.56,2.43
		c-8.16,5.38-3.99,11.8-5.55,13.54c-1.56,1.74-1.04,3.99-1.39,7.81c-0.35,3.82,1.39,3.99,1.56,4.51c0.17,0.52,0,4.69,0,5.9
		c0,1.21,0.69,2.08,1.04,2.95c0.35,0.87,0,1.39,0.17,4.51c0.17,3.12-1.74,18.22-1.74,18.22s-0.69,0.52-3.82,2.6
		c-3.12,2.08-2.26,3.82-2.26,3.82s-1.91,4.51-2.6,4.86s-3.82,1.56-6.25,5.9c-2.43,4.34-14.23,19.26-14.23,19.26l-6.42,7.12
		l-2.26-1.21c-3.99-0.87-5.38,6.77-6.25,14.23c-0.87,7.46-2.95,5.73-2.6,17.87c0.35,12.15,10.24,11.8,13.88,11.63
		c3.64-0.17,2.43-2.6,2.43-2.6s-1.56-3.3-1.39-7.98c0.17-4.69,3.82-6.59,3.82-6.59l2.78-4.34l-0.35-1.91c0,0,1.56-1.74,18.4-17.87
		c16.83-16.14,32.63-35.75,32.63-35.75s-0.69,14.23-0.35,19.78c0.35,5.55-1.04,32.11-1.21,37.14c-0.17,5.03,1.74,4.34,1.56,6.07
		c-0.17,1.74-3.3,3.12-3.3,3.12s-4.86-2.43-6.42,1.21s-1.74,6.59,9.2,10.93c10.93,4.34,13.71-1.39,14.06-2.6
		c0.35-1.21,2.26-7.12,3.82-8.16c1.56-1.04,1.74-5.55,1.21-6.59s-0.17-7.98,1.56-19.09c1.74-11.11,2.43-24.3,1.56-28.11
		c-0.87-3.82-0.69-9.37,0.52-11.28c1.21-1.91,1.39-3.99,1.39-4.69s0.17-2.78,0.17-2.78l1.39-2.78c0,0,0.87-2.43,1.56-7.81
		c0.69-5.38,3.64-17.35,4.69-26.73C836.75,405.63,834.49,398.69,833.27,396.26z"/>
</g>
<g id="_x33_">
</g>
<g id="_x32_">
</g>
<g id="_x31_">
</g>
</svg>
