<?xml version="1.0" encoding="utf-8"?>
<!-- Generator: Adobe Illustrator 28.4.1, SVG Export Plug-In . SVG Version: 6.00 Build 0)  -->
<svg version="1.1" xmlns="http://www.w3.org/2000/svg" xmlns:xlink="http://www.w3.org/1999/xlink" x="0px" y="0px"
	 viewBox="0 0 1000 580" style="enable-background:new 0 0 1000 580;" xml:space="preserve">
<style type="text/css">
	.st0{fill:url(#SVGID_1_);}
	.st1{fill:url(#SVGID_00000158722420611041389370000001360906452544387243_);}
	.st2{fill:url(#SVGID_00000163753304884345286410000003040786097774155426_);}
	.st3{fill:url(#SVGID_00000011713611239020554870000013369675052609764524_);}
	.st4{fill:url(#SVGID_00000174560226829781806240000008689290574516518278_);}
	.st5{fill:url(#SVGID_00000168815420523266047610000003734594270287948733_);}
	.st6{fill:url(#SVGID_00000071528347092885883380000006572793280302150029_);}
	.st7{fill:url(#SVGID_00000117670221439432210650000006358381564487699382_);}
	.st8{fill:url(#SVGID_00000176755548500239696910000004232841482256497303_);}
	.st9{fill:url(#SVGID_00000162354042218507610850000017969010153539140255_);}
	.st10{fill:url(#SVGID_00000151528657172957329130000004738241763542798263_);}
	.st11{fill:url(#SVGID_00000075861489816131337140000011760054234764338874_);}
	.st12{fill:url(#SVGID_00000040533655302917520320000002334375087677397148_);}
	.st13{fill:url(#SVGID_00000003816133980939233790000016823156816646818475_);}
	.st14{fill:url(#SVGID_00000104685823632128385960000003487477719746790835_);}
	.st15{fill:#F3EBD9;}
	.st16{fill:url(#SVGID_00000001642858844663303270000016624887331561013914_);}
	.st17{fill:url(#SVGID_00000113328548039334696130000016550358975013440672_);}
	.st18{fill:url(#SVGID_00000139261985230056528760000010588528167655710910_);}
	.st19{fill:url(#SVGID_00000082341943304695879920000003087392877068754109_);}
	.st20{fill:url(#SVGID_00000128482179459361311030000017498551411882666409_);}
	.st21{fill:url(#SVGID_00000156571477003870241250000002607530669242348713_);}
	.st22{fill:url(#SVGID_00000126322790895799475400000000280434304670907025_);}
	.st23{fill:url(#SVGID_00000093868308784097798340000008173184205393417623_);}
	.st24{fill:url(#SVGID_00000175296670768260029660000015557529372840125336_);}
	.st25{fill:url(#SVGID_00000145054932463659010080000005197243012513290370_);}
	.st26{fill:url(#SVGID_00000098941018298911191240000001994755060840028334_);}
	.st27{fill:url(#SVGID_00000093873480050760400270000010260603443474947243_);}
	.st28{fill:url(#SVGID_00000000945252594179517500000007988333192342904242_);}
	.st29{fill:url(#SVGID_00000108997704717322375760000017105395672945749129_);}
</style>
<g id="_x31_2">
	<g>
		<linearGradient id="SVGID_1_" gradientUnits="userSpaceOnUse" x1="310.7082" y1="622.2637" x2="117.0363" y2="178.6925">
			<stop  offset="0.1946" style="stop-color:#B0B8AC;stop-opacity:0"/>
			<stop  offset="1" style="stop-color:#B4BAAF;stop-opacity:0.5"/>
		</linearGradient>
		<path class="st0" d="M202.11,237.07c18.43,0,36.3,3.6,53.11,10.71c16.25,6.87,30.84,16.71,43.38,29.25
			c12.54,12.54,22.38,27.14,29.26,43.38c7.11,16.81,10.71,34.68,10.71,53.11s-3.6,36.3-10.71,53.11
			c-6.87,16.25-16.71,30.84-29.26,43.38c-12.54,12.54-27.14,22.38-43.38,29.25c-16.81,7.11-34.68,10.71-53.11,10.71
			s-36.3-3.6-53.11-10.71c-16.25-6.87-30.84-16.71-43.38-29.25c-12.54-12.54-22.38-27.14-29.26-43.38
			c-7.11-16.81-10.71-34.68-10.71-53.11s3.6-36.3,10.71-53.11c6.87-16.25,16.71-30.84,29.26-43.38
			c12.54-12.54,27.14-22.38,43.38-29.25C165.8,240.67,183.67,237.07,202.11,237.07 M202.11,212.48
			c-88.94,0-161.05,72.1-161.05,161.05s72.1,161.05,161.05,161.05c88.94,0,161.05-72.1,161.05-161.05S291.05,212.48,202.11,212.48
			L202.11,212.48z"/>
	</g>
</g>
<g id="_x31_1">
</g>
<g id="_x31_0">
</g>
<g id="_x39_">
</g>
<g id="_x38_">
</g>
<g id="_x37__00000014600371437760975490000011603007339324135047_">
</g>
<g id="_x36_">
</g>
<g id="_x35_">
</g>
<g id="_x34_">
</g>
<g id="_x33_">
</g>
<g id="_x32_">
</g>
<g id="_x31_">
</g>
</svg>
