<svg width="32" height="32" viewBox="0 0 32 32" fill="none" xmlns="http://www.w3.org/2000/svg">
    <path d="M25.572 28.5329C24.3943 28.5329 23.3552 27.916 22.801 26.8193L13.2408 7.90145C12.4788 6.3935 13.1023 4.54284 14.6264 3.78886C16.1504 3.03489 18.0209 3.65178 18.7829 5.15972L28.3431 24.0776C29.1051 25.5856 28.4817 27.4362 26.9576 28.1902C26.5419 28.4644 26.057 28.5329 25.572 28.5329Z" fill="#3D5588"/>
    <path d="M16.0119 28.5329C14.8342 28.5329 13.795 27.916 13.2408 26.8193L3.68066 7.90145C2.91862 6.3935 3.5421 4.54284 5.06619 3.78886C6.59027 3.03489 8.46074 3.65178 9.22278 5.15972L18.7829 24.0776C19.545 25.5856 18.9215 27.4362 17.3974 28.1902C16.9818 28.4644 16.4968 28.5329 16.0119 28.5329Z" fill="#D05559"/>
    <path d="M25.572 13.4534L28.2738 8.03853C29.0359 6.59913 28.6202 4.74847 27.2347 3.92595C25.6413 2.96635 23.6323 3.58323 22.801 5.15972C22.3853 6.05078 22.3853 7.07893 22.801 7.90145L25.572 13.4534Z" fill="#D05559"/>
    <path d="M6.45172 18.5256L3.68066 23.9405C2.98789 25.3114 3.33427 27.0935 4.65053 27.9846C5.20474 28.3273 5.82823 28.5329 6.45172 28.5329C7.62942 28.5329 8.66857 27.916 9.22278 26.8193C9.63844 25.9283 9.63844 24.9001 9.22278 24.0091L6.45172 18.5256Z" fill="#3D5588"/>
</svg>
