<svg width="40" height="40" viewBox="0 0 40 40" fill="none" xmlns="http://www.w3.org/2000/svg">
<g clip-path="url(#clip0_1401_2131)">
<path d="M20.59 6C20.41 6 20.22 6 20.03 6.02C15.1 6.41 16.41 11.63 16.33 13.37C16.24 14.64 15.98 15.65 15.1 16.89C14.07 18.12 12.62 20.1 11.93 22.16C11.61 23.13 11.45 24.12 11.6 25.06C11.55 25.1 11.51 25.14 11.47 25.22C11.17 25.53 10.95 25.92 10.7 26.2C10.47 26.43 10.13 26.51 9.76995 26.67C9.39995 26.83 8.99995 26.98 8.75995 27.46C8.65995 27.68 8.59995 27.92 8.60995 28.16C8.60995 28.39 8.63995 28.63 8.66995 28.79C8.73995 29.26 8.80995 29.64 8.71995 29.92C8.42995 30.71 8.38995 31.26 8.59995 31.65C8.79995 32.04 9.21995 32.2 9.69995 32.35C10.65 32.58 11.93 32.51 12.94 33.05C14.02 33.59 15.12 33.83 15.99 33.6C16.6 33.47 17.12 33.06 17.4 32.5C18.08 32.5 18.83 32.19 20.04 32.11C20.86 32.04 21.88 32.42 23.05 32.34C23.08 32.5 23.12 32.57 23.18 32.73C23.64 33.64 24.48 34.05 25.38 33.98C26.28 33.91 27.24 33.35 28.01 32.46C28.75 31.57 29.97 31.2 30.78 30.71C31.19 30.48 31.51 30.16 31.54 29.72C31.57 29.25 31.31 28.77 30.71 28.11V28C30.51 27.76 30.42 27.37 30.32 26.92C30.22 26.45 30.11 26 29.75 25.7C29.68 25.64 29.61 25.62 29.53 25.54C29.46 25.5 29.39 25.47 29.31 25.47C29.81 23.98 29.62 22.5 29.11 21.16C28.49 19.52 27.4 18.08 26.57 17.1C25.64 15.93 24.73 14.82 24.75 13.17C24.78 10.66 25.03 6.02 20.62 6.01L20.59 6ZM21.21 9.97H21.23C21.48 9.97 21.69 10.04 21.91 10.2C22.13 10.36 22.29 10.59 22.42 10.82C22.54 11.12 22.6 11.36 22.61 11.66C22.61 11.64 22.61 11.61 22.61 11.59V11.71V11.69V11.66C22.61 11.94 22.54 12.22 22.43 12.48C22.38 12.63 22.29 12.76 22.18 12.87C22.15 12.85 22.11 12.84 22.08 12.82C21.96 12.77 21.85 12.75 21.75 12.66C21.67 12.63 21.58 12.6 21.49 12.58C21.55 12.51 21.66 12.42 21.7 12.35C21.76 12.2 21.8 12.04 21.8 11.88V11.86C21.8 11.7 21.78 11.54 21.73 11.39C21.68 11.23 21.61 11.16 21.52 11C21.42 10.92 21.33 10.85 21.21 10.85H21.19C21.08 10.85 20.98 10.88 20.88 11C20.77 11.11 20.69 11.24 20.64 11.39C20.58 11.54 20.54 11.7 20.54 11.86V11.88C20.54 11.98 20.54 12.09 20.56 12.19C20.33 12.11 20.05 12.03 19.85 11.95C19.84 11.87 19.83 11.8 19.83 11.72V11.7C19.83 11.39 19.88 11.09 20 10.8C20.1 10.54 20.27 10.33 20.5 10.18C20.7 10.03 20.94 9.95 21.19 9.95L21.21 9.97ZM17.75 10.04H17.79C17.96 10.04 18.1 10.1 18.26 10.2C18.43 10.35 18.57 10.54 18.66 10.74C18.76 10.97 18.82 11.21 18.84 11.52C18.84 11.68 18.84 11.76 18.84 11.83V11.92C18.84 11.92 18.77 11.94 18.74 11.95C18.56 12.01 18.42 12.11 18.28 12.18C18.29 12.08 18.3 11.97 18.28 11.87V11.85C18.27 11.69 18.23 11.62 18.18 11.46C18.14 11.34 18.08 11.23 17.99 11.15C17.93 11.1 17.86 11.07 17.78 11.08H17.76C17.68 11.08 17.61 11.13 17.54 11.23C17.47 11.32 17.42 11.43 17.4 11.54C17.37 11.67 17.36 11.8 17.37 11.93V11.95C17.38 12.11 17.41 12.18 17.46 12.34C17.51 12.5 17.57 12.57 17.65 12.65C17.66 12.66 17.67 12.67 17.69 12.68C17.61 12.75 17.55 12.76 17.48 12.84C17.44 12.87 17.39 12.91 17.33 12.92C17.21 12.77 17.1 12.62 17.01 12.45C16.9 12.21 16.84 11.94 16.83 11.67C16.81 11.41 16.84 11.14 16.92 10.89C16.98 10.66 17.1 10.45 17.25 10.27C17.4 10.11 17.55 10.04 17.74 10.04H17.75ZM19.35 12.03C19.74 12.03 20.2 12.11 20.77 12.5C21.11 12.73 21.38 12.81 22 13.05C22.3 13.21 22.47 13.36 22.56 13.52V13.37C22.65 13.54 22.65 13.74 22.58 13.92C22.44 14.28 21.98 14.67 21.34 14.9C21.03 15.06 20.76 15.29 20.44 15.44C20.12 15.6 19.75 15.78 19.26 15.75C19.08 15.75 18.9 15.73 18.74 15.67C18.61 15.6 18.49 15.52 18.36 15.44C18.13 15.28 17.94 15.05 17.65 14.9C17.18 14.61 16.93 14.3 16.85 14.07C16.77 13.76 16.85 13.52 17.08 13.37C17.34 13.21 17.52 13.05 17.64 12.98C17.76 12.89 17.81 12.86 17.85 12.83C18.05 12.59 18.36 12.28 18.83 12.13C18.99 12.09 19.17 12.05 19.37 12.05L19.35 12.03ZM22.62 14.53C23.04 16.18 24.02 18.58 24.64 19.75C24.97 20.37 25.64 21.69 25.93 23.28C26.11 23.28 26.31 23.3 26.53 23.35C27.28 21.4 25.89 19.31 25.26 18.72C25 18.49 24.99 18.33 25.12 18.33C25.81 18.95 26.71 20.16 27.04 21.55C27.19 22.17 27.23 22.84 27.06 23.5C27.14 23.53 27.22 23.57 27.3 23.58C28.5 24.2 28.95 24.67 28.73 25.37V25.32C28.66 25.32 28.59 25.32 28.52 25.32H28.5C28.68 24.78 28.29 24.36 27.26 23.89C26.19 23.42 25.34 23.5 25.19 24.43C25.19 24.48 25.18 24.51 25.17 24.59C25.09 24.62 25.01 24.65 24.93 24.66C24.43 24.97 24.16 25.44 24.01 26.04C23.86 26.66 23.81 27.39 23.77 28.22C23.75 28.61 23.57 29.2 23.4 29.8C21.65 31.05 19.22 31.59 17.16 30.19C17.03 29.96 16.87 29.75 16.69 29.57C16.6 29.42 16.49 29.29 16.37 29.18C16.58 29.18 16.76 29.15 16.91 29.1C17.08 29.02 17.21 28.88 17.28 28.71C17.41 28.4 17.28 27.9 16.88 27.35C16.48 26.81 15.79 26.19 14.79 25.58C14.06 25.11 13.64 24.57 13.45 23.95C13.26 23.33 13.28 22.68 13.43 22.03C13.72 20.78 14.45 19.57 14.92 18.81C15.04 18.73 14.96 18.97 14.44 19.95C13.98 20.83 13.11 22.86 14.3 24.45C14.34 23.3 14.6 22.16 15.05 21.1C15.71 19.61 17.08 17.01 17.19 14.96C17.25 15 17.44 15.12 17.53 15.2C17.78 15.36 17.97 15.59 18.22 15.74C18.47 15.97 18.78 16.13 19.24 16.13C19.29 16.13 19.33 16.13 19.37 16.13C19.85 16.13 20.22 15.97 20.53 15.82C20.87 15.66 21.14 15.43 21.39 15.35C21.93 15.19 22.37 14.88 22.61 14.53H22.62ZM25.17 24.98C25.21 25.68 25.57 26.43 26.2 26.59C26.89 26.75 27.87 26.2 28.29 25.7H28.54C28.91 25.68 29.21 25.7 29.53 26C29.77 26.24 29.89 26.62 29.99 27.03C30.09 27.5 30.17 27.94 30.47 28.27C31.04 28.88 31.22 29.33 31.21 29.6V29.61C31.19 29.9 30.99 30.06 30.63 30.29C29.9 30.76 28.59 31.12 27.76 32.12C27.04 32.98 26.16 33.45 25.39 33.51C24.62 33.57 23.95 33.28 23.55 32.46C23.31 31.99 23.41 31.26 23.62 30.49C23.83 29.71 24.12 28.92 24.16 28.28C24.2 27.45 24.25 26.72 24.39 26.16C24.53 25.62 24.75 25.23 25.14 25.01L25.19 24.98H25.17ZM12.55 25.04H12.56C12.62 25.04 12.68 25.04 12.74 25.06C13.18 25.12 13.56 25.45 13.93 25.94L14.99 27.88C15.27 28.51 15.87 29.12 16.38 29.79C16.89 30.49 17.28 31.11 17.23 31.62C17.16 32.49 16.67 32.97 15.92 33.14C15.17 33.3 14.15 33.14 13.13 32.6C12 31.97 10.66 32.05 9.79995 31.9C9.36995 31.82 9.08995 31.67 8.95995 31.43C8.82995 31.2 8.82995 30.73 9.09995 30C9.23995 29.61 9.12995 29.12 9.06995 28.69C9.00995 28.22 8.96995 27.86 9.11995 27.59C9.30995 27.2 9.57995 27.12 9.91995 26.97C10.26 26.81 10.67 26.73 10.99 26.42C11.29 26.1 11.51 25.72 11.77 25.44C11.99 25.21 12.21 25.05 12.54 25.05L12.55 25.04ZM20.9 14.45C20.39 14.68 19.8 15.07 19.16 15.07C18.52 15.07 18.03 14.76 17.67 14.53C17.49 14.37 17.34 14.22 17.23 14.14C17.04 13.98 17.06 13.75 17.14 13.75C17.27 13.77 17.29 13.91 17.37 13.98C17.48 14.06 17.62 14.21 17.79 14.37C18.13 14.6 18.58 14.91 19.15 14.91C19.72 14.91 20.38 14.6 20.78 14.37C21.01 14.21 21.3 13.98 21.54 13.83C21.72 13.67 21.71 13.52 21.87 13.52C22.02 13.54 21.91 13.68 21.7 13.91C21.49 14.07 21.16 14.3 20.9 14.46V14.45ZM19.64 12.6V12.57C19.64 12.57 19.66 12.52 19.67 12.51C19.76 12.46 19.88 12.48 19.97 12.51C20.04 12.51 20.16 12.59 20.14 12.67C20.14 12.73 20.04 12.75 19.98 12.75C19.92 12.75 19.87 12.7 19.82 12.67C19.76 12.65 19.65 12.67 19.63 12.59L19.64 12.6ZM19 12.6C18.98 12.67 18.87 12.66 18.81 12.68C18.76 12.71 18.71 12.76 18.65 12.76C18.59 12.76 18.5 12.74 18.49 12.68C18.48 12.6 18.59 12.52 18.66 12.52C18.75 12.48 18.87 12.47 18.96 12.52C18.98 12.53 19 12.55 18.99 12.58V12.6H19Z" fill="#1E1E1E"/>
</g>
<defs>
<clipPath id="clip0_1401_2131">
<rect width="23.06" height="28" fill="white" transform="translate(8.46997 6)"/>
</clipPath>
</defs>
</svg>
