<svg width="40" height="40" viewBox="0 0 40 40" fill="none" xmlns="http://www.w3.org/2000/svg">
<g clip-path="url(#clip0_1403_1987)">
<path d="M26.55 20.75C26.58 24.38 29.74 25.59 29.77 25.61C29.74 25.7 29.27 27.33 28.11 29.02C27.11 30.48 26.07 31.94 24.44 31.97C22.83 32 22.32 31.02 20.48 31.02C18.64 31.02 18.07 31.94 16.55 32C14.97 32.06 13.77 30.42 12.76 28.96C10.69 25.98 9.11996 20.54 11.23 16.87C12.28 15.05 14.16 13.89 16.2 13.86C17.75 13.83 19.21 14.9 20.16 14.9C21.11 14.9 22.89 13.61 24.75 13.8C25.53 13.83 27.73 14.12 29.14 16.18C29.03 16.25 26.52 17.71 26.55 20.75ZM23.53 11.83C24.37 10.82 24.93 9.4 24.78 8C23.57 8.05 22.11 8.81 21.24 9.82C20.46 10.72 19.78 12.16 19.97 13.53C21.32 13.63 22.69 12.85 23.53 11.83Z" fill="white"/>
</g>
<defs>
<clipPath id="clip0_1403_1987">
<rect width="19.54" height="24" fill="white" transform="translate(10.23 8)"/>
</clipPath>
</defs>
</svg>
