<svg width="40" height="40" viewBox="0 0 40 40" fill="none" xmlns="http://www.w3.org/2000/svg">
<g clip-path="url(#clip0_1403_1981)">
<path d="M19.02 10.03V19.21C19.02 19.32 19.11 19.41 19.22 19.41H31.81C31.92 19.41 32.01 19.32 32.01 19.21V8.2C32.01 8.14 31.99 8.09 31.94 8.05C31.9 8.01 31.84 8 31.78 8L19.19 9.83C19.09 9.84 19.02 9.93 19.02 10.02V10.03Z" fill="white"/>
<path d="M17.64 30.0301C17.64 30.0301 17.73 30.0101 17.77 29.9801C17.81 29.9401 17.84 29.8901 17.84 29.8301V20.7801C17.84 20.6701 17.75 20.5801 17.64 20.5801H8.2C8.15 20.5801 8.1 20.6001 8.06 20.6401C8.02 20.6801 8 20.7301 8 20.7801V28.5301C8 28.6301 8.07 28.7101 8.17 28.7201L17.61 30.0101C17.61 30.0101 17.63 30.0101 17.64 30.0101V30.0301Z" fill="white"/>
<path d="M8.21 19.4096H17.64C17.75 19.4096 17.84 19.3196 17.84 19.2096V10.2596C17.84 10.1996 17.82 10.1496 17.77 10.1096C17.73 10.0696 17.67 10.0596 17.61 10.0596L8.17 11.3396C8.07 11.3596 8 11.4396 8 11.5396V19.2096C8 19.3196 8.1 19.4096 8.21 19.4096Z" fill="white"/>
<path d="M31.8 32.0001C31.8 32.0001 31.89 31.9801 31.93 31.9501C31.97 31.9101 32 31.8601 32 31.8001V20.7801C32 20.7301 31.98 20.6801 31.95 20.6401C31.91 20.6001 31.86 20.5801 31.81 20.5801H19.22C19.11 20.5801 19.02 20.6701 19.02 20.7801V30.0301C19.02 30.1301 19.09 30.2101 19.19 30.2201L31.78 31.9901C31.78 31.9901 31.8 31.9901 31.81 31.9901L31.8 32.0001Z" fill="white"/>
</g>
<defs>
<clipPath id="clip0_1403_1981">
<rect width="24" height="24" fill="white" transform="translate(8 8)"/>
</clipPath>
</defs>
</svg>
